%TF.GenerationSoftware,KiCad,Pcbnew,(5.1.10)-1*%
%TF.CreationDate,2025-06-17T20:32:58+05:30*%
%TF.ProjectId,STM32_Clone,53544d33-325f-4436-9c6f-6e652e6b6963,rev?*%
%TF.SameCoordinates,Original*%
%TF.FileFunction,Legend,Top*%
%TF.FilePolarity,Positive*%
%FSLAX46Y46*%
G04 Gerber Fmt 4.6, Leading zero omitted, Abs format (unit mm)*
G04 Created by KiCad (PCBNEW (5.1.10)-1) date 2025-06-17 20:32:58*
%MOMM*%
%LPD*%
G01*
G04 APERTURE LIST*
%ADD10C,0.200000*%
%ADD11C,0.150000*%
%ADD12C,0.300000*%
%ADD13C,0.120000*%
%ADD14C,0.100000*%
G04 APERTURE END LIST*
D10*
X87644047Y-76371428D02*
X88405952Y-76371428D01*
X100569047Y-76421428D02*
X101330952Y-76421428D01*
X102169047Y-102946428D02*
X102930952Y-102946428D01*
D11*
X88564285Y-86389285D02*
X88135714Y-86389285D01*
X88350000Y-86389285D02*
X88350000Y-85639285D01*
X88278571Y-85746428D01*
X88207142Y-85817857D01*
X88135714Y-85853571D01*
D10*
X88350000Y-85400000D02*
X88125000Y-85050000D01*
X88350000Y-85400000D02*
X88575000Y-85025000D01*
X88350000Y-83625000D02*
X88350000Y-85400000D01*
D12*
X87954761Y-103840476D02*
X87954761Y-102590476D01*
X88490476Y-102709523D02*
X88550000Y-102650000D01*
X88669047Y-102590476D01*
X88966666Y-102590476D01*
X89085714Y-102650000D01*
X89145238Y-102709523D01*
X89204761Y-102828571D01*
X89204761Y-102947619D01*
X89145238Y-103126190D01*
X88430952Y-103840476D01*
X89204761Y-103840476D01*
X90454761Y-103721428D02*
X90395238Y-103780952D01*
X90216666Y-103840476D01*
X90097619Y-103840476D01*
X89919047Y-103780952D01*
X89800000Y-103661904D01*
X89740476Y-103542857D01*
X89680952Y-103304761D01*
X89680952Y-103126190D01*
X89740476Y-102888095D01*
X89800000Y-102769047D01*
X89919047Y-102650000D01*
X90097619Y-102590476D01*
X90216666Y-102590476D01*
X90395238Y-102650000D01*
X90454761Y-102709523D01*
X115276190Y-96515476D02*
X115514285Y-96515476D01*
X115633333Y-96575000D01*
X115752380Y-96694047D01*
X115811904Y-96932142D01*
X115811904Y-97348809D01*
X115752380Y-97586904D01*
X115633333Y-97705952D01*
X115514285Y-97765476D01*
X115276190Y-97765476D01*
X115157142Y-97705952D01*
X115038095Y-97586904D01*
X114978571Y-97348809D01*
X114978571Y-96932142D01*
X115038095Y-96694047D01*
X115157142Y-96575000D01*
X115276190Y-96515476D01*
X116347619Y-97765476D02*
X116347619Y-96515476D01*
X117061904Y-97765476D01*
X117061904Y-96515476D01*
X114322619Y-80965476D02*
X114322619Y-81977380D01*
X114382142Y-82096428D01*
X114441666Y-82155952D01*
X114560714Y-82215476D01*
X114798809Y-82215476D01*
X114917857Y-82155952D01*
X114977380Y-82096428D01*
X115036904Y-81977380D01*
X115036904Y-80965476D01*
X115572619Y-82155952D02*
X115751190Y-82215476D01*
X116048809Y-82215476D01*
X116167857Y-82155952D01*
X116227380Y-82096428D01*
X116286904Y-81977380D01*
X116286904Y-81858333D01*
X116227380Y-81739285D01*
X116167857Y-81679761D01*
X116048809Y-81620238D01*
X115810714Y-81560714D01*
X115691666Y-81501190D01*
X115632142Y-81441666D01*
X115572619Y-81322619D01*
X115572619Y-81203571D01*
X115632142Y-81084523D01*
X115691666Y-81025000D01*
X115810714Y-80965476D01*
X116108333Y-80965476D01*
X116286904Y-81025000D01*
X117239285Y-81560714D02*
X117417857Y-81620238D01*
X117477380Y-81679761D01*
X117536904Y-81798809D01*
X117536904Y-81977380D01*
X117477380Y-82096428D01*
X117417857Y-82155952D01*
X117298809Y-82215476D01*
X116822619Y-82215476D01*
X116822619Y-80965476D01*
X117239285Y-80965476D01*
X117358333Y-81025000D01*
X117417857Y-81084523D01*
X117477380Y-81203571D01*
X117477380Y-81322619D01*
X117417857Y-81441666D01*
X117358333Y-81501190D01*
X117239285Y-81560714D01*
X116822619Y-81560714D01*
D11*
X84200000Y-88375000D02*
X84300000Y-88408333D01*
X84333333Y-88441666D01*
X84366666Y-88508333D01*
X84366666Y-88608333D01*
X84333333Y-88675000D01*
X84300000Y-88708333D01*
X84233333Y-88741666D01*
X83966666Y-88741666D01*
X83966666Y-88041666D01*
X84200000Y-88041666D01*
X84266666Y-88075000D01*
X84300000Y-88108333D01*
X84333333Y-88175000D01*
X84333333Y-88241666D01*
X84300000Y-88308333D01*
X84266666Y-88341666D01*
X84200000Y-88375000D01*
X83966666Y-88375000D01*
X84800000Y-88041666D02*
X84933333Y-88041666D01*
X85000000Y-88075000D01*
X85066666Y-88141666D01*
X85100000Y-88275000D01*
X85100000Y-88508333D01*
X85066666Y-88641666D01*
X85000000Y-88708333D01*
X84933333Y-88741666D01*
X84800000Y-88741666D01*
X84733333Y-88708333D01*
X84666666Y-88641666D01*
X84633333Y-88508333D01*
X84633333Y-88275000D01*
X84666666Y-88141666D01*
X84733333Y-88075000D01*
X84800000Y-88041666D01*
X85533333Y-88041666D02*
X85666666Y-88041666D01*
X85733333Y-88075000D01*
X85800000Y-88141666D01*
X85833333Y-88275000D01*
X85833333Y-88508333D01*
X85800000Y-88641666D01*
X85733333Y-88708333D01*
X85666666Y-88741666D01*
X85533333Y-88741666D01*
X85466666Y-88708333D01*
X85400000Y-88641666D01*
X85366666Y-88508333D01*
X85366666Y-88275000D01*
X85400000Y-88141666D01*
X85466666Y-88075000D01*
X85533333Y-88041666D01*
X86033333Y-88041666D02*
X86433333Y-88041666D01*
X86233333Y-88741666D02*
X86233333Y-88041666D01*
D12*
X92280952Y-78215476D02*
X92280952Y-79227380D01*
X92340476Y-79346428D01*
X92400000Y-79405952D01*
X92519047Y-79465476D01*
X92757142Y-79465476D01*
X92876190Y-79405952D01*
X92935714Y-79346428D01*
X92995238Y-79227380D01*
X92995238Y-78215476D01*
X93530952Y-79108333D02*
X94126190Y-79108333D01*
X93411904Y-79465476D02*
X93828571Y-78215476D01*
X94245238Y-79465476D01*
X95376190Y-79465476D02*
X94959523Y-78870238D01*
X94661904Y-79465476D02*
X94661904Y-78215476D01*
X95138095Y-78215476D01*
X95257142Y-78275000D01*
X95316666Y-78334523D01*
X95376190Y-78453571D01*
X95376190Y-78632142D01*
X95316666Y-78751190D01*
X95257142Y-78810714D01*
X95138095Y-78870238D01*
X94661904Y-78870238D01*
X95733333Y-78215476D02*
X96447619Y-78215476D01*
X96090476Y-79465476D02*
X96090476Y-78215476D01*
X105578571Y-79705952D02*
X105757142Y-79765476D01*
X106054761Y-79765476D01*
X106173809Y-79705952D01*
X106233333Y-79646428D01*
X106292857Y-79527380D01*
X106292857Y-79408333D01*
X106233333Y-79289285D01*
X106173809Y-79229761D01*
X106054761Y-79170238D01*
X105816666Y-79110714D01*
X105697619Y-79051190D01*
X105638095Y-78991666D01*
X105578571Y-78872619D01*
X105578571Y-78753571D01*
X105638095Y-78634523D01*
X105697619Y-78575000D01*
X105816666Y-78515476D01*
X106114285Y-78515476D01*
X106292857Y-78575000D01*
X106709523Y-78515476D02*
X107007142Y-79765476D01*
X107245238Y-78872619D01*
X107483333Y-79765476D01*
X107780952Y-78515476D01*
X108257142Y-79765476D02*
X108257142Y-78515476D01*
X108554761Y-78515476D01*
X108733333Y-78575000D01*
X108852380Y-78694047D01*
X108911904Y-78813095D01*
X108971428Y-79051190D01*
X108971428Y-79229761D01*
X108911904Y-79467857D01*
X108852380Y-79586904D01*
X108733333Y-79705952D01*
X108554761Y-79765476D01*
X108257142Y-79765476D01*
D11*
%TO.C,J1*%
X113100000Y-85700000D02*
X113100000Y-84700000D01*
X113100000Y-89300000D02*
X113100000Y-90300000D01*
X112675000Y-89300000D02*
X113100000Y-89300000D01*
X112675000Y-88575000D02*
X112675000Y-89300000D01*
X116250000Y-83350000D02*
X114850000Y-83350000D01*
X118800000Y-83350000D02*
X118650000Y-83350000D01*
X118800000Y-83650000D02*
X118800000Y-83350000D01*
X119250000Y-83650000D02*
X118800000Y-83650000D01*
X118800000Y-91350000D02*
X119250000Y-91350000D01*
X118800000Y-91650000D02*
X118800000Y-91350000D01*
X118650000Y-91650000D02*
X118800000Y-91650000D01*
X114850000Y-91650000D02*
X116250000Y-91650000D01*
D13*
%TO.C,SW1*%
X86120000Y-84900000D02*
X86120000Y-85100000D01*
X83270000Y-80650000D02*
X83270000Y-86350000D01*
X86120000Y-81900000D02*
X86120000Y-83600000D01*
X85070000Y-80050000D02*
X84280000Y-80050000D01*
X84280000Y-86950000D02*
X85070000Y-86950000D01*
%TO.C,Y1*%
X87150000Y-89000000D02*
X83850000Y-89000000D01*
X83850000Y-89000000D02*
X83850000Y-93000000D01*
%TO.C,U2*%
X99160000Y-93610000D02*
X99610000Y-93610000D01*
X99610000Y-93610000D02*
X99610000Y-93160000D01*
X92840000Y-93610000D02*
X92390000Y-93610000D01*
X92390000Y-93610000D02*
X92390000Y-93160000D01*
X99160000Y-86390000D02*
X99610000Y-86390000D01*
X99610000Y-86390000D02*
X99610000Y-86840000D01*
X92840000Y-86390000D02*
X92390000Y-86390000D01*
X92390000Y-86390000D02*
X92390000Y-86840000D01*
X92390000Y-86840000D02*
X91100000Y-86840000D01*
%TO.C,U1*%
X103590000Y-98410000D02*
X104850000Y-98410000D01*
X110410000Y-98410000D02*
X109150000Y-98410000D01*
X103590000Y-94650000D02*
X103590000Y-98410000D01*
X110410000Y-92400000D02*
X110410000Y-98410000D01*
%TO.C,R5*%
X96846359Y-98120000D02*
X97153641Y-98120000D01*
X96846359Y-98880000D02*
X97153641Y-98880000D01*
%TO.C,R4*%
X94653641Y-98880000D02*
X94346359Y-98880000D01*
X94653641Y-98120000D02*
X94346359Y-98120000D01*
%TO.C,R3*%
X110480000Y-86871359D02*
X110480000Y-87178641D01*
X109720000Y-86871359D02*
X109720000Y-87178641D01*
%TO.C,R2*%
X89580000Y-82546359D02*
X89580000Y-82853641D01*
X88820000Y-82546359D02*
X88820000Y-82853641D01*
%TO.C,R1*%
X114336359Y-94620000D02*
X114643641Y-94620000D01*
X114336359Y-95380000D02*
X114643641Y-95380000D01*
%TO.C,J4*%
X101450000Y-104330000D02*
X101450000Y-101670000D01*
X93770000Y-104330000D02*
X101450000Y-104330000D01*
X93770000Y-101670000D02*
X101450000Y-101670000D01*
X93770000Y-104330000D02*
X93770000Y-101670000D01*
X92500000Y-104330000D02*
X91170000Y-104330000D01*
X91170000Y-104330000D02*
X91170000Y-103000000D01*
%TO.C,J3*%
X102050000Y-75170000D02*
X102050000Y-77830000D01*
X109730000Y-75170000D02*
X102050000Y-75170000D01*
X109730000Y-77830000D02*
X102050000Y-77830000D01*
X109730000Y-75170000D02*
X109730000Y-77830000D01*
X111000000Y-75170000D02*
X112330000Y-75170000D01*
X112330000Y-75170000D02*
X112330000Y-76500000D01*
%TO.C,J2*%
X89050000Y-75170000D02*
X89050000Y-77830000D01*
X96730000Y-75170000D02*
X89050000Y-75170000D01*
X96730000Y-77830000D02*
X89050000Y-77830000D01*
X96730000Y-75170000D02*
X96730000Y-77830000D01*
X98000000Y-75170000D02*
X99330000Y-75170000D01*
X99330000Y-75170000D02*
X99330000Y-76500000D01*
%TO.C,FB1*%
X89990000Y-96662779D02*
X89990000Y-96337221D01*
X91010000Y-96662779D02*
X91010000Y-96337221D01*
%TO.C,D1*%
X114735000Y-98300000D02*
X114735000Y-96015000D01*
X114735000Y-96015000D02*
X113265000Y-96015000D01*
X113265000Y-96015000D02*
X113265000Y-98300000D01*
%TO.C,C13*%
X88860000Y-91392164D02*
X88860000Y-91607836D01*
X88140000Y-91392164D02*
X88140000Y-91607836D01*
%TO.C,C12*%
X88140000Y-88607836D02*
X88140000Y-88392164D01*
X88860000Y-88607836D02*
X88860000Y-88392164D01*
%TO.C,C11*%
X93392164Y-95640000D02*
X93607836Y-95640000D01*
X93392164Y-96360000D02*
X93607836Y-96360000D01*
%TO.C,C10*%
X88607836Y-98360000D02*
X88392164Y-98360000D01*
X88607836Y-97640000D02*
X88392164Y-97640000D01*
%TO.C,C9*%
X88107836Y-96360000D02*
X87892164Y-96360000D01*
X88107836Y-95640000D02*
X87892164Y-95640000D01*
%TO.C,C8*%
X90360000Y-91607836D02*
X90360000Y-91392164D01*
X89640000Y-91607836D02*
X89640000Y-91392164D01*
%TO.C,C7*%
X93392164Y-83640000D02*
X93607836Y-83640000D01*
X93392164Y-84360000D02*
X93607836Y-84360000D01*
%TO.C,C6*%
X102360000Y-87392164D02*
X102360000Y-87607836D01*
X101640000Y-87392164D02*
X101640000Y-87607836D01*
%TO.C,C5*%
X99107836Y-96360000D02*
X98892164Y-96360000D01*
X99107836Y-95640000D02*
X98892164Y-95640000D01*
%TO.C,C4*%
X89640000Y-86627836D02*
X89640000Y-86412164D01*
X90360000Y-86627836D02*
X90360000Y-86412164D01*
%TO.C,C3*%
X93359420Y-81990000D02*
X93640580Y-81990000D01*
X93359420Y-83010000D02*
X93640580Y-83010000D01*
%TO.C,C2*%
X111165000Y-97011252D02*
X111165000Y-96488748D01*
X112635000Y-97011252D02*
X112635000Y-96488748D01*
%TO.C,C1*%
X105738748Y-90265000D02*
X106261252Y-90265000D01*
X105738748Y-91735000D02*
X106261252Y-91735000D01*
%TO.C,SW1*%
D14*
X87027380Y-83366666D02*
X87051190Y-83295238D01*
X87051190Y-83176190D01*
X87027380Y-83128571D01*
X87003571Y-83104761D01*
X86955952Y-83080952D01*
X86908333Y-83080952D01*
X86860714Y-83104761D01*
X86836904Y-83128571D01*
X86813095Y-83176190D01*
X86789285Y-83271428D01*
X86765476Y-83319047D01*
X86741666Y-83342857D01*
X86694047Y-83366666D01*
X86646428Y-83366666D01*
X86598809Y-83342857D01*
X86575000Y-83319047D01*
X86551190Y-83271428D01*
X86551190Y-83152380D01*
X86575000Y-83080952D01*
X86551190Y-82914285D02*
X87051190Y-82795238D01*
X86694047Y-82700000D01*
X87051190Y-82604761D01*
X86551190Y-82485714D01*
X87051190Y-82033333D02*
X87051190Y-82319047D01*
X87051190Y-82176190D02*
X86551190Y-82176190D01*
X86622619Y-82223809D01*
X86670238Y-82271428D01*
X86694047Y-82319047D01*
%TO.C,Y1*%
X85261904Y-93988095D02*
X85261904Y-94226190D01*
X85095238Y-93726190D02*
X85261904Y-93988095D01*
X85428571Y-93726190D01*
X85857142Y-94226190D02*
X85571428Y-94226190D01*
X85714285Y-94226190D02*
X85714285Y-93726190D01*
X85666666Y-93797619D01*
X85619047Y-93845238D01*
X85571428Y-93869047D01*
%TO.C,U2*%
X96619047Y-84226190D02*
X96619047Y-84630952D01*
X96642857Y-84678571D01*
X96666666Y-84702380D01*
X96714285Y-84726190D01*
X96809523Y-84726190D01*
X96857142Y-84702380D01*
X96880952Y-84678571D01*
X96904761Y-84630952D01*
X96904761Y-84226190D01*
X97119047Y-84273809D02*
X97142857Y-84250000D01*
X97190476Y-84226190D01*
X97309523Y-84226190D01*
X97357142Y-84250000D01*
X97380952Y-84273809D01*
X97404761Y-84321428D01*
X97404761Y-84369047D01*
X97380952Y-84440476D01*
X97095238Y-84726190D01*
X97404761Y-84726190D01*
%TO.C,U1*%
X106619047Y-101226190D02*
X106619047Y-101630952D01*
X106642857Y-101678571D01*
X106666666Y-101702380D01*
X106714285Y-101726190D01*
X106809523Y-101726190D01*
X106857142Y-101702380D01*
X106880952Y-101678571D01*
X106904761Y-101630952D01*
X106904761Y-101226190D01*
X107404761Y-101726190D02*
X107119047Y-101726190D01*
X107261904Y-101726190D02*
X107261904Y-101226190D01*
X107214285Y-101297619D01*
X107166666Y-101345238D01*
X107119047Y-101369047D01*
%TO.C,R5*%
X96891666Y-99651190D02*
X96725000Y-99413095D01*
X96605952Y-99651190D02*
X96605952Y-99151190D01*
X96796428Y-99151190D01*
X96844047Y-99175000D01*
X96867857Y-99198809D01*
X96891666Y-99246428D01*
X96891666Y-99317857D01*
X96867857Y-99365476D01*
X96844047Y-99389285D01*
X96796428Y-99413095D01*
X96605952Y-99413095D01*
X97344047Y-99151190D02*
X97105952Y-99151190D01*
X97082142Y-99389285D01*
X97105952Y-99365476D01*
X97153571Y-99341666D01*
X97272619Y-99341666D01*
X97320238Y-99365476D01*
X97344047Y-99389285D01*
X97367857Y-99436904D01*
X97367857Y-99555952D01*
X97344047Y-99603571D01*
X97320238Y-99627380D01*
X97272619Y-99651190D01*
X97153571Y-99651190D01*
X97105952Y-99627380D01*
X97082142Y-99603571D01*
%TO.C,R4*%
X94291666Y-99626190D02*
X94125000Y-99388095D01*
X94005952Y-99626190D02*
X94005952Y-99126190D01*
X94196428Y-99126190D01*
X94244047Y-99150000D01*
X94267857Y-99173809D01*
X94291666Y-99221428D01*
X94291666Y-99292857D01*
X94267857Y-99340476D01*
X94244047Y-99364285D01*
X94196428Y-99388095D01*
X94005952Y-99388095D01*
X94720238Y-99292857D02*
X94720238Y-99626190D01*
X94601190Y-99102380D02*
X94482142Y-99459523D01*
X94791666Y-99459523D01*
%TO.C,R3*%
X108916666Y-87276190D02*
X108750000Y-87038095D01*
X108630952Y-87276190D02*
X108630952Y-86776190D01*
X108821428Y-86776190D01*
X108869047Y-86800000D01*
X108892857Y-86823809D01*
X108916666Y-86871428D01*
X108916666Y-86942857D01*
X108892857Y-86990476D01*
X108869047Y-87014285D01*
X108821428Y-87038095D01*
X108630952Y-87038095D01*
X109083333Y-86776190D02*
X109392857Y-86776190D01*
X109226190Y-86966666D01*
X109297619Y-86966666D01*
X109345238Y-86990476D01*
X109369047Y-87014285D01*
X109392857Y-87061904D01*
X109392857Y-87180952D01*
X109369047Y-87228571D01*
X109345238Y-87252380D01*
X109297619Y-87276190D01*
X109154761Y-87276190D01*
X109107142Y-87252380D01*
X109083333Y-87228571D01*
%TO.C,R2*%
X89116666Y-84426190D02*
X88950000Y-84188095D01*
X88830952Y-84426190D02*
X88830952Y-83926190D01*
X89021428Y-83926190D01*
X89069047Y-83950000D01*
X89092857Y-83973809D01*
X89116666Y-84021428D01*
X89116666Y-84092857D01*
X89092857Y-84140476D01*
X89069047Y-84164285D01*
X89021428Y-84188095D01*
X88830952Y-84188095D01*
X89307142Y-83973809D02*
X89330952Y-83950000D01*
X89378571Y-83926190D01*
X89497619Y-83926190D01*
X89545238Y-83950000D01*
X89569047Y-83973809D01*
X89592857Y-84021428D01*
X89592857Y-84069047D01*
X89569047Y-84140476D01*
X89283333Y-84426190D01*
X89592857Y-84426190D01*
%TO.C,R1*%
X115841666Y-95251190D02*
X115675000Y-95013095D01*
X115555952Y-95251190D02*
X115555952Y-94751190D01*
X115746428Y-94751190D01*
X115794047Y-94775000D01*
X115817857Y-94798809D01*
X115841666Y-94846428D01*
X115841666Y-94917857D01*
X115817857Y-94965476D01*
X115794047Y-94989285D01*
X115746428Y-95013095D01*
X115555952Y-95013095D01*
X116317857Y-95251190D02*
X116032142Y-95251190D01*
X116175000Y-95251190D02*
X116175000Y-94751190D01*
X116127380Y-94822619D01*
X116079761Y-94870238D01*
X116032142Y-94894047D01*
%TO.C,FB1*%
X90183333Y-98364285D02*
X90016666Y-98364285D01*
X90016666Y-98626190D02*
X90016666Y-98126190D01*
X90254761Y-98126190D01*
X90611904Y-98364285D02*
X90683333Y-98388095D01*
X90707142Y-98411904D01*
X90730952Y-98459523D01*
X90730952Y-98530952D01*
X90707142Y-98578571D01*
X90683333Y-98602380D01*
X90635714Y-98626190D01*
X90445238Y-98626190D01*
X90445238Y-98126190D01*
X90611904Y-98126190D01*
X90659523Y-98150000D01*
X90683333Y-98173809D01*
X90707142Y-98221428D01*
X90707142Y-98269047D01*
X90683333Y-98316666D01*
X90659523Y-98340476D01*
X90611904Y-98364285D01*
X90445238Y-98364285D01*
X91207142Y-98626190D02*
X90921428Y-98626190D01*
X91064285Y-98626190D02*
X91064285Y-98126190D01*
X91016666Y-98197619D01*
X90969047Y-98245238D01*
X90921428Y-98269047D01*
%TO.C,D1*%
X113555952Y-99676190D02*
X113555952Y-99176190D01*
X113675000Y-99176190D01*
X113746428Y-99200000D01*
X113794047Y-99247619D01*
X113817857Y-99295238D01*
X113841666Y-99390476D01*
X113841666Y-99461904D01*
X113817857Y-99557142D01*
X113794047Y-99604761D01*
X113746428Y-99652380D01*
X113675000Y-99676190D01*
X113555952Y-99676190D01*
X114317857Y-99676190D02*
X114032142Y-99676190D01*
X114175000Y-99676190D02*
X114175000Y-99176190D01*
X114127380Y-99247619D01*
X114079761Y-99295238D01*
X114032142Y-99319047D01*
%TO.C,C13*%
X88053571Y-93103571D02*
X88029761Y-93127380D01*
X87958333Y-93151190D01*
X87910714Y-93151190D01*
X87839285Y-93127380D01*
X87791666Y-93079761D01*
X87767857Y-93032142D01*
X87744047Y-92936904D01*
X87744047Y-92865476D01*
X87767857Y-92770238D01*
X87791666Y-92722619D01*
X87839285Y-92675000D01*
X87910714Y-92651190D01*
X87958333Y-92651190D01*
X88029761Y-92675000D01*
X88053571Y-92698809D01*
X88529761Y-93151190D02*
X88244047Y-93151190D01*
X88386904Y-93151190D02*
X88386904Y-92651190D01*
X88339285Y-92722619D01*
X88291666Y-92770238D01*
X88244047Y-92794047D01*
X88696428Y-92651190D02*
X89005952Y-92651190D01*
X88839285Y-92841666D01*
X88910714Y-92841666D01*
X88958333Y-92865476D01*
X88982142Y-92889285D01*
X89005952Y-92936904D01*
X89005952Y-93055952D01*
X88982142Y-93103571D01*
X88958333Y-93127380D01*
X88910714Y-93151190D01*
X88767857Y-93151190D01*
X88720238Y-93127380D01*
X88696428Y-93103571D01*
%TO.C,C12*%
X88203571Y-87353571D02*
X88179761Y-87377380D01*
X88108333Y-87401190D01*
X88060714Y-87401190D01*
X87989285Y-87377380D01*
X87941666Y-87329761D01*
X87917857Y-87282142D01*
X87894047Y-87186904D01*
X87894047Y-87115476D01*
X87917857Y-87020238D01*
X87941666Y-86972619D01*
X87989285Y-86925000D01*
X88060714Y-86901190D01*
X88108333Y-86901190D01*
X88179761Y-86925000D01*
X88203571Y-86948809D01*
X88679761Y-87401190D02*
X88394047Y-87401190D01*
X88536904Y-87401190D02*
X88536904Y-86901190D01*
X88489285Y-86972619D01*
X88441666Y-87020238D01*
X88394047Y-87044047D01*
X88870238Y-86948809D02*
X88894047Y-86925000D01*
X88941666Y-86901190D01*
X89060714Y-86901190D01*
X89108333Y-86925000D01*
X89132142Y-86948809D01*
X89155952Y-86996428D01*
X89155952Y-87044047D01*
X89132142Y-87115476D01*
X88846428Y-87401190D01*
X89155952Y-87401190D01*
%TO.C,C11*%
X93178571Y-97178571D02*
X93154761Y-97202380D01*
X93083333Y-97226190D01*
X93035714Y-97226190D01*
X92964285Y-97202380D01*
X92916666Y-97154761D01*
X92892857Y-97107142D01*
X92869047Y-97011904D01*
X92869047Y-96940476D01*
X92892857Y-96845238D01*
X92916666Y-96797619D01*
X92964285Y-96750000D01*
X93035714Y-96726190D01*
X93083333Y-96726190D01*
X93154761Y-96750000D01*
X93178571Y-96773809D01*
X93654761Y-97226190D02*
X93369047Y-97226190D01*
X93511904Y-97226190D02*
X93511904Y-96726190D01*
X93464285Y-96797619D01*
X93416666Y-96845238D01*
X93369047Y-96869047D01*
X94130952Y-97226190D02*
X93845238Y-97226190D01*
X93988095Y-97226190D02*
X93988095Y-96726190D01*
X93940476Y-96797619D01*
X93892857Y-96845238D01*
X93845238Y-96869047D01*
%TO.C,C10*%
X86378571Y-98178571D02*
X86354761Y-98202380D01*
X86283333Y-98226190D01*
X86235714Y-98226190D01*
X86164285Y-98202380D01*
X86116666Y-98154761D01*
X86092857Y-98107142D01*
X86069047Y-98011904D01*
X86069047Y-97940476D01*
X86092857Y-97845238D01*
X86116666Y-97797619D01*
X86164285Y-97750000D01*
X86235714Y-97726190D01*
X86283333Y-97726190D01*
X86354761Y-97750000D01*
X86378571Y-97773809D01*
X86854761Y-98226190D02*
X86569047Y-98226190D01*
X86711904Y-98226190D02*
X86711904Y-97726190D01*
X86664285Y-97797619D01*
X86616666Y-97845238D01*
X86569047Y-97869047D01*
X87164285Y-97726190D02*
X87211904Y-97726190D01*
X87259523Y-97750000D01*
X87283333Y-97773809D01*
X87307142Y-97821428D01*
X87330952Y-97916666D01*
X87330952Y-98035714D01*
X87307142Y-98130952D01*
X87283333Y-98178571D01*
X87259523Y-98202380D01*
X87211904Y-98226190D01*
X87164285Y-98226190D01*
X87116666Y-98202380D01*
X87092857Y-98178571D01*
X87069047Y-98130952D01*
X87045238Y-98035714D01*
X87045238Y-97916666D01*
X87069047Y-97821428D01*
X87092857Y-97773809D01*
X87116666Y-97750000D01*
X87164285Y-97726190D01*
%TO.C,C9*%
X86316666Y-96178571D02*
X86292857Y-96202380D01*
X86221428Y-96226190D01*
X86173809Y-96226190D01*
X86102380Y-96202380D01*
X86054761Y-96154761D01*
X86030952Y-96107142D01*
X86007142Y-96011904D01*
X86007142Y-95940476D01*
X86030952Y-95845238D01*
X86054761Y-95797619D01*
X86102380Y-95750000D01*
X86173809Y-95726190D01*
X86221428Y-95726190D01*
X86292857Y-95750000D01*
X86316666Y-95773809D01*
X86554761Y-96226190D02*
X86650000Y-96226190D01*
X86697619Y-96202380D01*
X86721428Y-96178571D01*
X86769047Y-96107142D01*
X86792857Y-96011904D01*
X86792857Y-95821428D01*
X86769047Y-95773809D01*
X86745238Y-95750000D01*
X86697619Y-95726190D01*
X86602380Y-95726190D01*
X86554761Y-95750000D01*
X86530952Y-95773809D01*
X86507142Y-95821428D01*
X86507142Y-95940476D01*
X86530952Y-95988095D01*
X86554761Y-96011904D01*
X86602380Y-96035714D01*
X86697619Y-96035714D01*
X86745238Y-96011904D01*
X86769047Y-95988095D01*
X86792857Y-95940476D01*
%TO.C,C8*%
X89891666Y-93053571D02*
X89867857Y-93077380D01*
X89796428Y-93101190D01*
X89748809Y-93101190D01*
X89677380Y-93077380D01*
X89629761Y-93029761D01*
X89605952Y-92982142D01*
X89582142Y-92886904D01*
X89582142Y-92815476D01*
X89605952Y-92720238D01*
X89629761Y-92672619D01*
X89677380Y-92625000D01*
X89748809Y-92601190D01*
X89796428Y-92601190D01*
X89867857Y-92625000D01*
X89891666Y-92648809D01*
X90177380Y-92815476D02*
X90129761Y-92791666D01*
X90105952Y-92767857D01*
X90082142Y-92720238D01*
X90082142Y-92696428D01*
X90105952Y-92648809D01*
X90129761Y-92625000D01*
X90177380Y-92601190D01*
X90272619Y-92601190D01*
X90320238Y-92625000D01*
X90344047Y-92648809D01*
X90367857Y-92696428D01*
X90367857Y-92720238D01*
X90344047Y-92767857D01*
X90320238Y-92791666D01*
X90272619Y-92815476D01*
X90177380Y-92815476D01*
X90129761Y-92839285D01*
X90105952Y-92863095D01*
X90082142Y-92910714D01*
X90082142Y-93005952D01*
X90105952Y-93053571D01*
X90129761Y-93077380D01*
X90177380Y-93101190D01*
X90272619Y-93101190D01*
X90320238Y-93077380D01*
X90344047Y-93053571D01*
X90367857Y-93005952D01*
X90367857Y-92910714D01*
X90344047Y-92863095D01*
X90320238Y-92839285D01*
X90272619Y-92815476D01*
%TO.C,C7*%
X91916666Y-84178571D02*
X91892857Y-84202380D01*
X91821428Y-84226190D01*
X91773809Y-84226190D01*
X91702380Y-84202380D01*
X91654761Y-84154761D01*
X91630952Y-84107142D01*
X91607142Y-84011904D01*
X91607142Y-83940476D01*
X91630952Y-83845238D01*
X91654761Y-83797619D01*
X91702380Y-83750000D01*
X91773809Y-83726190D01*
X91821428Y-83726190D01*
X91892857Y-83750000D01*
X91916666Y-83773809D01*
X92083333Y-83726190D02*
X92416666Y-83726190D01*
X92202380Y-84226190D01*
%TO.C,C6*%
X101916666Y-86178571D02*
X101892857Y-86202380D01*
X101821428Y-86226190D01*
X101773809Y-86226190D01*
X101702380Y-86202380D01*
X101654761Y-86154761D01*
X101630952Y-86107142D01*
X101607142Y-86011904D01*
X101607142Y-85940476D01*
X101630952Y-85845238D01*
X101654761Y-85797619D01*
X101702380Y-85750000D01*
X101773809Y-85726190D01*
X101821428Y-85726190D01*
X101892857Y-85750000D01*
X101916666Y-85773809D01*
X102345238Y-85726190D02*
X102250000Y-85726190D01*
X102202380Y-85750000D01*
X102178571Y-85773809D01*
X102130952Y-85845238D01*
X102107142Y-85940476D01*
X102107142Y-86130952D01*
X102130952Y-86178571D01*
X102154761Y-86202380D01*
X102202380Y-86226190D01*
X102297619Y-86226190D01*
X102345238Y-86202380D01*
X102369047Y-86178571D01*
X102392857Y-86130952D01*
X102392857Y-86011904D01*
X102369047Y-85964285D01*
X102345238Y-85940476D01*
X102297619Y-85916666D01*
X102202380Y-85916666D01*
X102154761Y-85940476D01*
X102130952Y-85964285D01*
X102107142Y-86011904D01*
%TO.C,C5*%
X99041666Y-97178571D02*
X99017857Y-97202380D01*
X98946428Y-97226190D01*
X98898809Y-97226190D01*
X98827380Y-97202380D01*
X98779761Y-97154761D01*
X98755952Y-97107142D01*
X98732142Y-97011904D01*
X98732142Y-96940476D01*
X98755952Y-96845238D01*
X98779761Y-96797619D01*
X98827380Y-96750000D01*
X98898809Y-96726190D01*
X98946428Y-96726190D01*
X99017857Y-96750000D01*
X99041666Y-96773809D01*
X99494047Y-96726190D02*
X99255952Y-96726190D01*
X99232142Y-96964285D01*
X99255952Y-96940476D01*
X99303571Y-96916666D01*
X99422619Y-96916666D01*
X99470238Y-96940476D01*
X99494047Y-96964285D01*
X99517857Y-97011904D01*
X99517857Y-97130952D01*
X99494047Y-97178571D01*
X99470238Y-97202380D01*
X99422619Y-97226190D01*
X99303571Y-97226190D01*
X99255952Y-97202380D01*
X99232142Y-97178571D01*
%TO.C,C4*%
X90916666Y-86678571D02*
X90892857Y-86702380D01*
X90821428Y-86726190D01*
X90773809Y-86726190D01*
X90702380Y-86702380D01*
X90654761Y-86654761D01*
X90630952Y-86607142D01*
X90607142Y-86511904D01*
X90607142Y-86440476D01*
X90630952Y-86345238D01*
X90654761Y-86297619D01*
X90702380Y-86250000D01*
X90773809Y-86226190D01*
X90821428Y-86226190D01*
X90892857Y-86250000D01*
X90916666Y-86273809D01*
X91345238Y-86392857D02*
X91345238Y-86726190D01*
X91226190Y-86202380D02*
X91107142Y-86559523D01*
X91416666Y-86559523D01*
%TO.C,C3*%
X93316666Y-81578571D02*
X93292857Y-81602380D01*
X93221428Y-81626190D01*
X93173809Y-81626190D01*
X93102380Y-81602380D01*
X93054761Y-81554761D01*
X93030952Y-81507142D01*
X93007142Y-81411904D01*
X93007142Y-81340476D01*
X93030952Y-81245238D01*
X93054761Y-81197619D01*
X93102380Y-81150000D01*
X93173809Y-81126190D01*
X93221428Y-81126190D01*
X93292857Y-81150000D01*
X93316666Y-81173809D01*
X93483333Y-81126190D02*
X93792857Y-81126190D01*
X93626190Y-81316666D01*
X93697619Y-81316666D01*
X93745238Y-81340476D01*
X93769047Y-81364285D01*
X93792857Y-81411904D01*
X93792857Y-81530952D01*
X93769047Y-81578571D01*
X93745238Y-81602380D01*
X93697619Y-81626190D01*
X93554761Y-81626190D01*
X93507142Y-81602380D01*
X93483333Y-81578571D01*
%TO.C,C2*%
X111816666Y-99468571D02*
X111792857Y-99492380D01*
X111721428Y-99516190D01*
X111673809Y-99516190D01*
X111602380Y-99492380D01*
X111554761Y-99444761D01*
X111530952Y-99397142D01*
X111507142Y-99301904D01*
X111507142Y-99230476D01*
X111530952Y-99135238D01*
X111554761Y-99087619D01*
X111602380Y-99040000D01*
X111673809Y-99016190D01*
X111721428Y-99016190D01*
X111792857Y-99040000D01*
X111816666Y-99063809D01*
X112007142Y-99063809D02*
X112030952Y-99040000D01*
X112078571Y-99016190D01*
X112197619Y-99016190D01*
X112245238Y-99040000D01*
X112269047Y-99063809D01*
X112292857Y-99111428D01*
X112292857Y-99159047D01*
X112269047Y-99230476D01*
X111983333Y-99516190D01*
X112292857Y-99516190D01*
%TO.C,C1*%
X103616666Y-91603571D02*
X103592857Y-91627380D01*
X103521428Y-91651190D01*
X103473809Y-91651190D01*
X103402380Y-91627380D01*
X103354761Y-91579761D01*
X103330952Y-91532142D01*
X103307142Y-91436904D01*
X103307142Y-91365476D01*
X103330952Y-91270238D01*
X103354761Y-91222619D01*
X103402380Y-91175000D01*
X103473809Y-91151190D01*
X103521428Y-91151190D01*
X103592857Y-91175000D01*
X103616666Y-91198809D01*
X104092857Y-91651190D02*
X103807142Y-91651190D01*
X103950000Y-91651190D02*
X103950000Y-91151190D01*
X103902380Y-91222619D01*
X103854761Y-91270238D01*
X103807142Y-91294047D01*
%TD*%
M02*
