%TF.GenerationSoftware,KiCad,Pcbnew,(5.1.10)-1*%
%TF.CreationDate,2025-06-17T20:32:59+05:30*%
%TF.ProjectId,STM32_Clone,53544d33-325f-4436-9c6f-6e652e6b6963,rev?*%
%TF.SameCoordinates,Original*%
%TF.FileFunction,Soldermask,Top*%
%TF.FilePolarity,Negative*%
%FSLAX46Y46*%
G04 Gerber Fmt 4.6, Leading zero omitted, Abs format (unit mm)*
G04 Created by KiCad (PCBNEW (5.1.10)-1) date 2025-06-17 20:32:59*
%MOMM*%
%LPD*%
G01*
G04 APERTURE LIST*
%ADD10O,2.400000X1.850000*%
%ADD11O,2.200000X1.550000*%
%ADD12O,1.200000X1.200000*%
%ADD13C,1.300000*%
%ADD14C,2.600000*%
%ADD15O,2.100000X2.100000*%
G04 APERTURE END LIST*
%TO.C,J1*%
G36*
G01*
X114250000Y-89225000D02*
X112950000Y-89225000D01*
G75*
G02*
X112750000Y-89025000I0J200000D01*
G01*
X112750000Y-88575000D01*
G75*
G02*
X112950000Y-88375000I200000J0D01*
G01*
X114250000Y-88375000D01*
G75*
G02*
X114450000Y-88575000I0J-200000D01*
G01*
X114450000Y-89025000D01*
G75*
G02*
X114250000Y-89225000I-200000J0D01*
G01*
G37*
G36*
G01*
X114250000Y-88575000D02*
X112950000Y-88575000D01*
G75*
G02*
X112750000Y-88375000I0J200000D01*
G01*
X112750000Y-87925000D01*
G75*
G02*
X112950000Y-87725000I200000J0D01*
G01*
X114250000Y-87725000D01*
G75*
G02*
X114450000Y-87925000I0J-200000D01*
G01*
X114450000Y-88375000D01*
G75*
G02*
X114250000Y-88575000I-200000J0D01*
G01*
G37*
G36*
G01*
X114250000Y-87925000D02*
X112950000Y-87925000D01*
G75*
G02*
X112750000Y-87725000I0J200000D01*
G01*
X112750000Y-87275000D01*
G75*
G02*
X112950000Y-87075000I200000J0D01*
G01*
X114250000Y-87075000D01*
G75*
G02*
X114450000Y-87275000I0J-200000D01*
G01*
X114450000Y-87725000D01*
G75*
G02*
X114250000Y-87925000I-200000J0D01*
G01*
G37*
G36*
G01*
X114250000Y-87275000D02*
X112950000Y-87275000D01*
G75*
G02*
X112750000Y-87075000I0J200000D01*
G01*
X112750000Y-86625000D01*
G75*
G02*
X112950000Y-86425000I200000J0D01*
G01*
X114250000Y-86425000D01*
G75*
G02*
X114450000Y-86625000I0J-200000D01*
G01*
X114450000Y-87075000D01*
G75*
G02*
X114250000Y-87275000I-200000J0D01*
G01*
G37*
G36*
G01*
X114250000Y-86625000D02*
X112950000Y-86625000D01*
G75*
G02*
X112750000Y-86425000I0J200000D01*
G01*
X112750000Y-85975000D01*
G75*
G02*
X112950000Y-85775000I200000J0D01*
G01*
X114250000Y-85775000D01*
G75*
G02*
X114450000Y-85975000I0J-200000D01*
G01*
X114450000Y-86425000D01*
G75*
G02*
X114250000Y-86625000I-200000J0D01*
G01*
G37*
D10*
X113650000Y-91225000D03*
X113650000Y-83775000D03*
D11*
X117450000Y-91375000D03*
X117450000Y-83625000D03*
D12*
X114700000Y-90000000D03*
X114700000Y-85000000D03*
%TD*%
%TO.C,SW1*%
G36*
G01*
X85380000Y-79150000D02*
X86180000Y-79150000D01*
G75*
G02*
X86380000Y-79350000I0J-200000D01*
G01*
X86380000Y-80350000D01*
G75*
G02*
X86180000Y-80550000I-200000J0D01*
G01*
X85380000Y-80550000D01*
G75*
G02*
X85180000Y-80350000I0J200000D01*
G01*
X85180000Y-79350000D01*
G75*
G02*
X85380000Y-79150000I200000J0D01*
G01*
G37*
G36*
G01*
X85380000Y-86450000D02*
X86180000Y-86450000D01*
G75*
G02*
X86380000Y-86650000I0J-200000D01*
G01*
X86380000Y-87650000D01*
G75*
G02*
X86180000Y-87850000I-200000J0D01*
G01*
X85380000Y-87850000D01*
G75*
G02*
X85180000Y-87650000I0J200000D01*
G01*
X85180000Y-86650000D01*
G75*
G02*
X85380000Y-86450000I200000J0D01*
G01*
G37*
G36*
G01*
X83170000Y-86450000D02*
X83970000Y-86450000D01*
G75*
G02*
X84170000Y-86650000I0J-200000D01*
G01*
X84170000Y-87650000D01*
G75*
G02*
X83970000Y-87850000I-200000J0D01*
G01*
X83170000Y-87850000D01*
G75*
G02*
X82970000Y-87650000I0J200000D01*
G01*
X82970000Y-86650000D01*
G75*
G02*
X83170000Y-86450000I200000J0D01*
G01*
G37*
G36*
G01*
X83170000Y-79150000D02*
X83970000Y-79150000D01*
G75*
G02*
X84170000Y-79350000I0J-200000D01*
G01*
X84170000Y-80350000D01*
G75*
G02*
X83970000Y-80550000I-200000J0D01*
G01*
X83170000Y-80550000D01*
G75*
G02*
X82970000Y-80350000I0J200000D01*
G01*
X82970000Y-79350000D01*
G75*
G02*
X83170000Y-79150000I200000J0D01*
G01*
G37*
G36*
G01*
X85680000Y-85200000D02*
X87180000Y-85200000D01*
G75*
G02*
X87380000Y-85400000I0J-200000D01*
G01*
X87380000Y-86100000D01*
G75*
G02*
X87180000Y-86300000I-200000J0D01*
G01*
X85680000Y-86300000D01*
G75*
G02*
X85480000Y-86100000I0J200000D01*
G01*
X85480000Y-85400000D01*
G75*
G02*
X85680000Y-85200000I200000J0D01*
G01*
G37*
G36*
G01*
X85680000Y-83700000D02*
X87180000Y-83700000D01*
G75*
G02*
X87380000Y-83900000I0J-200000D01*
G01*
X87380000Y-84600000D01*
G75*
G02*
X87180000Y-84800000I-200000J0D01*
G01*
X85680000Y-84800000D01*
G75*
G02*
X85480000Y-84600000I0J200000D01*
G01*
X85480000Y-83900000D01*
G75*
G02*
X85680000Y-83700000I200000J0D01*
G01*
G37*
G36*
G01*
X85680000Y-80700000D02*
X87180000Y-80700000D01*
G75*
G02*
X87380000Y-80900000I0J-200000D01*
G01*
X87380000Y-81600000D01*
G75*
G02*
X87180000Y-81800000I-200000J0D01*
G01*
X85680000Y-81800000D01*
G75*
G02*
X85480000Y-81600000I0J200000D01*
G01*
X85480000Y-80900000D01*
G75*
G02*
X85680000Y-80700000I200000J0D01*
G01*
G37*
D13*
X84670000Y-85000000D03*
X84670000Y-82000000D03*
%TD*%
D14*
%TO.C,H4*%
X85000000Y-76500000D03*
%TD*%
%TO.C,H3*%
X116000000Y-76500000D03*
%TD*%
%TO.C,H2*%
X116000000Y-102000000D03*
%TD*%
%TO.C,H1*%
X85000000Y-102000000D03*
%TD*%
%TO.C,Y1*%
G36*
G01*
X85750000Y-89000000D02*
X86950000Y-89000000D01*
G75*
G02*
X87150000Y-89200000I0J-200000D01*
G01*
X87150000Y-90600000D01*
G75*
G02*
X86950000Y-90800000I-200000J0D01*
G01*
X85750000Y-90800000D01*
G75*
G02*
X85550000Y-90600000I0J200000D01*
G01*
X85550000Y-89200000D01*
G75*
G02*
X85750000Y-89000000I200000J0D01*
G01*
G37*
G36*
G01*
X85750000Y-91200000D02*
X86950000Y-91200000D01*
G75*
G02*
X87150000Y-91400000I0J-200000D01*
G01*
X87150000Y-92800000D01*
G75*
G02*
X86950000Y-93000000I-200000J0D01*
G01*
X85750000Y-93000000D01*
G75*
G02*
X85550000Y-92800000I0J200000D01*
G01*
X85550000Y-91400000D01*
G75*
G02*
X85750000Y-91200000I200000J0D01*
G01*
G37*
G36*
G01*
X84050000Y-91200000D02*
X85250000Y-91200000D01*
G75*
G02*
X85450000Y-91400000I0J-200000D01*
G01*
X85450000Y-92800000D01*
G75*
G02*
X85250000Y-93000000I-200000J0D01*
G01*
X84050000Y-93000000D01*
G75*
G02*
X83850000Y-92800000I0J200000D01*
G01*
X83850000Y-91400000D01*
G75*
G02*
X84050000Y-91200000I200000J0D01*
G01*
G37*
G36*
G01*
X84050000Y-89000000D02*
X85250000Y-89000000D01*
G75*
G02*
X85450000Y-89200000I0J-200000D01*
G01*
X85450000Y-90600000D01*
G75*
G02*
X85250000Y-90800000I-200000J0D01*
G01*
X84050000Y-90800000D01*
G75*
G02*
X83850000Y-90600000I0J200000D01*
G01*
X83850000Y-89200000D01*
G75*
G02*
X84050000Y-89000000I200000J0D01*
G01*
G37*
%TD*%
%TO.C,U2*%
G36*
G01*
X92900000Y-86600000D02*
X92900000Y-85075000D01*
G75*
G02*
X93075000Y-84900000I175000J0D01*
G01*
X93425000Y-84900000D01*
G75*
G02*
X93600000Y-85075000I0J-175000D01*
G01*
X93600000Y-86600000D01*
G75*
G02*
X93425000Y-86775000I-175000J0D01*
G01*
X93075000Y-86775000D01*
G75*
G02*
X92900000Y-86600000I0J175000D01*
G01*
G37*
G36*
G01*
X93400000Y-86600000D02*
X93400000Y-85075000D01*
G75*
G02*
X93575000Y-84900000I175000J0D01*
G01*
X93925000Y-84900000D01*
G75*
G02*
X94100000Y-85075000I0J-175000D01*
G01*
X94100000Y-86600000D01*
G75*
G02*
X93925000Y-86775000I-175000J0D01*
G01*
X93575000Y-86775000D01*
G75*
G02*
X93400000Y-86600000I0J175000D01*
G01*
G37*
G36*
G01*
X93900000Y-86600000D02*
X93900000Y-85075000D01*
G75*
G02*
X94075000Y-84900000I175000J0D01*
G01*
X94425000Y-84900000D01*
G75*
G02*
X94600000Y-85075000I0J-175000D01*
G01*
X94600000Y-86600000D01*
G75*
G02*
X94425000Y-86775000I-175000J0D01*
G01*
X94075000Y-86775000D01*
G75*
G02*
X93900000Y-86600000I0J175000D01*
G01*
G37*
G36*
G01*
X94400000Y-86600000D02*
X94400000Y-85075000D01*
G75*
G02*
X94575000Y-84900000I175000J0D01*
G01*
X94925000Y-84900000D01*
G75*
G02*
X95100000Y-85075000I0J-175000D01*
G01*
X95100000Y-86600000D01*
G75*
G02*
X94925000Y-86775000I-175000J0D01*
G01*
X94575000Y-86775000D01*
G75*
G02*
X94400000Y-86600000I0J175000D01*
G01*
G37*
G36*
G01*
X94900000Y-86600000D02*
X94900000Y-85075000D01*
G75*
G02*
X95075000Y-84900000I175000J0D01*
G01*
X95425000Y-84900000D01*
G75*
G02*
X95600000Y-85075000I0J-175000D01*
G01*
X95600000Y-86600000D01*
G75*
G02*
X95425000Y-86775000I-175000J0D01*
G01*
X95075000Y-86775000D01*
G75*
G02*
X94900000Y-86600000I0J175000D01*
G01*
G37*
G36*
G01*
X95400000Y-86600000D02*
X95400000Y-85075000D01*
G75*
G02*
X95575000Y-84900000I175000J0D01*
G01*
X95925000Y-84900000D01*
G75*
G02*
X96100000Y-85075000I0J-175000D01*
G01*
X96100000Y-86600000D01*
G75*
G02*
X95925000Y-86775000I-175000J0D01*
G01*
X95575000Y-86775000D01*
G75*
G02*
X95400000Y-86600000I0J175000D01*
G01*
G37*
G36*
G01*
X95900000Y-86600000D02*
X95900000Y-85075000D01*
G75*
G02*
X96075000Y-84900000I175000J0D01*
G01*
X96425000Y-84900000D01*
G75*
G02*
X96600000Y-85075000I0J-175000D01*
G01*
X96600000Y-86600000D01*
G75*
G02*
X96425000Y-86775000I-175000J0D01*
G01*
X96075000Y-86775000D01*
G75*
G02*
X95900000Y-86600000I0J175000D01*
G01*
G37*
G36*
G01*
X96400000Y-86600000D02*
X96400000Y-85075000D01*
G75*
G02*
X96575000Y-84900000I175000J0D01*
G01*
X96925000Y-84900000D01*
G75*
G02*
X97100000Y-85075000I0J-175000D01*
G01*
X97100000Y-86600000D01*
G75*
G02*
X96925000Y-86775000I-175000J0D01*
G01*
X96575000Y-86775000D01*
G75*
G02*
X96400000Y-86600000I0J175000D01*
G01*
G37*
G36*
G01*
X96900000Y-86600000D02*
X96900000Y-85075000D01*
G75*
G02*
X97075000Y-84900000I175000J0D01*
G01*
X97425000Y-84900000D01*
G75*
G02*
X97600000Y-85075000I0J-175000D01*
G01*
X97600000Y-86600000D01*
G75*
G02*
X97425000Y-86775000I-175000J0D01*
G01*
X97075000Y-86775000D01*
G75*
G02*
X96900000Y-86600000I0J175000D01*
G01*
G37*
G36*
G01*
X97400000Y-86600000D02*
X97400000Y-85075000D01*
G75*
G02*
X97575000Y-84900000I175000J0D01*
G01*
X97925000Y-84900000D01*
G75*
G02*
X98100000Y-85075000I0J-175000D01*
G01*
X98100000Y-86600000D01*
G75*
G02*
X97925000Y-86775000I-175000J0D01*
G01*
X97575000Y-86775000D01*
G75*
G02*
X97400000Y-86600000I0J175000D01*
G01*
G37*
G36*
G01*
X97900000Y-86600000D02*
X97900000Y-85075000D01*
G75*
G02*
X98075000Y-84900000I175000J0D01*
G01*
X98425000Y-84900000D01*
G75*
G02*
X98600000Y-85075000I0J-175000D01*
G01*
X98600000Y-86600000D01*
G75*
G02*
X98425000Y-86775000I-175000J0D01*
G01*
X98075000Y-86775000D01*
G75*
G02*
X97900000Y-86600000I0J175000D01*
G01*
G37*
G36*
G01*
X98400000Y-86600000D02*
X98400000Y-85075000D01*
G75*
G02*
X98575000Y-84900000I175000J0D01*
G01*
X98925000Y-84900000D01*
G75*
G02*
X99100000Y-85075000I0J-175000D01*
G01*
X99100000Y-86600000D01*
G75*
G02*
X98925000Y-86775000I-175000J0D01*
G01*
X98575000Y-86775000D01*
G75*
G02*
X98400000Y-86600000I0J175000D01*
G01*
G37*
G36*
G01*
X99225000Y-87425000D02*
X99225000Y-87075000D01*
G75*
G02*
X99400000Y-86900000I175000J0D01*
G01*
X100925000Y-86900000D01*
G75*
G02*
X101100000Y-87075000I0J-175000D01*
G01*
X101100000Y-87425000D01*
G75*
G02*
X100925000Y-87600000I-175000J0D01*
G01*
X99400000Y-87600000D01*
G75*
G02*
X99225000Y-87425000I0J175000D01*
G01*
G37*
G36*
G01*
X99225000Y-87925000D02*
X99225000Y-87575000D01*
G75*
G02*
X99400000Y-87400000I175000J0D01*
G01*
X100925000Y-87400000D01*
G75*
G02*
X101100000Y-87575000I0J-175000D01*
G01*
X101100000Y-87925000D01*
G75*
G02*
X100925000Y-88100000I-175000J0D01*
G01*
X99400000Y-88100000D01*
G75*
G02*
X99225000Y-87925000I0J175000D01*
G01*
G37*
G36*
G01*
X99225000Y-88425000D02*
X99225000Y-88075000D01*
G75*
G02*
X99400000Y-87900000I175000J0D01*
G01*
X100925000Y-87900000D01*
G75*
G02*
X101100000Y-88075000I0J-175000D01*
G01*
X101100000Y-88425000D01*
G75*
G02*
X100925000Y-88600000I-175000J0D01*
G01*
X99400000Y-88600000D01*
G75*
G02*
X99225000Y-88425000I0J175000D01*
G01*
G37*
G36*
G01*
X99225000Y-88925000D02*
X99225000Y-88575000D01*
G75*
G02*
X99400000Y-88400000I175000J0D01*
G01*
X100925000Y-88400000D01*
G75*
G02*
X101100000Y-88575000I0J-175000D01*
G01*
X101100000Y-88925000D01*
G75*
G02*
X100925000Y-89100000I-175000J0D01*
G01*
X99400000Y-89100000D01*
G75*
G02*
X99225000Y-88925000I0J175000D01*
G01*
G37*
G36*
G01*
X99225000Y-89425000D02*
X99225000Y-89075000D01*
G75*
G02*
X99400000Y-88900000I175000J0D01*
G01*
X100925000Y-88900000D01*
G75*
G02*
X101100000Y-89075000I0J-175000D01*
G01*
X101100000Y-89425000D01*
G75*
G02*
X100925000Y-89600000I-175000J0D01*
G01*
X99400000Y-89600000D01*
G75*
G02*
X99225000Y-89425000I0J175000D01*
G01*
G37*
G36*
G01*
X99225000Y-89925000D02*
X99225000Y-89575000D01*
G75*
G02*
X99400000Y-89400000I175000J0D01*
G01*
X100925000Y-89400000D01*
G75*
G02*
X101100000Y-89575000I0J-175000D01*
G01*
X101100000Y-89925000D01*
G75*
G02*
X100925000Y-90100000I-175000J0D01*
G01*
X99400000Y-90100000D01*
G75*
G02*
X99225000Y-89925000I0J175000D01*
G01*
G37*
G36*
G01*
X99225000Y-90425000D02*
X99225000Y-90075000D01*
G75*
G02*
X99400000Y-89900000I175000J0D01*
G01*
X100925000Y-89900000D01*
G75*
G02*
X101100000Y-90075000I0J-175000D01*
G01*
X101100000Y-90425000D01*
G75*
G02*
X100925000Y-90600000I-175000J0D01*
G01*
X99400000Y-90600000D01*
G75*
G02*
X99225000Y-90425000I0J175000D01*
G01*
G37*
G36*
G01*
X99225000Y-90925000D02*
X99225000Y-90575000D01*
G75*
G02*
X99400000Y-90400000I175000J0D01*
G01*
X100925000Y-90400000D01*
G75*
G02*
X101100000Y-90575000I0J-175000D01*
G01*
X101100000Y-90925000D01*
G75*
G02*
X100925000Y-91100000I-175000J0D01*
G01*
X99400000Y-91100000D01*
G75*
G02*
X99225000Y-90925000I0J175000D01*
G01*
G37*
G36*
G01*
X99225000Y-91425000D02*
X99225000Y-91075000D01*
G75*
G02*
X99400000Y-90900000I175000J0D01*
G01*
X100925000Y-90900000D01*
G75*
G02*
X101100000Y-91075000I0J-175000D01*
G01*
X101100000Y-91425000D01*
G75*
G02*
X100925000Y-91600000I-175000J0D01*
G01*
X99400000Y-91600000D01*
G75*
G02*
X99225000Y-91425000I0J175000D01*
G01*
G37*
G36*
G01*
X99225000Y-91925000D02*
X99225000Y-91575000D01*
G75*
G02*
X99400000Y-91400000I175000J0D01*
G01*
X100925000Y-91400000D01*
G75*
G02*
X101100000Y-91575000I0J-175000D01*
G01*
X101100000Y-91925000D01*
G75*
G02*
X100925000Y-92100000I-175000J0D01*
G01*
X99400000Y-92100000D01*
G75*
G02*
X99225000Y-91925000I0J175000D01*
G01*
G37*
G36*
G01*
X99225000Y-92425000D02*
X99225000Y-92075000D01*
G75*
G02*
X99400000Y-91900000I175000J0D01*
G01*
X100925000Y-91900000D01*
G75*
G02*
X101100000Y-92075000I0J-175000D01*
G01*
X101100000Y-92425000D01*
G75*
G02*
X100925000Y-92600000I-175000J0D01*
G01*
X99400000Y-92600000D01*
G75*
G02*
X99225000Y-92425000I0J175000D01*
G01*
G37*
G36*
G01*
X99225000Y-92925000D02*
X99225000Y-92575000D01*
G75*
G02*
X99400000Y-92400000I175000J0D01*
G01*
X100925000Y-92400000D01*
G75*
G02*
X101100000Y-92575000I0J-175000D01*
G01*
X101100000Y-92925000D01*
G75*
G02*
X100925000Y-93100000I-175000J0D01*
G01*
X99400000Y-93100000D01*
G75*
G02*
X99225000Y-92925000I0J175000D01*
G01*
G37*
G36*
G01*
X98400000Y-94925000D02*
X98400000Y-93400000D01*
G75*
G02*
X98575000Y-93225000I175000J0D01*
G01*
X98925000Y-93225000D01*
G75*
G02*
X99100000Y-93400000I0J-175000D01*
G01*
X99100000Y-94925000D01*
G75*
G02*
X98925000Y-95100000I-175000J0D01*
G01*
X98575000Y-95100000D01*
G75*
G02*
X98400000Y-94925000I0J175000D01*
G01*
G37*
G36*
G01*
X97900000Y-94925000D02*
X97900000Y-93400000D01*
G75*
G02*
X98075000Y-93225000I175000J0D01*
G01*
X98425000Y-93225000D01*
G75*
G02*
X98600000Y-93400000I0J-175000D01*
G01*
X98600000Y-94925000D01*
G75*
G02*
X98425000Y-95100000I-175000J0D01*
G01*
X98075000Y-95100000D01*
G75*
G02*
X97900000Y-94925000I0J175000D01*
G01*
G37*
G36*
G01*
X97400000Y-94925000D02*
X97400000Y-93400000D01*
G75*
G02*
X97575000Y-93225000I175000J0D01*
G01*
X97925000Y-93225000D01*
G75*
G02*
X98100000Y-93400000I0J-175000D01*
G01*
X98100000Y-94925000D01*
G75*
G02*
X97925000Y-95100000I-175000J0D01*
G01*
X97575000Y-95100000D01*
G75*
G02*
X97400000Y-94925000I0J175000D01*
G01*
G37*
G36*
G01*
X96900000Y-94925000D02*
X96900000Y-93400000D01*
G75*
G02*
X97075000Y-93225000I175000J0D01*
G01*
X97425000Y-93225000D01*
G75*
G02*
X97600000Y-93400000I0J-175000D01*
G01*
X97600000Y-94925000D01*
G75*
G02*
X97425000Y-95100000I-175000J0D01*
G01*
X97075000Y-95100000D01*
G75*
G02*
X96900000Y-94925000I0J175000D01*
G01*
G37*
G36*
G01*
X96400000Y-94925000D02*
X96400000Y-93400000D01*
G75*
G02*
X96575000Y-93225000I175000J0D01*
G01*
X96925000Y-93225000D01*
G75*
G02*
X97100000Y-93400000I0J-175000D01*
G01*
X97100000Y-94925000D01*
G75*
G02*
X96925000Y-95100000I-175000J0D01*
G01*
X96575000Y-95100000D01*
G75*
G02*
X96400000Y-94925000I0J175000D01*
G01*
G37*
G36*
G01*
X95900000Y-94925000D02*
X95900000Y-93400000D01*
G75*
G02*
X96075000Y-93225000I175000J0D01*
G01*
X96425000Y-93225000D01*
G75*
G02*
X96600000Y-93400000I0J-175000D01*
G01*
X96600000Y-94925000D01*
G75*
G02*
X96425000Y-95100000I-175000J0D01*
G01*
X96075000Y-95100000D01*
G75*
G02*
X95900000Y-94925000I0J175000D01*
G01*
G37*
G36*
G01*
X95400000Y-94925000D02*
X95400000Y-93400000D01*
G75*
G02*
X95575000Y-93225000I175000J0D01*
G01*
X95925000Y-93225000D01*
G75*
G02*
X96100000Y-93400000I0J-175000D01*
G01*
X96100000Y-94925000D01*
G75*
G02*
X95925000Y-95100000I-175000J0D01*
G01*
X95575000Y-95100000D01*
G75*
G02*
X95400000Y-94925000I0J175000D01*
G01*
G37*
G36*
G01*
X94900000Y-94925000D02*
X94900000Y-93400000D01*
G75*
G02*
X95075000Y-93225000I175000J0D01*
G01*
X95425000Y-93225000D01*
G75*
G02*
X95600000Y-93400000I0J-175000D01*
G01*
X95600000Y-94925000D01*
G75*
G02*
X95425000Y-95100000I-175000J0D01*
G01*
X95075000Y-95100000D01*
G75*
G02*
X94900000Y-94925000I0J175000D01*
G01*
G37*
G36*
G01*
X94400000Y-94925000D02*
X94400000Y-93400000D01*
G75*
G02*
X94575000Y-93225000I175000J0D01*
G01*
X94925000Y-93225000D01*
G75*
G02*
X95100000Y-93400000I0J-175000D01*
G01*
X95100000Y-94925000D01*
G75*
G02*
X94925000Y-95100000I-175000J0D01*
G01*
X94575000Y-95100000D01*
G75*
G02*
X94400000Y-94925000I0J175000D01*
G01*
G37*
G36*
G01*
X93900000Y-94925000D02*
X93900000Y-93400000D01*
G75*
G02*
X94075000Y-93225000I175000J0D01*
G01*
X94425000Y-93225000D01*
G75*
G02*
X94600000Y-93400000I0J-175000D01*
G01*
X94600000Y-94925000D01*
G75*
G02*
X94425000Y-95100000I-175000J0D01*
G01*
X94075000Y-95100000D01*
G75*
G02*
X93900000Y-94925000I0J175000D01*
G01*
G37*
G36*
G01*
X93400000Y-94925000D02*
X93400000Y-93400000D01*
G75*
G02*
X93575000Y-93225000I175000J0D01*
G01*
X93925000Y-93225000D01*
G75*
G02*
X94100000Y-93400000I0J-175000D01*
G01*
X94100000Y-94925000D01*
G75*
G02*
X93925000Y-95100000I-175000J0D01*
G01*
X93575000Y-95100000D01*
G75*
G02*
X93400000Y-94925000I0J175000D01*
G01*
G37*
G36*
G01*
X92900000Y-94925000D02*
X92900000Y-93400000D01*
G75*
G02*
X93075000Y-93225000I175000J0D01*
G01*
X93425000Y-93225000D01*
G75*
G02*
X93600000Y-93400000I0J-175000D01*
G01*
X93600000Y-94925000D01*
G75*
G02*
X93425000Y-95100000I-175000J0D01*
G01*
X93075000Y-95100000D01*
G75*
G02*
X92900000Y-94925000I0J175000D01*
G01*
G37*
G36*
G01*
X90900000Y-92925000D02*
X90900000Y-92575000D01*
G75*
G02*
X91075000Y-92400000I175000J0D01*
G01*
X92600000Y-92400000D01*
G75*
G02*
X92775000Y-92575000I0J-175000D01*
G01*
X92775000Y-92925000D01*
G75*
G02*
X92600000Y-93100000I-175000J0D01*
G01*
X91075000Y-93100000D01*
G75*
G02*
X90900000Y-92925000I0J175000D01*
G01*
G37*
G36*
G01*
X90900000Y-92425000D02*
X90900000Y-92075000D01*
G75*
G02*
X91075000Y-91900000I175000J0D01*
G01*
X92600000Y-91900000D01*
G75*
G02*
X92775000Y-92075000I0J-175000D01*
G01*
X92775000Y-92425000D01*
G75*
G02*
X92600000Y-92600000I-175000J0D01*
G01*
X91075000Y-92600000D01*
G75*
G02*
X90900000Y-92425000I0J175000D01*
G01*
G37*
G36*
G01*
X90900000Y-91925000D02*
X90900000Y-91575000D01*
G75*
G02*
X91075000Y-91400000I175000J0D01*
G01*
X92600000Y-91400000D01*
G75*
G02*
X92775000Y-91575000I0J-175000D01*
G01*
X92775000Y-91925000D01*
G75*
G02*
X92600000Y-92100000I-175000J0D01*
G01*
X91075000Y-92100000D01*
G75*
G02*
X90900000Y-91925000I0J175000D01*
G01*
G37*
G36*
G01*
X90900000Y-91425000D02*
X90900000Y-91075000D01*
G75*
G02*
X91075000Y-90900000I175000J0D01*
G01*
X92600000Y-90900000D01*
G75*
G02*
X92775000Y-91075000I0J-175000D01*
G01*
X92775000Y-91425000D01*
G75*
G02*
X92600000Y-91600000I-175000J0D01*
G01*
X91075000Y-91600000D01*
G75*
G02*
X90900000Y-91425000I0J175000D01*
G01*
G37*
G36*
G01*
X90900000Y-90925000D02*
X90900000Y-90575000D01*
G75*
G02*
X91075000Y-90400000I175000J0D01*
G01*
X92600000Y-90400000D01*
G75*
G02*
X92775000Y-90575000I0J-175000D01*
G01*
X92775000Y-90925000D01*
G75*
G02*
X92600000Y-91100000I-175000J0D01*
G01*
X91075000Y-91100000D01*
G75*
G02*
X90900000Y-90925000I0J175000D01*
G01*
G37*
G36*
G01*
X90900000Y-90425000D02*
X90900000Y-90075000D01*
G75*
G02*
X91075000Y-89900000I175000J0D01*
G01*
X92600000Y-89900000D01*
G75*
G02*
X92775000Y-90075000I0J-175000D01*
G01*
X92775000Y-90425000D01*
G75*
G02*
X92600000Y-90600000I-175000J0D01*
G01*
X91075000Y-90600000D01*
G75*
G02*
X90900000Y-90425000I0J175000D01*
G01*
G37*
G36*
G01*
X90900000Y-89925000D02*
X90900000Y-89575000D01*
G75*
G02*
X91075000Y-89400000I175000J0D01*
G01*
X92600000Y-89400000D01*
G75*
G02*
X92775000Y-89575000I0J-175000D01*
G01*
X92775000Y-89925000D01*
G75*
G02*
X92600000Y-90100000I-175000J0D01*
G01*
X91075000Y-90100000D01*
G75*
G02*
X90900000Y-89925000I0J175000D01*
G01*
G37*
G36*
G01*
X90900000Y-89425000D02*
X90900000Y-89075000D01*
G75*
G02*
X91075000Y-88900000I175000J0D01*
G01*
X92600000Y-88900000D01*
G75*
G02*
X92775000Y-89075000I0J-175000D01*
G01*
X92775000Y-89425000D01*
G75*
G02*
X92600000Y-89600000I-175000J0D01*
G01*
X91075000Y-89600000D01*
G75*
G02*
X90900000Y-89425000I0J175000D01*
G01*
G37*
G36*
G01*
X90900000Y-88925000D02*
X90900000Y-88575000D01*
G75*
G02*
X91075000Y-88400000I175000J0D01*
G01*
X92600000Y-88400000D01*
G75*
G02*
X92775000Y-88575000I0J-175000D01*
G01*
X92775000Y-88925000D01*
G75*
G02*
X92600000Y-89100000I-175000J0D01*
G01*
X91075000Y-89100000D01*
G75*
G02*
X90900000Y-88925000I0J175000D01*
G01*
G37*
G36*
G01*
X90900000Y-88425000D02*
X90900000Y-88075000D01*
G75*
G02*
X91075000Y-87900000I175000J0D01*
G01*
X92600000Y-87900000D01*
G75*
G02*
X92775000Y-88075000I0J-175000D01*
G01*
X92775000Y-88425000D01*
G75*
G02*
X92600000Y-88600000I-175000J0D01*
G01*
X91075000Y-88600000D01*
G75*
G02*
X90900000Y-88425000I0J175000D01*
G01*
G37*
G36*
G01*
X90900000Y-87925000D02*
X90900000Y-87575000D01*
G75*
G02*
X91075000Y-87400000I175000J0D01*
G01*
X92600000Y-87400000D01*
G75*
G02*
X92775000Y-87575000I0J-175000D01*
G01*
X92775000Y-87925000D01*
G75*
G02*
X92600000Y-88100000I-175000J0D01*
G01*
X91075000Y-88100000D01*
G75*
G02*
X90900000Y-87925000I0J175000D01*
G01*
G37*
G36*
G01*
X90900000Y-87425000D02*
X90900000Y-87075000D01*
G75*
G02*
X91075000Y-86900000I175000J0D01*
G01*
X92600000Y-86900000D01*
G75*
G02*
X92775000Y-87075000I0J-175000D01*
G01*
X92775000Y-87425000D01*
G75*
G02*
X92600000Y-87600000I-175000J0D01*
G01*
X91075000Y-87600000D01*
G75*
G02*
X90900000Y-87425000I0J175000D01*
G01*
G37*
%TD*%
%TO.C,U1*%
G36*
G01*
X108550000Y-92150000D02*
X110050000Y-92150000D01*
G75*
G02*
X110250000Y-92350000I0J-200000D01*
G01*
X110250000Y-94350000D01*
G75*
G02*
X110050000Y-94550000I-200000J0D01*
G01*
X108550000Y-94550000D01*
G75*
G02*
X108350000Y-94350000I0J200000D01*
G01*
X108350000Y-92350000D01*
G75*
G02*
X108550000Y-92150000I200000J0D01*
G01*
G37*
G36*
G01*
X103950000Y-92150000D02*
X105450000Y-92150000D01*
G75*
G02*
X105650000Y-92350000I0J-200000D01*
G01*
X105650000Y-94350000D01*
G75*
G02*
X105450000Y-94550000I-200000J0D01*
G01*
X103950000Y-94550000D01*
G75*
G02*
X103750000Y-94350000I0J200000D01*
G01*
X103750000Y-92350000D01*
G75*
G02*
X103950000Y-92150000I200000J0D01*
G01*
G37*
G36*
G01*
X106250000Y-92150000D02*
X107750000Y-92150000D01*
G75*
G02*
X107950000Y-92350000I0J-200000D01*
G01*
X107950000Y-94350000D01*
G75*
G02*
X107750000Y-94550000I-200000J0D01*
G01*
X106250000Y-94550000D01*
G75*
G02*
X106050000Y-94350000I0J200000D01*
G01*
X106050000Y-92350000D01*
G75*
G02*
X106250000Y-92150000I200000J0D01*
G01*
G37*
G36*
G01*
X105100000Y-98450000D02*
X108900000Y-98450000D01*
G75*
G02*
X109100000Y-98650000I0J-200000D01*
G01*
X109100000Y-100650000D01*
G75*
G02*
X108900000Y-100850000I-200000J0D01*
G01*
X105100000Y-100850000D01*
G75*
G02*
X104900000Y-100650000I0J200000D01*
G01*
X104900000Y-98650000D01*
G75*
G02*
X105100000Y-98450000I200000J0D01*
G01*
G37*
%TD*%
%TO.C,R5*%
G36*
G01*
X97040000Y-98785000D02*
X97040000Y-98215000D01*
G75*
G02*
X97275000Y-97980000I235000J0D01*
G01*
X97745000Y-97980000D01*
G75*
G02*
X97980000Y-98215000I0J-235000D01*
G01*
X97980000Y-98785000D01*
G75*
G02*
X97745000Y-99020000I-235000J0D01*
G01*
X97275000Y-99020000D01*
G75*
G02*
X97040000Y-98785000I0J235000D01*
G01*
G37*
G36*
G01*
X96020000Y-98785000D02*
X96020000Y-98215000D01*
G75*
G02*
X96255000Y-97980000I235000J0D01*
G01*
X96725000Y-97980000D01*
G75*
G02*
X96960000Y-98215000I0J-235000D01*
G01*
X96960000Y-98785000D01*
G75*
G02*
X96725000Y-99020000I-235000J0D01*
G01*
X96255000Y-99020000D01*
G75*
G02*
X96020000Y-98785000I0J235000D01*
G01*
G37*
%TD*%
%TO.C,R4*%
G36*
G01*
X94460000Y-98215000D02*
X94460000Y-98785000D01*
G75*
G02*
X94225000Y-99020000I-235000J0D01*
G01*
X93755000Y-99020000D01*
G75*
G02*
X93520000Y-98785000I0J235000D01*
G01*
X93520000Y-98215000D01*
G75*
G02*
X93755000Y-97980000I235000J0D01*
G01*
X94225000Y-97980000D01*
G75*
G02*
X94460000Y-98215000I0J-235000D01*
G01*
G37*
G36*
G01*
X95480000Y-98215000D02*
X95480000Y-98785000D01*
G75*
G02*
X95245000Y-99020000I-235000J0D01*
G01*
X94775000Y-99020000D01*
G75*
G02*
X94540000Y-98785000I0J235000D01*
G01*
X94540000Y-98215000D01*
G75*
G02*
X94775000Y-97980000I235000J0D01*
G01*
X95245000Y-97980000D01*
G75*
G02*
X95480000Y-98215000I0J-235000D01*
G01*
G37*
%TD*%
%TO.C,R3*%
G36*
G01*
X109815000Y-87065000D02*
X110385000Y-87065000D01*
G75*
G02*
X110620000Y-87300000I0J-235000D01*
G01*
X110620000Y-87770000D01*
G75*
G02*
X110385000Y-88005000I-235000J0D01*
G01*
X109815000Y-88005000D01*
G75*
G02*
X109580000Y-87770000I0J235000D01*
G01*
X109580000Y-87300000D01*
G75*
G02*
X109815000Y-87065000I235000J0D01*
G01*
G37*
G36*
G01*
X109815000Y-86045000D02*
X110385000Y-86045000D01*
G75*
G02*
X110620000Y-86280000I0J-235000D01*
G01*
X110620000Y-86750000D01*
G75*
G02*
X110385000Y-86985000I-235000J0D01*
G01*
X109815000Y-86985000D01*
G75*
G02*
X109580000Y-86750000I0J235000D01*
G01*
X109580000Y-86280000D01*
G75*
G02*
X109815000Y-86045000I235000J0D01*
G01*
G37*
%TD*%
%TO.C,R2*%
G36*
G01*
X88915000Y-82740000D02*
X89485000Y-82740000D01*
G75*
G02*
X89720000Y-82975000I0J-235000D01*
G01*
X89720000Y-83445000D01*
G75*
G02*
X89485000Y-83680000I-235000J0D01*
G01*
X88915000Y-83680000D01*
G75*
G02*
X88680000Y-83445000I0J235000D01*
G01*
X88680000Y-82975000D01*
G75*
G02*
X88915000Y-82740000I235000J0D01*
G01*
G37*
G36*
G01*
X88915000Y-81720000D02*
X89485000Y-81720000D01*
G75*
G02*
X89720000Y-81955000I0J-235000D01*
G01*
X89720000Y-82425000D01*
G75*
G02*
X89485000Y-82660000I-235000J0D01*
G01*
X88915000Y-82660000D01*
G75*
G02*
X88680000Y-82425000I0J235000D01*
G01*
X88680000Y-81955000D01*
G75*
G02*
X88915000Y-81720000I235000J0D01*
G01*
G37*
%TD*%
%TO.C,R1*%
G36*
G01*
X114530000Y-95285000D02*
X114530000Y-94715000D01*
G75*
G02*
X114765000Y-94480000I235000J0D01*
G01*
X115235000Y-94480000D01*
G75*
G02*
X115470000Y-94715000I0J-235000D01*
G01*
X115470000Y-95285000D01*
G75*
G02*
X115235000Y-95520000I-235000J0D01*
G01*
X114765000Y-95520000D01*
G75*
G02*
X114530000Y-95285000I0J235000D01*
G01*
G37*
G36*
G01*
X113510000Y-95285000D02*
X113510000Y-94715000D01*
G75*
G02*
X113745000Y-94480000I235000J0D01*
G01*
X114215000Y-94480000D01*
G75*
G02*
X114450000Y-94715000I0J-235000D01*
G01*
X114450000Y-95285000D01*
G75*
G02*
X114215000Y-95520000I-235000J0D01*
G01*
X113745000Y-95520000D01*
G75*
G02*
X113510000Y-95285000I0J235000D01*
G01*
G37*
%TD*%
D15*
%TO.C,J4*%
X100120000Y-103000000D03*
X97580000Y-103000000D03*
X95040000Y-103000000D03*
G36*
G01*
X93350000Y-104050000D02*
X91650000Y-104050000D01*
G75*
G02*
X91450000Y-103850000I0J200000D01*
G01*
X91450000Y-102150000D01*
G75*
G02*
X91650000Y-101950000I200000J0D01*
G01*
X93350000Y-101950000D01*
G75*
G02*
X93550000Y-102150000I0J-200000D01*
G01*
X93550000Y-103850000D01*
G75*
G02*
X93350000Y-104050000I-200000J0D01*
G01*
G37*
%TD*%
%TO.C,J3*%
X103380000Y-76500000D03*
X105920000Y-76500000D03*
X108460000Y-76500000D03*
G36*
G01*
X110150000Y-75450000D02*
X111850000Y-75450000D01*
G75*
G02*
X112050000Y-75650000I0J-200000D01*
G01*
X112050000Y-77350000D01*
G75*
G02*
X111850000Y-77550000I-200000J0D01*
G01*
X110150000Y-77550000D01*
G75*
G02*
X109950000Y-77350000I0J200000D01*
G01*
X109950000Y-75650000D01*
G75*
G02*
X110150000Y-75450000I200000J0D01*
G01*
G37*
%TD*%
%TO.C,J2*%
X90380000Y-76500000D03*
X92920000Y-76500000D03*
X95460000Y-76500000D03*
G36*
G01*
X97150000Y-75450000D02*
X98850000Y-75450000D01*
G75*
G02*
X99050000Y-75650000I0J-200000D01*
G01*
X99050000Y-77350000D01*
G75*
G02*
X98850000Y-77550000I-200000J0D01*
G01*
X97150000Y-77550000D01*
G75*
G02*
X96950000Y-77350000I0J200000D01*
G01*
X96950000Y-75650000D01*
G75*
G02*
X97150000Y-75450000I200000J0D01*
G01*
G37*
%TD*%
%TO.C,FB1*%
G36*
G01*
X90856250Y-96350000D02*
X90143750Y-96350000D01*
G75*
G02*
X89825000Y-96031250I0J318750D01*
G01*
X89825000Y-95393750D01*
G75*
G02*
X90143750Y-95075000I318750J0D01*
G01*
X90856250Y-95075000D01*
G75*
G02*
X91175000Y-95393750I0J-318750D01*
G01*
X91175000Y-96031250D01*
G75*
G02*
X90856250Y-96350000I-318750J0D01*
G01*
G37*
G36*
G01*
X90856250Y-97925000D02*
X90143750Y-97925000D01*
G75*
G02*
X89825000Y-97606250I0J318750D01*
G01*
X89825000Y-96968750D01*
G75*
G02*
X90143750Y-96650000I318750J0D01*
G01*
X90856250Y-96650000D01*
G75*
G02*
X91175000Y-96968750I0J-318750D01*
G01*
X91175000Y-97606250D01*
G75*
G02*
X90856250Y-97925000I-318750J0D01*
G01*
G37*
%TD*%
%TO.C,D1*%
G36*
G01*
X113643750Y-97650000D02*
X114356250Y-97650000D01*
G75*
G02*
X114675000Y-97968750I0J-318750D01*
G01*
X114675000Y-98606250D01*
G75*
G02*
X114356250Y-98925000I-318750J0D01*
G01*
X113643750Y-98925000D01*
G75*
G02*
X113325000Y-98606250I0J318750D01*
G01*
X113325000Y-97968750D01*
G75*
G02*
X113643750Y-97650000I318750J0D01*
G01*
G37*
G36*
G01*
X113643750Y-96075000D02*
X114356250Y-96075000D01*
G75*
G02*
X114675000Y-96393750I0J-318750D01*
G01*
X114675000Y-97031250D01*
G75*
G02*
X114356250Y-97350000I-318750J0D01*
G01*
X113643750Y-97350000D01*
G75*
G02*
X113325000Y-97031250I0J318750D01*
G01*
X113325000Y-96393750D01*
G75*
G02*
X113643750Y-96075000I318750J0D01*
G01*
G37*
%TD*%
%TO.C,C13*%
G36*
G01*
X88230000Y-91500000D02*
X88770000Y-91500000D01*
G75*
G02*
X89010000Y-91740000I0J-240000D01*
G01*
X89010000Y-92220000D01*
G75*
G02*
X88770000Y-92460000I-240000J0D01*
G01*
X88230000Y-92460000D01*
G75*
G02*
X87990000Y-92220000I0J240000D01*
G01*
X87990000Y-91740000D01*
G75*
G02*
X88230000Y-91500000I240000J0D01*
G01*
G37*
G36*
G01*
X88230000Y-90540000D02*
X88770000Y-90540000D01*
G75*
G02*
X89010000Y-90780000I0J-240000D01*
G01*
X89010000Y-91260000D01*
G75*
G02*
X88770000Y-91500000I-240000J0D01*
G01*
X88230000Y-91500000D01*
G75*
G02*
X87990000Y-91260000I0J240000D01*
G01*
X87990000Y-90780000D01*
G75*
G02*
X88230000Y-90540000I240000J0D01*
G01*
G37*
%TD*%
%TO.C,C12*%
G36*
G01*
X88770000Y-88500000D02*
X88230000Y-88500000D01*
G75*
G02*
X87990000Y-88260000I0J240000D01*
G01*
X87990000Y-87780000D01*
G75*
G02*
X88230000Y-87540000I240000J0D01*
G01*
X88770000Y-87540000D01*
G75*
G02*
X89010000Y-87780000I0J-240000D01*
G01*
X89010000Y-88260000D01*
G75*
G02*
X88770000Y-88500000I-240000J0D01*
G01*
G37*
G36*
G01*
X88770000Y-89460000D02*
X88230000Y-89460000D01*
G75*
G02*
X87990000Y-89220000I0J240000D01*
G01*
X87990000Y-88740000D01*
G75*
G02*
X88230000Y-88500000I240000J0D01*
G01*
X88770000Y-88500000D01*
G75*
G02*
X89010000Y-88740000I0J-240000D01*
G01*
X89010000Y-89220000D01*
G75*
G02*
X88770000Y-89460000I-240000J0D01*
G01*
G37*
%TD*%
%TO.C,C11*%
G36*
G01*
X93500000Y-96270000D02*
X93500000Y-95730000D01*
G75*
G02*
X93740000Y-95490000I240000J0D01*
G01*
X94220000Y-95490000D01*
G75*
G02*
X94460000Y-95730000I0J-240000D01*
G01*
X94460000Y-96270000D01*
G75*
G02*
X94220000Y-96510000I-240000J0D01*
G01*
X93740000Y-96510000D01*
G75*
G02*
X93500000Y-96270000I0J240000D01*
G01*
G37*
G36*
G01*
X92540000Y-96270000D02*
X92540000Y-95730000D01*
G75*
G02*
X92780000Y-95490000I240000J0D01*
G01*
X93260000Y-95490000D01*
G75*
G02*
X93500000Y-95730000I0J-240000D01*
G01*
X93500000Y-96270000D01*
G75*
G02*
X93260000Y-96510000I-240000J0D01*
G01*
X92780000Y-96510000D01*
G75*
G02*
X92540000Y-96270000I0J240000D01*
G01*
G37*
%TD*%
%TO.C,C10*%
G36*
G01*
X88500000Y-97730000D02*
X88500000Y-98270000D01*
G75*
G02*
X88260000Y-98510000I-240000J0D01*
G01*
X87780000Y-98510000D01*
G75*
G02*
X87540000Y-98270000I0J240000D01*
G01*
X87540000Y-97730000D01*
G75*
G02*
X87780000Y-97490000I240000J0D01*
G01*
X88260000Y-97490000D01*
G75*
G02*
X88500000Y-97730000I0J-240000D01*
G01*
G37*
G36*
G01*
X89460000Y-97730000D02*
X89460000Y-98270000D01*
G75*
G02*
X89220000Y-98510000I-240000J0D01*
G01*
X88740000Y-98510000D01*
G75*
G02*
X88500000Y-98270000I0J240000D01*
G01*
X88500000Y-97730000D01*
G75*
G02*
X88740000Y-97490000I240000J0D01*
G01*
X89220000Y-97490000D01*
G75*
G02*
X89460000Y-97730000I0J-240000D01*
G01*
G37*
%TD*%
%TO.C,C9*%
G36*
G01*
X88000000Y-95730000D02*
X88000000Y-96270000D01*
G75*
G02*
X87760000Y-96510000I-240000J0D01*
G01*
X87280000Y-96510000D01*
G75*
G02*
X87040000Y-96270000I0J240000D01*
G01*
X87040000Y-95730000D01*
G75*
G02*
X87280000Y-95490000I240000J0D01*
G01*
X87760000Y-95490000D01*
G75*
G02*
X88000000Y-95730000I0J-240000D01*
G01*
G37*
G36*
G01*
X88960000Y-95730000D02*
X88960000Y-96270000D01*
G75*
G02*
X88720000Y-96510000I-240000J0D01*
G01*
X88240000Y-96510000D01*
G75*
G02*
X88000000Y-96270000I0J240000D01*
G01*
X88000000Y-95730000D01*
G75*
G02*
X88240000Y-95490000I240000J0D01*
G01*
X88720000Y-95490000D01*
G75*
G02*
X88960000Y-95730000I0J-240000D01*
G01*
G37*
%TD*%
%TO.C,C8*%
G36*
G01*
X90270000Y-92460000D02*
X89730000Y-92460000D01*
G75*
G02*
X89490000Y-92220000I0J240000D01*
G01*
X89490000Y-91740000D01*
G75*
G02*
X89730000Y-91500000I240000J0D01*
G01*
X90270000Y-91500000D01*
G75*
G02*
X90510000Y-91740000I0J-240000D01*
G01*
X90510000Y-92220000D01*
G75*
G02*
X90270000Y-92460000I-240000J0D01*
G01*
G37*
G36*
G01*
X90270000Y-91500000D02*
X89730000Y-91500000D01*
G75*
G02*
X89490000Y-91260000I0J240000D01*
G01*
X89490000Y-90780000D01*
G75*
G02*
X89730000Y-90540000I240000J0D01*
G01*
X90270000Y-90540000D01*
G75*
G02*
X90510000Y-90780000I0J-240000D01*
G01*
X90510000Y-91260000D01*
G75*
G02*
X90270000Y-91500000I-240000J0D01*
G01*
G37*
%TD*%
%TO.C,C7*%
G36*
G01*
X93500000Y-84270000D02*
X93500000Y-83730000D01*
G75*
G02*
X93740000Y-83490000I240000J0D01*
G01*
X94220000Y-83490000D01*
G75*
G02*
X94460000Y-83730000I0J-240000D01*
G01*
X94460000Y-84270000D01*
G75*
G02*
X94220000Y-84510000I-240000J0D01*
G01*
X93740000Y-84510000D01*
G75*
G02*
X93500000Y-84270000I0J240000D01*
G01*
G37*
G36*
G01*
X92540000Y-84270000D02*
X92540000Y-83730000D01*
G75*
G02*
X92780000Y-83490000I240000J0D01*
G01*
X93260000Y-83490000D01*
G75*
G02*
X93500000Y-83730000I0J-240000D01*
G01*
X93500000Y-84270000D01*
G75*
G02*
X93260000Y-84510000I-240000J0D01*
G01*
X92780000Y-84510000D01*
G75*
G02*
X92540000Y-84270000I0J240000D01*
G01*
G37*
%TD*%
%TO.C,C6*%
G36*
G01*
X101730000Y-87500000D02*
X102270000Y-87500000D01*
G75*
G02*
X102510000Y-87740000I0J-240000D01*
G01*
X102510000Y-88220000D01*
G75*
G02*
X102270000Y-88460000I-240000J0D01*
G01*
X101730000Y-88460000D01*
G75*
G02*
X101490000Y-88220000I0J240000D01*
G01*
X101490000Y-87740000D01*
G75*
G02*
X101730000Y-87500000I240000J0D01*
G01*
G37*
G36*
G01*
X101730000Y-86540000D02*
X102270000Y-86540000D01*
G75*
G02*
X102510000Y-86780000I0J-240000D01*
G01*
X102510000Y-87260000D01*
G75*
G02*
X102270000Y-87500000I-240000J0D01*
G01*
X101730000Y-87500000D01*
G75*
G02*
X101490000Y-87260000I0J240000D01*
G01*
X101490000Y-86780000D01*
G75*
G02*
X101730000Y-86540000I240000J0D01*
G01*
G37*
%TD*%
%TO.C,C5*%
G36*
G01*
X99000000Y-95730000D02*
X99000000Y-96270000D01*
G75*
G02*
X98760000Y-96510000I-240000J0D01*
G01*
X98280000Y-96510000D01*
G75*
G02*
X98040000Y-96270000I0J240000D01*
G01*
X98040000Y-95730000D01*
G75*
G02*
X98280000Y-95490000I240000J0D01*
G01*
X98760000Y-95490000D01*
G75*
G02*
X99000000Y-95730000I0J-240000D01*
G01*
G37*
G36*
G01*
X99960000Y-95730000D02*
X99960000Y-96270000D01*
G75*
G02*
X99720000Y-96510000I-240000J0D01*
G01*
X99240000Y-96510000D01*
G75*
G02*
X99000000Y-96270000I0J240000D01*
G01*
X99000000Y-95730000D01*
G75*
G02*
X99240000Y-95490000I240000J0D01*
G01*
X99720000Y-95490000D01*
G75*
G02*
X99960000Y-95730000I0J-240000D01*
G01*
G37*
%TD*%
%TO.C,C4*%
G36*
G01*
X90270000Y-86520000D02*
X89730000Y-86520000D01*
G75*
G02*
X89490000Y-86280000I0J240000D01*
G01*
X89490000Y-85800000D01*
G75*
G02*
X89730000Y-85560000I240000J0D01*
G01*
X90270000Y-85560000D01*
G75*
G02*
X90510000Y-85800000I0J-240000D01*
G01*
X90510000Y-86280000D01*
G75*
G02*
X90270000Y-86520000I-240000J0D01*
G01*
G37*
G36*
G01*
X90270000Y-87480000D02*
X89730000Y-87480000D01*
G75*
G02*
X89490000Y-87240000I0J240000D01*
G01*
X89490000Y-86760000D01*
G75*
G02*
X89730000Y-86520000I240000J0D01*
G01*
X90270000Y-86520000D01*
G75*
G02*
X90510000Y-86760000I0J-240000D01*
G01*
X90510000Y-87240000D01*
G75*
G02*
X90270000Y-87480000I-240000J0D01*
G01*
G37*
%TD*%
%TO.C,C3*%
G36*
G01*
X93625000Y-82850000D02*
X93625000Y-82150000D01*
G75*
G02*
X93950000Y-81825000I325000J0D01*
G01*
X94600000Y-81825000D01*
G75*
G02*
X94925000Y-82150000I0J-325000D01*
G01*
X94925000Y-82850000D01*
G75*
G02*
X94600000Y-83175000I-325000J0D01*
G01*
X93950000Y-83175000D01*
G75*
G02*
X93625000Y-82850000I0J325000D01*
G01*
G37*
G36*
G01*
X92075000Y-82850000D02*
X92075000Y-82150000D01*
G75*
G02*
X92400000Y-81825000I325000J0D01*
G01*
X93050000Y-81825000D01*
G75*
G02*
X93375000Y-82150000I0J-325000D01*
G01*
X93375000Y-82850000D01*
G75*
G02*
X93050000Y-83175000I-325000J0D01*
G01*
X92400000Y-83175000D01*
G75*
G02*
X92075000Y-82850000I0J325000D01*
G01*
G37*
%TD*%
%TO.C,C2*%
G36*
G01*
X112475000Y-96500000D02*
X111325000Y-96500000D01*
G75*
G02*
X110975000Y-96150000I0J350000D01*
G01*
X110975000Y-95450000D01*
G75*
G02*
X111325000Y-95100000I350000J0D01*
G01*
X112475000Y-95100000D01*
G75*
G02*
X112825000Y-95450000I0J-350000D01*
G01*
X112825000Y-96150000D01*
G75*
G02*
X112475000Y-96500000I-350000J0D01*
G01*
G37*
G36*
G01*
X112475000Y-98400000D02*
X111325000Y-98400000D01*
G75*
G02*
X110975000Y-98050000I0J350000D01*
G01*
X110975000Y-97350000D01*
G75*
G02*
X111325000Y-97000000I350000J0D01*
G01*
X112475000Y-97000000D01*
G75*
G02*
X112825000Y-97350000I0J-350000D01*
G01*
X112825000Y-98050000D01*
G75*
G02*
X112475000Y-98400000I-350000J0D01*
G01*
G37*
%TD*%
%TO.C,C1*%
G36*
G01*
X106250000Y-91575000D02*
X106250000Y-90425000D01*
G75*
G02*
X106600000Y-90075000I350000J0D01*
G01*
X107300000Y-90075000D01*
G75*
G02*
X107650000Y-90425000I0J-350000D01*
G01*
X107650000Y-91575000D01*
G75*
G02*
X107300000Y-91925000I-350000J0D01*
G01*
X106600000Y-91925000D01*
G75*
G02*
X106250000Y-91575000I0J350000D01*
G01*
G37*
G36*
G01*
X104350000Y-91575000D02*
X104350000Y-90425000D01*
G75*
G02*
X104700000Y-90075000I350000J0D01*
G01*
X105400000Y-90075000D01*
G75*
G02*
X105750000Y-90425000I0J-350000D01*
G01*
X105750000Y-91575000D01*
G75*
G02*
X105400000Y-91925000I-350000J0D01*
G01*
X104700000Y-91925000D01*
G75*
G02*
X104350000Y-91575000I0J350000D01*
G01*
G37*
%TD*%
M02*
