M48
; DRILL file {KiCad (5.1.10)-1} date 06/17/25 20:32:48
; FORMAT={-:-/ absolute / metric / decimal}
; #@! TF.CreationDate,2025-06-17T20:32:48+05:30
; #@! TF.GenerationSoftware,Kicad,Pcbnew,(5.1.10)-1
FMAT,2
METRIC
T1C0.400
T2C0.550
T3C0.850
T4C1.000
T5C0.800
T6C0.900
T7C2.200
%
G90
G05
T1
X84.675Y-93.675
X87.1Y-79.8
X87.525Y-94.85
X87.8Y-90.0
X88.0Y-99.3
X88.45Y-80.775
X88.475Y-93.75
X89.875Y-88.075
X90.0Y-84.9
X90.2Y-80.775
X93.2Y-100.25
X93.6Y-90.7
X93.75Y-87.45
X94.975Y-100.2
X95.1Y-96.0
X96.5Y-97.0
X98.2Y-92.1
X98.25Y-97.0
X103.3Y-87.9
X108.325Y-90.5
X108.325Y-91.375
X108.875Y-95.425
X109.9Y-95.4
X111.8Y-94.425
X112.175Y-86.2
X115.0Y-93.8
T4
X90.38Y-76.5
X92.5Y-103.0
X92.92Y-76.5
X95.04Y-103.0
X95.46Y-76.5
X97.58Y-103.0
X98.0Y-76.5
X100.12Y-103.0
X103.38Y-76.5
X105.92Y-76.5
X108.46Y-76.5
X111.0Y-76.5
T5
X114.7Y-85.0
X114.7Y-90.0
T6
X84.67Y-82.0
X84.67Y-85.0
T7
X85.0Y-76.5
X85.0Y-102.0
X116.0Y-76.5
X116.0Y-102.0
T2
G00X117.125Y-83.625
M15
G01X117.775Y-83.625
M16
G05
G00X117.125Y-91.375
M15
G01X117.775Y-91.375
M16
G05
T3
G00X113.375Y-83.775
M15
G01X113.925Y-83.775
M16
G05
G00X113.375Y-91.225
M15
G01X113.925Y-91.225
M16
G05
T0
M30
