%TF.GenerationSoftware,KiCad,Pcbnew,(5.1.10)-1*%
%TF.CreationDate,2025-06-17T20:32:58+05:30*%
%TF.ProjectId,STM32_Clone,53544d33-325f-4436-9c6f-6e652e6b6963,rev?*%
%TF.SameCoordinates,Original*%
%TF.FileFunction,Paste,Top*%
%TF.FilePolarity,Positive*%
%FSLAX46Y46*%
G04 Gerber Fmt 4.6, Leading zero omitted, Abs format (unit mm)*
G04 Created by KiCad (PCBNEW (5.1.10)-1) date 2025-06-17 20:32:58*
%MOMM*%
%LPD*%
G01*
G04 APERTURE LIST*
%ADD10R,1.300000X0.450000*%
%ADD11R,0.800000X1.000000*%
%ADD12R,1.500000X0.700000*%
%ADD13R,1.200000X1.400000*%
%ADD14R,1.500000X2.000000*%
%ADD15R,3.800000X2.000000*%
G04 APERTURE END LIST*
D10*
%TO.C,J1*%
X113600000Y-88800000D03*
X113600000Y-88150000D03*
X113600000Y-87500000D03*
X113600000Y-86850000D03*
X113600000Y-86200000D03*
%TD*%
D11*
%TO.C,SW1*%
X85780000Y-79850000D03*
X85780000Y-87150000D03*
X83570000Y-87150000D03*
X83570000Y-79850000D03*
D12*
X86430000Y-85750000D03*
X86430000Y-84250000D03*
X86430000Y-81250000D03*
%TD*%
D13*
%TO.C,Y1*%
X86350000Y-89900000D03*
X86350000Y-92100000D03*
X84650000Y-92100000D03*
X84650000Y-89900000D03*
%TD*%
%TO.C,U2*%
G36*
G01*
X93100000Y-86500000D02*
X93100000Y-85175000D01*
G75*
G02*
X93175000Y-85100000I75000J0D01*
G01*
X93325000Y-85100000D01*
G75*
G02*
X93400000Y-85175000I0J-75000D01*
G01*
X93400000Y-86500000D01*
G75*
G02*
X93325000Y-86575000I-75000J0D01*
G01*
X93175000Y-86575000D01*
G75*
G02*
X93100000Y-86500000I0J75000D01*
G01*
G37*
G36*
G01*
X93600000Y-86500000D02*
X93600000Y-85175000D01*
G75*
G02*
X93675000Y-85100000I75000J0D01*
G01*
X93825000Y-85100000D01*
G75*
G02*
X93900000Y-85175000I0J-75000D01*
G01*
X93900000Y-86500000D01*
G75*
G02*
X93825000Y-86575000I-75000J0D01*
G01*
X93675000Y-86575000D01*
G75*
G02*
X93600000Y-86500000I0J75000D01*
G01*
G37*
G36*
G01*
X94100000Y-86500000D02*
X94100000Y-85175000D01*
G75*
G02*
X94175000Y-85100000I75000J0D01*
G01*
X94325000Y-85100000D01*
G75*
G02*
X94400000Y-85175000I0J-75000D01*
G01*
X94400000Y-86500000D01*
G75*
G02*
X94325000Y-86575000I-75000J0D01*
G01*
X94175000Y-86575000D01*
G75*
G02*
X94100000Y-86500000I0J75000D01*
G01*
G37*
G36*
G01*
X94600000Y-86500000D02*
X94600000Y-85175000D01*
G75*
G02*
X94675000Y-85100000I75000J0D01*
G01*
X94825000Y-85100000D01*
G75*
G02*
X94900000Y-85175000I0J-75000D01*
G01*
X94900000Y-86500000D01*
G75*
G02*
X94825000Y-86575000I-75000J0D01*
G01*
X94675000Y-86575000D01*
G75*
G02*
X94600000Y-86500000I0J75000D01*
G01*
G37*
G36*
G01*
X95100000Y-86500000D02*
X95100000Y-85175000D01*
G75*
G02*
X95175000Y-85100000I75000J0D01*
G01*
X95325000Y-85100000D01*
G75*
G02*
X95400000Y-85175000I0J-75000D01*
G01*
X95400000Y-86500000D01*
G75*
G02*
X95325000Y-86575000I-75000J0D01*
G01*
X95175000Y-86575000D01*
G75*
G02*
X95100000Y-86500000I0J75000D01*
G01*
G37*
G36*
G01*
X95600000Y-86500000D02*
X95600000Y-85175000D01*
G75*
G02*
X95675000Y-85100000I75000J0D01*
G01*
X95825000Y-85100000D01*
G75*
G02*
X95900000Y-85175000I0J-75000D01*
G01*
X95900000Y-86500000D01*
G75*
G02*
X95825000Y-86575000I-75000J0D01*
G01*
X95675000Y-86575000D01*
G75*
G02*
X95600000Y-86500000I0J75000D01*
G01*
G37*
G36*
G01*
X96100000Y-86500000D02*
X96100000Y-85175000D01*
G75*
G02*
X96175000Y-85100000I75000J0D01*
G01*
X96325000Y-85100000D01*
G75*
G02*
X96400000Y-85175000I0J-75000D01*
G01*
X96400000Y-86500000D01*
G75*
G02*
X96325000Y-86575000I-75000J0D01*
G01*
X96175000Y-86575000D01*
G75*
G02*
X96100000Y-86500000I0J75000D01*
G01*
G37*
G36*
G01*
X96600000Y-86500000D02*
X96600000Y-85175000D01*
G75*
G02*
X96675000Y-85100000I75000J0D01*
G01*
X96825000Y-85100000D01*
G75*
G02*
X96900000Y-85175000I0J-75000D01*
G01*
X96900000Y-86500000D01*
G75*
G02*
X96825000Y-86575000I-75000J0D01*
G01*
X96675000Y-86575000D01*
G75*
G02*
X96600000Y-86500000I0J75000D01*
G01*
G37*
G36*
G01*
X97100000Y-86500000D02*
X97100000Y-85175000D01*
G75*
G02*
X97175000Y-85100000I75000J0D01*
G01*
X97325000Y-85100000D01*
G75*
G02*
X97400000Y-85175000I0J-75000D01*
G01*
X97400000Y-86500000D01*
G75*
G02*
X97325000Y-86575000I-75000J0D01*
G01*
X97175000Y-86575000D01*
G75*
G02*
X97100000Y-86500000I0J75000D01*
G01*
G37*
G36*
G01*
X97600000Y-86500000D02*
X97600000Y-85175000D01*
G75*
G02*
X97675000Y-85100000I75000J0D01*
G01*
X97825000Y-85100000D01*
G75*
G02*
X97900000Y-85175000I0J-75000D01*
G01*
X97900000Y-86500000D01*
G75*
G02*
X97825000Y-86575000I-75000J0D01*
G01*
X97675000Y-86575000D01*
G75*
G02*
X97600000Y-86500000I0J75000D01*
G01*
G37*
G36*
G01*
X98100000Y-86500000D02*
X98100000Y-85175000D01*
G75*
G02*
X98175000Y-85100000I75000J0D01*
G01*
X98325000Y-85100000D01*
G75*
G02*
X98400000Y-85175000I0J-75000D01*
G01*
X98400000Y-86500000D01*
G75*
G02*
X98325000Y-86575000I-75000J0D01*
G01*
X98175000Y-86575000D01*
G75*
G02*
X98100000Y-86500000I0J75000D01*
G01*
G37*
G36*
G01*
X98600000Y-86500000D02*
X98600000Y-85175000D01*
G75*
G02*
X98675000Y-85100000I75000J0D01*
G01*
X98825000Y-85100000D01*
G75*
G02*
X98900000Y-85175000I0J-75000D01*
G01*
X98900000Y-86500000D01*
G75*
G02*
X98825000Y-86575000I-75000J0D01*
G01*
X98675000Y-86575000D01*
G75*
G02*
X98600000Y-86500000I0J75000D01*
G01*
G37*
G36*
G01*
X99425000Y-87325000D02*
X99425000Y-87175000D01*
G75*
G02*
X99500000Y-87100000I75000J0D01*
G01*
X100825000Y-87100000D01*
G75*
G02*
X100900000Y-87175000I0J-75000D01*
G01*
X100900000Y-87325000D01*
G75*
G02*
X100825000Y-87400000I-75000J0D01*
G01*
X99500000Y-87400000D01*
G75*
G02*
X99425000Y-87325000I0J75000D01*
G01*
G37*
G36*
G01*
X99425000Y-87825000D02*
X99425000Y-87675000D01*
G75*
G02*
X99500000Y-87600000I75000J0D01*
G01*
X100825000Y-87600000D01*
G75*
G02*
X100900000Y-87675000I0J-75000D01*
G01*
X100900000Y-87825000D01*
G75*
G02*
X100825000Y-87900000I-75000J0D01*
G01*
X99500000Y-87900000D01*
G75*
G02*
X99425000Y-87825000I0J75000D01*
G01*
G37*
G36*
G01*
X99425000Y-88325000D02*
X99425000Y-88175000D01*
G75*
G02*
X99500000Y-88100000I75000J0D01*
G01*
X100825000Y-88100000D01*
G75*
G02*
X100900000Y-88175000I0J-75000D01*
G01*
X100900000Y-88325000D01*
G75*
G02*
X100825000Y-88400000I-75000J0D01*
G01*
X99500000Y-88400000D01*
G75*
G02*
X99425000Y-88325000I0J75000D01*
G01*
G37*
G36*
G01*
X99425000Y-88825000D02*
X99425000Y-88675000D01*
G75*
G02*
X99500000Y-88600000I75000J0D01*
G01*
X100825000Y-88600000D01*
G75*
G02*
X100900000Y-88675000I0J-75000D01*
G01*
X100900000Y-88825000D01*
G75*
G02*
X100825000Y-88900000I-75000J0D01*
G01*
X99500000Y-88900000D01*
G75*
G02*
X99425000Y-88825000I0J75000D01*
G01*
G37*
G36*
G01*
X99425000Y-89325000D02*
X99425000Y-89175000D01*
G75*
G02*
X99500000Y-89100000I75000J0D01*
G01*
X100825000Y-89100000D01*
G75*
G02*
X100900000Y-89175000I0J-75000D01*
G01*
X100900000Y-89325000D01*
G75*
G02*
X100825000Y-89400000I-75000J0D01*
G01*
X99500000Y-89400000D01*
G75*
G02*
X99425000Y-89325000I0J75000D01*
G01*
G37*
G36*
G01*
X99425000Y-89825000D02*
X99425000Y-89675000D01*
G75*
G02*
X99500000Y-89600000I75000J0D01*
G01*
X100825000Y-89600000D01*
G75*
G02*
X100900000Y-89675000I0J-75000D01*
G01*
X100900000Y-89825000D01*
G75*
G02*
X100825000Y-89900000I-75000J0D01*
G01*
X99500000Y-89900000D01*
G75*
G02*
X99425000Y-89825000I0J75000D01*
G01*
G37*
G36*
G01*
X99425000Y-90325000D02*
X99425000Y-90175000D01*
G75*
G02*
X99500000Y-90100000I75000J0D01*
G01*
X100825000Y-90100000D01*
G75*
G02*
X100900000Y-90175000I0J-75000D01*
G01*
X100900000Y-90325000D01*
G75*
G02*
X100825000Y-90400000I-75000J0D01*
G01*
X99500000Y-90400000D01*
G75*
G02*
X99425000Y-90325000I0J75000D01*
G01*
G37*
G36*
G01*
X99425000Y-90825000D02*
X99425000Y-90675000D01*
G75*
G02*
X99500000Y-90600000I75000J0D01*
G01*
X100825000Y-90600000D01*
G75*
G02*
X100900000Y-90675000I0J-75000D01*
G01*
X100900000Y-90825000D01*
G75*
G02*
X100825000Y-90900000I-75000J0D01*
G01*
X99500000Y-90900000D01*
G75*
G02*
X99425000Y-90825000I0J75000D01*
G01*
G37*
G36*
G01*
X99425000Y-91325000D02*
X99425000Y-91175000D01*
G75*
G02*
X99500000Y-91100000I75000J0D01*
G01*
X100825000Y-91100000D01*
G75*
G02*
X100900000Y-91175000I0J-75000D01*
G01*
X100900000Y-91325000D01*
G75*
G02*
X100825000Y-91400000I-75000J0D01*
G01*
X99500000Y-91400000D01*
G75*
G02*
X99425000Y-91325000I0J75000D01*
G01*
G37*
G36*
G01*
X99425000Y-91825000D02*
X99425000Y-91675000D01*
G75*
G02*
X99500000Y-91600000I75000J0D01*
G01*
X100825000Y-91600000D01*
G75*
G02*
X100900000Y-91675000I0J-75000D01*
G01*
X100900000Y-91825000D01*
G75*
G02*
X100825000Y-91900000I-75000J0D01*
G01*
X99500000Y-91900000D01*
G75*
G02*
X99425000Y-91825000I0J75000D01*
G01*
G37*
G36*
G01*
X99425000Y-92325000D02*
X99425000Y-92175000D01*
G75*
G02*
X99500000Y-92100000I75000J0D01*
G01*
X100825000Y-92100000D01*
G75*
G02*
X100900000Y-92175000I0J-75000D01*
G01*
X100900000Y-92325000D01*
G75*
G02*
X100825000Y-92400000I-75000J0D01*
G01*
X99500000Y-92400000D01*
G75*
G02*
X99425000Y-92325000I0J75000D01*
G01*
G37*
G36*
G01*
X99425000Y-92825000D02*
X99425000Y-92675000D01*
G75*
G02*
X99500000Y-92600000I75000J0D01*
G01*
X100825000Y-92600000D01*
G75*
G02*
X100900000Y-92675000I0J-75000D01*
G01*
X100900000Y-92825000D01*
G75*
G02*
X100825000Y-92900000I-75000J0D01*
G01*
X99500000Y-92900000D01*
G75*
G02*
X99425000Y-92825000I0J75000D01*
G01*
G37*
G36*
G01*
X98600000Y-94825000D02*
X98600000Y-93500000D01*
G75*
G02*
X98675000Y-93425000I75000J0D01*
G01*
X98825000Y-93425000D01*
G75*
G02*
X98900000Y-93500000I0J-75000D01*
G01*
X98900000Y-94825000D01*
G75*
G02*
X98825000Y-94900000I-75000J0D01*
G01*
X98675000Y-94900000D01*
G75*
G02*
X98600000Y-94825000I0J75000D01*
G01*
G37*
G36*
G01*
X98100000Y-94825000D02*
X98100000Y-93500000D01*
G75*
G02*
X98175000Y-93425000I75000J0D01*
G01*
X98325000Y-93425000D01*
G75*
G02*
X98400000Y-93500000I0J-75000D01*
G01*
X98400000Y-94825000D01*
G75*
G02*
X98325000Y-94900000I-75000J0D01*
G01*
X98175000Y-94900000D01*
G75*
G02*
X98100000Y-94825000I0J75000D01*
G01*
G37*
G36*
G01*
X97600000Y-94825000D02*
X97600000Y-93500000D01*
G75*
G02*
X97675000Y-93425000I75000J0D01*
G01*
X97825000Y-93425000D01*
G75*
G02*
X97900000Y-93500000I0J-75000D01*
G01*
X97900000Y-94825000D01*
G75*
G02*
X97825000Y-94900000I-75000J0D01*
G01*
X97675000Y-94900000D01*
G75*
G02*
X97600000Y-94825000I0J75000D01*
G01*
G37*
G36*
G01*
X97100000Y-94825000D02*
X97100000Y-93500000D01*
G75*
G02*
X97175000Y-93425000I75000J0D01*
G01*
X97325000Y-93425000D01*
G75*
G02*
X97400000Y-93500000I0J-75000D01*
G01*
X97400000Y-94825000D01*
G75*
G02*
X97325000Y-94900000I-75000J0D01*
G01*
X97175000Y-94900000D01*
G75*
G02*
X97100000Y-94825000I0J75000D01*
G01*
G37*
G36*
G01*
X96600000Y-94825000D02*
X96600000Y-93500000D01*
G75*
G02*
X96675000Y-93425000I75000J0D01*
G01*
X96825000Y-93425000D01*
G75*
G02*
X96900000Y-93500000I0J-75000D01*
G01*
X96900000Y-94825000D01*
G75*
G02*
X96825000Y-94900000I-75000J0D01*
G01*
X96675000Y-94900000D01*
G75*
G02*
X96600000Y-94825000I0J75000D01*
G01*
G37*
G36*
G01*
X96100000Y-94825000D02*
X96100000Y-93500000D01*
G75*
G02*
X96175000Y-93425000I75000J0D01*
G01*
X96325000Y-93425000D01*
G75*
G02*
X96400000Y-93500000I0J-75000D01*
G01*
X96400000Y-94825000D01*
G75*
G02*
X96325000Y-94900000I-75000J0D01*
G01*
X96175000Y-94900000D01*
G75*
G02*
X96100000Y-94825000I0J75000D01*
G01*
G37*
G36*
G01*
X95600000Y-94825000D02*
X95600000Y-93500000D01*
G75*
G02*
X95675000Y-93425000I75000J0D01*
G01*
X95825000Y-93425000D01*
G75*
G02*
X95900000Y-93500000I0J-75000D01*
G01*
X95900000Y-94825000D01*
G75*
G02*
X95825000Y-94900000I-75000J0D01*
G01*
X95675000Y-94900000D01*
G75*
G02*
X95600000Y-94825000I0J75000D01*
G01*
G37*
G36*
G01*
X95100000Y-94825000D02*
X95100000Y-93500000D01*
G75*
G02*
X95175000Y-93425000I75000J0D01*
G01*
X95325000Y-93425000D01*
G75*
G02*
X95400000Y-93500000I0J-75000D01*
G01*
X95400000Y-94825000D01*
G75*
G02*
X95325000Y-94900000I-75000J0D01*
G01*
X95175000Y-94900000D01*
G75*
G02*
X95100000Y-94825000I0J75000D01*
G01*
G37*
G36*
G01*
X94600000Y-94825000D02*
X94600000Y-93500000D01*
G75*
G02*
X94675000Y-93425000I75000J0D01*
G01*
X94825000Y-93425000D01*
G75*
G02*
X94900000Y-93500000I0J-75000D01*
G01*
X94900000Y-94825000D01*
G75*
G02*
X94825000Y-94900000I-75000J0D01*
G01*
X94675000Y-94900000D01*
G75*
G02*
X94600000Y-94825000I0J75000D01*
G01*
G37*
G36*
G01*
X94100000Y-94825000D02*
X94100000Y-93500000D01*
G75*
G02*
X94175000Y-93425000I75000J0D01*
G01*
X94325000Y-93425000D01*
G75*
G02*
X94400000Y-93500000I0J-75000D01*
G01*
X94400000Y-94825000D01*
G75*
G02*
X94325000Y-94900000I-75000J0D01*
G01*
X94175000Y-94900000D01*
G75*
G02*
X94100000Y-94825000I0J75000D01*
G01*
G37*
G36*
G01*
X93600000Y-94825000D02*
X93600000Y-93500000D01*
G75*
G02*
X93675000Y-93425000I75000J0D01*
G01*
X93825000Y-93425000D01*
G75*
G02*
X93900000Y-93500000I0J-75000D01*
G01*
X93900000Y-94825000D01*
G75*
G02*
X93825000Y-94900000I-75000J0D01*
G01*
X93675000Y-94900000D01*
G75*
G02*
X93600000Y-94825000I0J75000D01*
G01*
G37*
G36*
G01*
X93100000Y-94825000D02*
X93100000Y-93500000D01*
G75*
G02*
X93175000Y-93425000I75000J0D01*
G01*
X93325000Y-93425000D01*
G75*
G02*
X93400000Y-93500000I0J-75000D01*
G01*
X93400000Y-94825000D01*
G75*
G02*
X93325000Y-94900000I-75000J0D01*
G01*
X93175000Y-94900000D01*
G75*
G02*
X93100000Y-94825000I0J75000D01*
G01*
G37*
G36*
G01*
X91100000Y-92825000D02*
X91100000Y-92675000D01*
G75*
G02*
X91175000Y-92600000I75000J0D01*
G01*
X92500000Y-92600000D01*
G75*
G02*
X92575000Y-92675000I0J-75000D01*
G01*
X92575000Y-92825000D01*
G75*
G02*
X92500000Y-92900000I-75000J0D01*
G01*
X91175000Y-92900000D01*
G75*
G02*
X91100000Y-92825000I0J75000D01*
G01*
G37*
G36*
G01*
X91100000Y-92325000D02*
X91100000Y-92175000D01*
G75*
G02*
X91175000Y-92100000I75000J0D01*
G01*
X92500000Y-92100000D01*
G75*
G02*
X92575000Y-92175000I0J-75000D01*
G01*
X92575000Y-92325000D01*
G75*
G02*
X92500000Y-92400000I-75000J0D01*
G01*
X91175000Y-92400000D01*
G75*
G02*
X91100000Y-92325000I0J75000D01*
G01*
G37*
G36*
G01*
X91100000Y-91825000D02*
X91100000Y-91675000D01*
G75*
G02*
X91175000Y-91600000I75000J0D01*
G01*
X92500000Y-91600000D01*
G75*
G02*
X92575000Y-91675000I0J-75000D01*
G01*
X92575000Y-91825000D01*
G75*
G02*
X92500000Y-91900000I-75000J0D01*
G01*
X91175000Y-91900000D01*
G75*
G02*
X91100000Y-91825000I0J75000D01*
G01*
G37*
G36*
G01*
X91100000Y-91325000D02*
X91100000Y-91175000D01*
G75*
G02*
X91175000Y-91100000I75000J0D01*
G01*
X92500000Y-91100000D01*
G75*
G02*
X92575000Y-91175000I0J-75000D01*
G01*
X92575000Y-91325000D01*
G75*
G02*
X92500000Y-91400000I-75000J0D01*
G01*
X91175000Y-91400000D01*
G75*
G02*
X91100000Y-91325000I0J75000D01*
G01*
G37*
G36*
G01*
X91100000Y-90825000D02*
X91100000Y-90675000D01*
G75*
G02*
X91175000Y-90600000I75000J0D01*
G01*
X92500000Y-90600000D01*
G75*
G02*
X92575000Y-90675000I0J-75000D01*
G01*
X92575000Y-90825000D01*
G75*
G02*
X92500000Y-90900000I-75000J0D01*
G01*
X91175000Y-90900000D01*
G75*
G02*
X91100000Y-90825000I0J75000D01*
G01*
G37*
G36*
G01*
X91100000Y-90325000D02*
X91100000Y-90175000D01*
G75*
G02*
X91175000Y-90100000I75000J0D01*
G01*
X92500000Y-90100000D01*
G75*
G02*
X92575000Y-90175000I0J-75000D01*
G01*
X92575000Y-90325000D01*
G75*
G02*
X92500000Y-90400000I-75000J0D01*
G01*
X91175000Y-90400000D01*
G75*
G02*
X91100000Y-90325000I0J75000D01*
G01*
G37*
G36*
G01*
X91100000Y-89825000D02*
X91100000Y-89675000D01*
G75*
G02*
X91175000Y-89600000I75000J0D01*
G01*
X92500000Y-89600000D01*
G75*
G02*
X92575000Y-89675000I0J-75000D01*
G01*
X92575000Y-89825000D01*
G75*
G02*
X92500000Y-89900000I-75000J0D01*
G01*
X91175000Y-89900000D01*
G75*
G02*
X91100000Y-89825000I0J75000D01*
G01*
G37*
G36*
G01*
X91100000Y-89325000D02*
X91100000Y-89175000D01*
G75*
G02*
X91175000Y-89100000I75000J0D01*
G01*
X92500000Y-89100000D01*
G75*
G02*
X92575000Y-89175000I0J-75000D01*
G01*
X92575000Y-89325000D01*
G75*
G02*
X92500000Y-89400000I-75000J0D01*
G01*
X91175000Y-89400000D01*
G75*
G02*
X91100000Y-89325000I0J75000D01*
G01*
G37*
G36*
G01*
X91100000Y-88825000D02*
X91100000Y-88675000D01*
G75*
G02*
X91175000Y-88600000I75000J0D01*
G01*
X92500000Y-88600000D01*
G75*
G02*
X92575000Y-88675000I0J-75000D01*
G01*
X92575000Y-88825000D01*
G75*
G02*
X92500000Y-88900000I-75000J0D01*
G01*
X91175000Y-88900000D01*
G75*
G02*
X91100000Y-88825000I0J75000D01*
G01*
G37*
G36*
G01*
X91100000Y-88325000D02*
X91100000Y-88175000D01*
G75*
G02*
X91175000Y-88100000I75000J0D01*
G01*
X92500000Y-88100000D01*
G75*
G02*
X92575000Y-88175000I0J-75000D01*
G01*
X92575000Y-88325000D01*
G75*
G02*
X92500000Y-88400000I-75000J0D01*
G01*
X91175000Y-88400000D01*
G75*
G02*
X91100000Y-88325000I0J75000D01*
G01*
G37*
G36*
G01*
X91100000Y-87825000D02*
X91100000Y-87675000D01*
G75*
G02*
X91175000Y-87600000I75000J0D01*
G01*
X92500000Y-87600000D01*
G75*
G02*
X92575000Y-87675000I0J-75000D01*
G01*
X92575000Y-87825000D01*
G75*
G02*
X92500000Y-87900000I-75000J0D01*
G01*
X91175000Y-87900000D01*
G75*
G02*
X91100000Y-87825000I0J75000D01*
G01*
G37*
G36*
G01*
X91100000Y-87325000D02*
X91100000Y-87175000D01*
G75*
G02*
X91175000Y-87100000I75000J0D01*
G01*
X92500000Y-87100000D01*
G75*
G02*
X92575000Y-87175000I0J-75000D01*
G01*
X92575000Y-87325000D01*
G75*
G02*
X92500000Y-87400000I-75000J0D01*
G01*
X91175000Y-87400000D01*
G75*
G02*
X91100000Y-87325000I0J75000D01*
G01*
G37*
%TD*%
D14*
%TO.C,U1*%
X109300000Y-93350000D03*
X104700000Y-93350000D03*
X107000000Y-93350000D03*
D15*
X107000000Y-99650000D03*
%TD*%
%TO.C,R5*%
G36*
G01*
X97240000Y-98685000D02*
X97240000Y-98315000D01*
G75*
G02*
X97375000Y-98180000I135000J0D01*
G01*
X97645000Y-98180000D01*
G75*
G02*
X97780000Y-98315000I0J-135000D01*
G01*
X97780000Y-98685000D01*
G75*
G02*
X97645000Y-98820000I-135000J0D01*
G01*
X97375000Y-98820000D01*
G75*
G02*
X97240000Y-98685000I0J135000D01*
G01*
G37*
G36*
G01*
X96220000Y-98685000D02*
X96220000Y-98315000D01*
G75*
G02*
X96355000Y-98180000I135000J0D01*
G01*
X96625000Y-98180000D01*
G75*
G02*
X96760000Y-98315000I0J-135000D01*
G01*
X96760000Y-98685000D01*
G75*
G02*
X96625000Y-98820000I-135000J0D01*
G01*
X96355000Y-98820000D01*
G75*
G02*
X96220000Y-98685000I0J135000D01*
G01*
G37*
%TD*%
%TO.C,R4*%
G36*
G01*
X94260000Y-98315000D02*
X94260000Y-98685000D01*
G75*
G02*
X94125000Y-98820000I-135000J0D01*
G01*
X93855000Y-98820000D01*
G75*
G02*
X93720000Y-98685000I0J135000D01*
G01*
X93720000Y-98315000D01*
G75*
G02*
X93855000Y-98180000I135000J0D01*
G01*
X94125000Y-98180000D01*
G75*
G02*
X94260000Y-98315000I0J-135000D01*
G01*
G37*
G36*
G01*
X95280000Y-98315000D02*
X95280000Y-98685000D01*
G75*
G02*
X95145000Y-98820000I-135000J0D01*
G01*
X94875000Y-98820000D01*
G75*
G02*
X94740000Y-98685000I0J135000D01*
G01*
X94740000Y-98315000D01*
G75*
G02*
X94875000Y-98180000I135000J0D01*
G01*
X95145000Y-98180000D01*
G75*
G02*
X95280000Y-98315000I0J-135000D01*
G01*
G37*
%TD*%
%TO.C,R3*%
G36*
G01*
X109915000Y-87265000D02*
X110285000Y-87265000D01*
G75*
G02*
X110420000Y-87400000I0J-135000D01*
G01*
X110420000Y-87670000D01*
G75*
G02*
X110285000Y-87805000I-135000J0D01*
G01*
X109915000Y-87805000D01*
G75*
G02*
X109780000Y-87670000I0J135000D01*
G01*
X109780000Y-87400000D01*
G75*
G02*
X109915000Y-87265000I135000J0D01*
G01*
G37*
G36*
G01*
X109915000Y-86245000D02*
X110285000Y-86245000D01*
G75*
G02*
X110420000Y-86380000I0J-135000D01*
G01*
X110420000Y-86650000D01*
G75*
G02*
X110285000Y-86785000I-135000J0D01*
G01*
X109915000Y-86785000D01*
G75*
G02*
X109780000Y-86650000I0J135000D01*
G01*
X109780000Y-86380000D01*
G75*
G02*
X109915000Y-86245000I135000J0D01*
G01*
G37*
%TD*%
%TO.C,R2*%
G36*
G01*
X89015000Y-82940000D02*
X89385000Y-82940000D01*
G75*
G02*
X89520000Y-83075000I0J-135000D01*
G01*
X89520000Y-83345000D01*
G75*
G02*
X89385000Y-83480000I-135000J0D01*
G01*
X89015000Y-83480000D01*
G75*
G02*
X88880000Y-83345000I0J135000D01*
G01*
X88880000Y-83075000D01*
G75*
G02*
X89015000Y-82940000I135000J0D01*
G01*
G37*
G36*
G01*
X89015000Y-81920000D02*
X89385000Y-81920000D01*
G75*
G02*
X89520000Y-82055000I0J-135000D01*
G01*
X89520000Y-82325000D01*
G75*
G02*
X89385000Y-82460000I-135000J0D01*
G01*
X89015000Y-82460000D01*
G75*
G02*
X88880000Y-82325000I0J135000D01*
G01*
X88880000Y-82055000D01*
G75*
G02*
X89015000Y-81920000I135000J0D01*
G01*
G37*
%TD*%
%TO.C,R1*%
G36*
G01*
X114730000Y-95185000D02*
X114730000Y-94815000D01*
G75*
G02*
X114865000Y-94680000I135000J0D01*
G01*
X115135000Y-94680000D01*
G75*
G02*
X115270000Y-94815000I0J-135000D01*
G01*
X115270000Y-95185000D01*
G75*
G02*
X115135000Y-95320000I-135000J0D01*
G01*
X114865000Y-95320000D01*
G75*
G02*
X114730000Y-95185000I0J135000D01*
G01*
G37*
G36*
G01*
X113710000Y-95185000D02*
X113710000Y-94815000D01*
G75*
G02*
X113845000Y-94680000I135000J0D01*
G01*
X114115000Y-94680000D01*
G75*
G02*
X114250000Y-94815000I0J-135000D01*
G01*
X114250000Y-95185000D01*
G75*
G02*
X114115000Y-95320000I-135000J0D01*
G01*
X113845000Y-95320000D01*
G75*
G02*
X113710000Y-95185000I0J135000D01*
G01*
G37*
%TD*%
%TO.C,FB1*%
G36*
G01*
X90756250Y-96150000D02*
X90243750Y-96150000D01*
G75*
G02*
X90025000Y-95931250I0J218750D01*
G01*
X90025000Y-95493750D01*
G75*
G02*
X90243750Y-95275000I218750J0D01*
G01*
X90756250Y-95275000D01*
G75*
G02*
X90975000Y-95493750I0J-218750D01*
G01*
X90975000Y-95931250D01*
G75*
G02*
X90756250Y-96150000I-218750J0D01*
G01*
G37*
G36*
G01*
X90756250Y-97725000D02*
X90243750Y-97725000D01*
G75*
G02*
X90025000Y-97506250I0J218750D01*
G01*
X90025000Y-97068750D01*
G75*
G02*
X90243750Y-96850000I218750J0D01*
G01*
X90756250Y-96850000D01*
G75*
G02*
X90975000Y-97068750I0J-218750D01*
G01*
X90975000Y-97506250D01*
G75*
G02*
X90756250Y-97725000I-218750J0D01*
G01*
G37*
%TD*%
%TO.C,D1*%
G36*
G01*
X113743750Y-97850000D02*
X114256250Y-97850000D01*
G75*
G02*
X114475000Y-98068750I0J-218750D01*
G01*
X114475000Y-98506250D01*
G75*
G02*
X114256250Y-98725000I-218750J0D01*
G01*
X113743750Y-98725000D01*
G75*
G02*
X113525000Y-98506250I0J218750D01*
G01*
X113525000Y-98068750D01*
G75*
G02*
X113743750Y-97850000I218750J0D01*
G01*
G37*
G36*
G01*
X113743750Y-96275000D02*
X114256250Y-96275000D01*
G75*
G02*
X114475000Y-96493750I0J-218750D01*
G01*
X114475000Y-96931250D01*
G75*
G02*
X114256250Y-97150000I-218750J0D01*
G01*
X113743750Y-97150000D01*
G75*
G02*
X113525000Y-96931250I0J218750D01*
G01*
X113525000Y-96493750D01*
G75*
G02*
X113743750Y-96275000I218750J0D01*
G01*
G37*
%TD*%
%TO.C,C13*%
G36*
G01*
X88330000Y-91700000D02*
X88670000Y-91700000D01*
G75*
G02*
X88810000Y-91840000I0J-140000D01*
G01*
X88810000Y-92120000D01*
G75*
G02*
X88670000Y-92260000I-140000J0D01*
G01*
X88330000Y-92260000D01*
G75*
G02*
X88190000Y-92120000I0J140000D01*
G01*
X88190000Y-91840000D01*
G75*
G02*
X88330000Y-91700000I140000J0D01*
G01*
G37*
G36*
G01*
X88330000Y-90740000D02*
X88670000Y-90740000D01*
G75*
G02*
X88810000Y-90880000I0J-140000D01*
G01*
X88810000Y-91160000D01*
G75*
G02*
X88670000Y-91300000I-140000J0D01*
G01*
X88330000Y-91300000D01*
G75*
G02*
X88190000Y-91160000I0J140000D01*
G01*
X88190000Y-90880000D01*
G75*
G02*
X88330000Y-90740000I140000J0D01*
G01*
G37*
%TD*%
%TO.C,C12*%
G36*
G01*
X88670000Y-88300000D02*
X88330000Y-88300000D01*
G75*
G02*
X88190000Y-88160000I0J140000D01*
G01*
X88190000Y-87880000D01*
G75*
G02*
X88330000Y-87740000I140000J0D01*
G01*
X88670000Y-87740000D01*
G75*
G02*
X88810000Y-87880000I0J-140000D01*
G01*
X88810000Y-88160000D01*
G75*
G02*
X88670000Y-88300000I-140000J0D01*
G01*
G37*
G36*
G01*
X88670000Y-89260000D02*
X88330000Y-89260000D01*
G75*
G02*
X88190000Y-89120000I0J140000D01*
G01*
X88190000Y-88840000D01*
G75*
G02*
X88330000Y-88700000I140000J0D01*
G01*
X88670000Y-88700000D01*
G75*
G02*
X88810000Y-88840000I0J-140000D01*
G01*
X88810000Y-89120000D01*
G75*
G02*
X88670000Y-89260000I-140000J0D01*
G01*
G37*
%TD*%
%TO.C,C11*%
G36*
G01*
X93700000Y-96170000D02*
X93700000Y-95830000D01*
G75*
G02*
X93840000Y-95690000I140000J0D01*
G01*
X94120000Y-95690000D01*
G75*
G02*
X94260000Y-95830000I0J-140000D01*
G01*
X94260000Y-96170000D01*
G75*
G02*
X94120000Y-96310000I-140000J0D01*
G01*
X93840000Y-96310000D01*
G75*
G02*
X93700000Y-96170000I0J140000D01*
G01*
G37*
G36*
G01*
X92740000Y-96170000D02*
X92740000Y-95830000D01*
G75*
G02*
X92880000Y-95690000I140000J0D01*
G01*
X93160000Y-95690000D01*
G75*
G02*
X93300000Y-95830000I0J-140000D01*
G01*
X93300000Y-96170000D01*
G75*
G02*
X93160000Y-96310000I-140000J0D01*
G01*
X92880000Y-96310000D01*
G75*
G02*
X92740000Y-96170000I0J140000D01*
G01*
G37*
%TD*%
%TO.C,C10*%
G36*
G01*
X88300000Y-97830000D02*
X88300000Y-98170000D01*
G75*
G02*
X88160000Y-98310000I-140000J0D01*
G01*
X87880000Y-98310000D01*
G75*
G02*
X87740000Y-98170000I0J140000D01*
G01*
X87740000Y-97830000D01*
G75*
G02*
X87880000Y-97690000I140000J0D01*
G01*
X88160000Y-97690000D01*
G75*
G02*
X88300000Y-97830000I0J-140000D01*
G01*
G37*
G36*
G01*
X89260000Y-97830000D02*
X89260000Y-98170000D01*
G75*
G02*
X89120000Y-98310000I-140000J0D01*
G01*
X88840000Y-98310000D01*
G75*
G02*
X88700000Y-98170000I0J140000D01*
G01*
X88700000Y-97830000D01*
G75*
G02*
X88840000Y-97690000I140000J0D01*
G01*
X89120000Y-97690000D01*
G75*
G02*
X89260000Y-97830000I0J-140000D01*
G01*
G37*
%TD*%
%TO.C,C9*%
G36*
G01*
X87800000Y-95830000D02*
X87800000Y-96170000D01*
G75*
G02*
X87660000Y-96310000I-140000J0D01*
G01*
X87380000Y-96310000D01*
G75*
G02*
X87240000Y-96170000I0J140000D01*
G01*
X87240000Y-95830000D01*
G75*
G02*
X87380000Y-95690000I140000J0D01*
G01*
X87660000Y-95690000D01*
G75*
G02*
X87800000Y-95830000I0J-140000D01*
G01*
G37*
G36*
G01*
X88760000Y-95830000D02*
X88760000Y-96170000D01*
G75*
G02*
X88620000Y-96310000I-140000J0D01*
G01*
X88340000Y-96310000D01*
G75*
G02*
X88200000Y-96170000I0J140000D01*
G01*
X88200000Y-95830000D01*
G75*
G02*
X88340000Y-95690000I140000J0D01*
G01*
X88620000Y-95690000D01*
G75*
G02*
X88760000Y-95830000I0J-140000D01*
G01*
G37*
%TD*%
%TO.C,C8*%
G36*
G01*
X90170000Y-92260000D02*
X89830000Y-92260000D01*
G75*
G02*
X89690000Y-92120000I0J140000D01*
G01*
X89690000Y-91840000D01*
G75*
G02*
X89830000Y-91700000I140000J0D01*
G01*
X90170000Y-91700000D01*
G75*
G02*
X90310000Y-91840000I0J-140000D01*
G01*
X90310000Y-92120000D01*
G75*
G02*
X90170000Y-92260000I-140000J0D01*
G01*
G37*
G36*
G01*
X90170000Y-91300000D02*
X89830000Y-91300000D01*
G75*
G02*
X89690000Y-91160000I0J140000D01*
G01*
X89690000Y-90880000D01*
G75*
G02*
X89830000Y-90740000I140000J0D01*
G01*
X90170000Y-90740000D01*
G75*
G02*
X90310000Y-90880000I0J-140000D01*
G01*
X90310000Y-91160000D01*
G75*
G02*
X90170000Y-91300000I-140000J0D01*
G01*
G37*
%TD*%
%TO.C,C7*%
G36*
G01*
X93700000Y-84170000D02*
X93700000Y-83830000D01*
G75*
G02*
X93840000Y-83690000I140000J0D01*
G01*
X94120000Y-83690000D01*
G75*
G02*
X94260000Y-83830000I0J-140000D01*
G01*
X94260000Y-84170000D01*
G75*
G02*
X94120000Y-84310000I-140000J0D01*
G01*
X93840000Y-84310000D01*
G75*
G02*
X93700000Y-84170000I0J140000D01*
G01*
G37*
G36*
G01*
X92740000Y-84170000D02*
X92740000Y-83830000D01*
G75*
G02*
X92880000Y-83690000I140000J0D01*
G01*
X93160000Y-83690000D01*
G75*
G02*
X93300000Y-83830000I0J-140000D01*
G01*
X93300000Y-84170000D01*
G75*
G02*
X93160000Y-84310000I-140000J0D01*
G01*
X92880000Y-84310000D01*
G75*
G02*
X92740000Y-84170000I0J140000D01*
G01*
G37*
%TD*%
%TO.C,C6*%
G36*
G01*
X101830000Y-87700000D02*
X102170000Y-87700000D01*
G75*
G02*
X102310000Y-87840000I0J-140000D01*
G01*
X102310000Y-88120000D01*
G75*
G02*
X102170000Y-88260000I-140000J0D01*
G01*
X101830000Y-88260000D01*
G75*
G02*
X101690000Y-88120000I0J140000D01*
G01*
X101690000Y-87840000D01*
G75*
G02*
X101830000Y-87700000I140000J0D01*
G01*
G37*
G36*
G01*
X101830000Y-86740000D02*
X102170000Y-86740000D01*
G75*
G02*
X102310000Y-86880000I0J-140000D01*
G01*
X102310000Y-87160000D01*
G75*
G02*
X102170000Y-87300000I-140000J0D01*
G01*
X101830000Y-87300000D01*
G75*
G02*
X101690000Y-87160000I0J140000D01*
G01*
X101690000Y-86880000D01*
G75*
G02*
X101830000Y-86740000I140000J0D01*
G01*
G37*
%TD*%
%TO.C,C5*%
G36*
G01*
X98800000Y-95830000D02*
X98800000Y-96170000D01*
G75*
G02*
X98660000Y-96310000I-140000J0D01*
G01*
X98380000Y-96310000D01*
G75*
G02*
X98240000Y-96170000I0J140000D01*
G01*
X98240000Y-95830000D01*
G75*
G02*
X98380000Y-95690000I140000J0D01*
G01*
X98660000Y-95690000D01*
G75*
G02*
X98800000Y-95830000I0J-140000D01*
G01*
G37*
G36*
G01*
X99760000Y-95830000D02*
X99760000Y-96170000D01*
G75*
G02*
X99620000Y-96310000I-140000J0D01*
G01*
X99340000Y-96310000D01*
G75*
G02*
X99200000Y-96170000I0J140000D01*
G01*
X99200000Y-95830000D01*
G75*
G02*
X99340000Y-95690000I140000J0D01*
G01*
X99620000Y-95690000D01*
G75*
G02*
X99760000Y-95830000I0J-140000D01*
G01*
G37*
%TD*%
%TO.C,C4*%
G36*
G01*
X90170000Y-86320000D02*
X89830000Y-86320000D01*
G75*
G02*
X89690000Y-86180000I0J140000D01*
G01*
X89690000Y-85900000D01*
G75*
G02*
X89830000Y-85760000I140000J0D01*
G01*
X90170000Y-85760000D01*
G75*
G02*
X90310000Y-85900000I0J-140000D01*
G01*
X90310000Y-86180000D01*
G75*
G02*
X90170000Y-86320000I-140000J0D01*
G01*
G37*
G36*
G01*
X90170000Y-87280000D02*
X89830000Y-87280000D01*
G75*
G02*
X89690000Y-87140000I0J140000D01*
G01*
X89690000Y-86860000D01*
G75*
G02*
X89830000Y-86720000I140000J0D01*
G01*
X90170000Y-86720000D01*
G75*
G02*
X90310000Y-86860000I0J-140000D01*
G01*
X90310000Y-87140000D01*
G75*
G02*
X90170000Y-87280000I-140000J0D01*
G01*
G37*
%TD*%
%TO.C,C3*%
G36*
G01*
X93825000Y-82750000D02*
X93825000Y-82250000D01*
G75*
G02*
X94050000Y-82025000I225000J0D01*
G01*
X94500000Y-82025000D01*
G75*
G02*
X94725000Y-82250000I0J-225000D01*
G01*
X94725000Y-82750000D01*
G75*
G02*
X94500000Y-82975000I-225000J0D01*
G01*
X94050000Y-82975000D01*
G75*
G02*
X93825000Y-82750000I0J225000D01*
G01*
G37*
G36*
G01*
X92275000Y-82750000D02*
X92275000Y-82250000D01*
G75*
G02*
X92500000Y-82025000I225000J0D01*
G01*
X92950000Y-82025000D01*
G75*
G02*
X93175000Y-82250000I0J-225000D01*
G01*
X93175000Y-82750000D01*
G75*
G02*
X92950000Y-82975000I-225000J0D01*
G01*
X92500000Y-82975000D01*
G75*
G02*
X92275000Y-82750000I0J225000D01*
G01*
G37*
%TD*%
%TO.C,C2*%
G36*
G01*
X112375000Y-96300000D02*
X111425000Y-96300000D01*
G75*
G02*
X111175000Y-96050000I0J250000D01*
G01*
X111175000Y-95550000D01*
G75*
G02*
X111425000Y-95300000I250000J0D01*
G01*
X112375000Y-95300000D01*
G75*
G02*
X112625000Y-95550000I0J-250000D01*
G01*
X112625000Y-96050000D01*
G75*
G02*
X112375000Y-96300000I-250000J0D01*
G01*
G37*
G36*
G01*
X112375000Y-98200000D02*
X111425000Y-98200000D01*
G75*
G02*
X111175000Y-97950000I0J250000D01*
G01*
X111175000Y-97450000D01*
G75*
G02*
X111425000Y-97200000I250000J0D01*
G01*
X112375000Y-97200000D01*
G75*
G02*
X112625000Y-97450000I0J-250000D01*
G01*
X112625000Y-97950000D01*
G75*
G02*
X112375000Y-98200000I-250000J0D01*
G01*
G37*
%TD*%
%TO.C,C1*%
G36*
G01*
X106450000Y-91475000D02*
X106450000Y-90525000D01*
G75*
G02*
X106700000Y-90275000I250000J0D01*
G01*
X107200000Y-90275000D01*
G75*
G02*
X107450000Y-90525000I0J-250000D01*
G01*
X107450000Y-91475000D01*
G75*
G02*
X107200000Y-91725000I-250000J0D01*
G01*
X106700000Y-91725000D01*
G75*
G02*
X106450000Y-91475000I0J250000D01*
G01*
G37*
G36*
G01*
X104550000Y-91475000D02*
X104550000Y-90525000D01*
G75*
G02*
X104800000Y-90275000I250000J0D01*
G01*
X105300000Y-90275000D01*
G75*
G02*
X105550000Y-90525000I0J-250000D01*
G01*
X105550000Y-91475000D01*
G75*
G02*
X105300000Y-91725000I-250000J0D01*
G01*
X104800000Y-91725000D01*
G75*
G02*
X104550000Y-91475000I0J250000D01*
G01*
G37*
%TD*%
M02*
