%TF.GenerationSoftware,KiCad,Pcbnew,(5.1.10)-1*%
%TF.CreationDate,2025-06-17T20:32:58+05:30*%
%TF.ProjectId,STM32_Clone,53544d33-325f-4436-9c6f-6e652e6b6963,rev?*%
%TF.SameCoordinates,Original*%
%TF.FileFunction,Copper,L2,Bot*%
%TF.FilePolarity,Positive*%
%FSLAX46Y46*%
G04 Gerber Fmt 4.6, Leading zero omitted, Abs format (unit mm)*
G04 Created by KiCad (PCBNEW (5.1.10)-1) date 2025-06-17 20:32:58*
%MOMM*%
%LPD*%
G01*
G04 APERTURE LIST*
%TA.AperFunction,ComponentPad*%
%ADD10O,2.000000X1.450000*%
%TD*%
%TA.AperFunction,ComponentPad*%
%ADD11O,1.800000X1.150000*%
%TD*%
%TA.AperFunction,ComponentPad*%
%ADD12O,1.700000X1.700000*%
%TD*%
%TA.AperFunction,ComponentPad*%
%ADD13R,1.700000X1.700000*%
%TD*%
%TA.AperFunction,ViaPad*%
%ADD14C,0.800000*%
%TD*%
%TA.AperFunction,Conductor*%
%ADD15C,0.500000*%
%TD*%
%TA.AperFunction,Conductor*%
%ADD16C,0.250000*%
%TD*%
%TA.AperFunction,Conductor*%
%ADD17C,0.100000*%
%TD*%
G04 APERTURE END LIST*
D10*
%TO.P,J1,6*%
%TO.N,Net-(J1-Pad6)*%
X113650000Y-91225000D03*
X113650000Y-83775000D03*
D11*
X117450000Y-91375000D03*
X117450000Y-83625000D03*
%TD*%
D12*
%TO.P,J4,4*%
%TO.N,GND*%
X100120000Y-103000000D03*
%TO.P,J4,3*%
%TO.N,/I2C2_SDA*%
X97580000Y-103000000D03*
%TO.P,J4,2*%
%TO.N,/I2C2_SCL*%
X95040000Y-103000000D03*
D13*
%TO.P,J4,1*%
%TO.N,+3V3*%
X92500000Y-103000000D03*
%TD*%
D12*
%TO.P,J3,4*%
%TO.N,GND*%
X103380000Y-76500000D03*
%TO.P,J3,3*%
%TO.N,/SWCLK*%
X105920000Y-76500000D03*
%TO.P,J3,2*%
%TO.N,/SWDIO*%
X108460000Y-76500000D03*
D13*
%TO.P,J3,1*%
%TO.N,+3V3*%
X111000000Y-76500000D03*
%TD*%
D12*
%TO.P,J2,4*%
%TO.N,GND*%
X90380000Y-76500000D03*
%TO.P,J2,3*%
%TO.N,/USART1_RX*%
X92920000Y-76500000D03*
%TO.P,J2,2*%
%TO.N,/USART1_TX*%
X95460000Y-76500000D03*
D13*
%TO.P,J2,1*%
%TO.N,+3V3*%
X98000000Y-76500000D03*
%TD*%
D14*
%TO.N,GND*%
X98200000Y-92100000D03*
X95100000Y-96000000D03*
X87525000Y-94850000D03*
X88000000Y-99300000D03*
X87800000Y-90000000D03*
X103300000Y-87900000D03*
X93600000Y-90700000D03*
X87100000Y-79800000D03*
X90000000Y-84900000D03*
X115000000Y-93800000D03*
X93750000Y-87450000D03*
X108325000Y-90500000D03*
X108325000Y-91375000D03*
X108875000Y-95425000D03*
X109900000Y-95400000D03*
X111800000Y-94425000D03*
X84675000Y-93675000D03*
X88475000Y-93750000D03*
X89875000Y-88075000D03*
X112175000Y-86200000D03*
%TO.N,+3V3*%
X98250000Y-97000000D03*
X96500000Y-97000000D03*
X94975000Y-100200000D03*
X93200000Y-100250000D03*
X90200000Y-80775000D03*
X88450000Y-80775000D03*
%TD*%
D15*
%TO.N,+3V3*%
X98250000Y-97000000D02*
X96500000Y-97000000D01*
X93250000Y-100200000D02*
X93200000Y-100250000D01*
X94975000Y-100200000D02*
X93250000Y-100200000D01*
X90200000Y-80775000D02*
X88450000Y-80775000D01*
%TD*%
D16*
%TO.N,GND*%
X116494876Y-74000681D02*
X116970906Y-74144403D01*
X117409957Y-74377850D01*
X117795296Y-74692125D01*
X118112258Y-75075266D01*
X118348761Y-75512670D01*
X118495803Y-75987684D01*
X118550001Y-76503344D01*
X118550001Y-82993033D01*
X118485528Y-82914472D01*
X118333258Y-82789508D01*
X118159535Y-82696651D01*
X117971034Y-82639470D01*
X117824120Y-82625000D01*
X117075880Y-82625000D01*
X116928966Y-82639470D01*
X116740465Y-82696651D01*
X116566742Y-82789508D01*
X116414472Y-82914472D01*
X116289508Y-83066742D01*
X116196651Y-83240465D01*
X116139470Y-83428966D01*
X116120162Y-83625000D01*
X116139470Y-83821034D01*
X116196651Y-84009535D01*
X116289508Y-84183258D01*
X116414472Y-84335528D01*
X116566742Y-84460492D01*
X116740465Y-84553349D01*
X116928966Y-84610530D01*
X117075880Y-84625000D01*
X117824120Y-84625000D01*
X117971034Y-84610530D01*
X118159535Y-84553349D01*
X118333258Y-84460492D01*
X118485528Y-84335528D01*
X118550001Y-84256967D01*
X118550000Y-90743032D01*
X118485528Y-90664472D01*
X118333258Y-90539508D01*
X118159535Y-90446651D01*
X117971034Y-90389470D01*
X117824120Y-90375000D01*
X117075880Y-90375000D01*
X116928966Y-90389470D01*
X116740465Y-90446651D01*
X116566742Y-90539508D01*
X116414472Y-90664472D01*
X116289508Y-90816742D01*
X116196651Y-90990465D01*
X116139470Y-91178966D01*
X116120162Y-91375000D01*
X116139470Y-91571034D01*
X116196651Y-91759535D01*
X116289508Y-91933258D01*
X116414472Y-92085528D01*
X116566742Y-92210492D01*
X116740465Y-92303349D01*
X116928966Y-92360530D01*
X117075880Y-92375000D01*
X117824120Y-92375000D01*
X117971034Y-92360530D01*
X118159535Y-92303349D01*
X118333258Y-92210492D01*
X118485528Y-92085528D01*
X118550000Y-92006968D01*
X118550000Y-101977995D01*
X118499319Y-102494876D01*
X118355596Y-102970910D01*
X118122152Y-103409954D01*
X117807875Y-103795296D01*
X117424735Y-104112257D01*
X116987329Y-104348761D01*
X116512316Y-104495803D01*
X115996664Y-104550000D01*
X85022005Y-104550000D01*
X84505124Y-104499319D01*
X84029090Y-104355596D01*
X83590046Y-104122152D01*
X83204704Y-103807875D01*
X82887743Y-103424735D01*
X82651239Y-102987329D01*
X82504197Y-102512316D01*
X82450000Y-101996664D01*
X82450000Y-101849801D01*
X83475000Y-101849801D01*
X83475000Y-102150199D01*
X83533605Y-102444826D01*
X83648562Y-102722358D01*
X83815455Y-102972131D01*
X84027869Y-103184545D01*
X84277642Y-103351438D01*
X84555174Y-103466395D01*
X84849801Y-103525000D01*
X85150199Y-103525000D01*
X85444826Y-103466395D01*
X85722358Y-103351438D01*
X85972131Y-103184545D01*
X86184545Y-102972131D01*
X86351438Y-102722358D01*
X86466395Y-102444826D01*
X86525000Y-102150199D01*
X86525000Y-102150000D01*
X91222944Y-102150000D01*
X91222944Y-103850000D01*
X91231150Y-103933314D01*
X91255452Y-104013427D01*
X91294916Y-104087260D01*
X91348026Y-104151974D01*
X91412740Y-104205084D01*
X91486573Y-104244548D01*
X91566686Y-104268850D01*
X91650000Y-104277056D01*
X93350000Y-104277056D01*
X93433314Y-104268850D01*
X93513427Y-104244548D01*
X93587260Y-104205084D01*
X93651974Y-104151974D01*
X93705084Y-104087260D01*
X93744548Y-104013427D01*
X93768850Y-103933314D01*
X93777056Y-103850000D01*
X93777056Y-103186186D01*
X93813998Y-103371904D01*
X93910110Y-103603939D01*
X94049643Y-103812765D01*
X94227235Y-103990357D01*
X94436061Y-104129890D01*
X94668096Y-104226002D01*
X94914423Y-104275000D01*
X95165577Y-104275000D01*
X95411904Y-104226002D01*
X95643939Y-104129890D01*
X95852765Y-103990357D01*
X96030357Y-103812765D01*
X96169890Y-103603939D01*
X96266002Y-103371904D01*
X96310000Y-103150713D01*
X96353998Y-103371904D01*
X96450110Y-103603939D01*
X96589643Y-103812765D01*
X96767235Y-103990357D01*
X96976061Y-104129890D01*
X97208096Y-104226002D01*
X97454423Y-104275000D01*
X97705577Y-104275000D01*
X97951904Y-104226002D01*
X98183939Y-104129890D01*
X98392765Y-103990357D01*
X98570357Y-103812765D01*
X98709890Y-103603939D01*
X98745873Y-103517067D01*
X98784406Y-103625962D01*
X98932188Y-103874496D01*
X99125617Y-104089423D01*
X99357260Y-104262485D01*
X99618214Y-104387030D01*
X99766628Y-104432045D01*
X99995000Y-104312812D01*
X99995000Y-103125000D01*
X100245000Y-103125000D01*
X100245000Y-104312812D01*
X100473372Y-104432045D01*
X100621786Y-104387030D01*
X100882740Y-104262485D01*
X101114383Y-104089423D01*
X101307812Y-103874496D01*
X101455594Y-103625962D01*
X101552050Y-103353373D01*
X101433449Y-103125000D01*
X100245000Y-103125000D01*
X99995000Y-103125000D01*
X99975000Y-103125000D01*
X99975000Y-102875000D01*
X99995000Y-102875000D01*
X99995000Y-101687188D01*
X100245000Y-101687188D01*
X100245000Y-102875000D01*
X101433449Y-102875000D01*
X101552050Y-102646627D01*
X101455594Y-102374038D01*
X101307812Y-102125504D01*
X101114383Y-101910577D01*
X101033035Y-101849801D01*
X114475000Y-101849801D01*
X114475000Y-102150199D01*
X114533605Y-102444826D01*
X114648562Y-102722358D01*
X114815455Y-102972131D01*
X115027869Y-103184545D01*
X115277642Y-103351438D01*
X115555174Y-103466395D01*
X115849801Y-103525000D01*
X116150199Y-103525000D01*
X116444826Y-103466395D01*
X116722358Y-103351438D01*
X116972131Y-103184545D01*
X117184545Y-102972131D01*
X117351438Y-102722358D01*
X117466395Y-102444826D01*
X117525000Y-102150199D01*
X117525000Y-101849801D01*
X117466395Y-101555174D01*
X117351438Y-101277642D01*
X117184545Y-101027869D01*
X116972131Y-100815455D01*
X116722358Y-100648562D01*
X116444826Y-100533605D01*
X116150199Y-100475000D01*
X115849801Y-100475000D01*
X115555174Y-100533605D01*
X115277642Y-100648562D01*
X115027869Y-100815455D01*
X114815455Y-101027869D01*
X114648562Y-101277642D01*
X114533605Y-101555174D01*
X114475000Y-101849801D01*
X101033035Y-101849801D01*
X100882740Y-101737515D01*
X100621786Y-101612970D01*
X100473372Y-101567955D01*
X100245000Y-101687188D01*
X99995000Y-101687188D01*
X99766628Y-101567955D01*
X99618214Y-101612970D01*
X99357260Y-101737515D01*
X99125617Y-101910577D01*
X98932188Y-102125504D01*
X98784406Y-102374038D01*
X98745873Y-102482933D01*
X98709890Y-102396061D01*
X98570357Y-102187235D01*
X98392765Y-102009643D01*
X98183939Y-101870110D01*
X97951904Y-101773998D01*
X97705577Y-101725000D01*
X97454423Y-101725000D01*
X97208096Y-101773998D01*
X96976061Y-101870110D01*
X96767235Y-102009643D01*
X96589643Y-102187235D01*
X96450110Y-102396061D01*
X96353998Y-102628096D01*
X96310000Y-102849287D01*
X96266002Y-102628096D01*
X96169890Y-102396061D01*
X96030357Y-102187235D01*
X95852765Y-102009643D01*
X95643939Y-101870110D01*
X95411904Y-101773998D01*
X95165577Y-101725000D01*
X94914423Y-101725000D01*
X94668096Y-101773998D01*
X94436061Y-101870110D01*
X94227235Y-102009643D01*
X94049643Y-102187235D01*
X93910110Y-102396061D01*
X93813998Y-102628096D01*
X93777056Y-102813814D01*
X93777056Y-102150000D01*
X93768850Y-102066686D01*
X93744548Y-101986573D01*
X93705084Y-101912740D01*
X93651974Y-101848026D01*
X93587260Y-101794916D01*
X93513427Y-101755452D01*
X93433314Y-101731150D01*
X93350000Y-101722944D01*
X91650000Y-101722944D01*
X91566686Y-101731150D01*
X91486573Y-101755452D01*
X91412740Y-101794916D01*
X91348026Y-101848026D01*
X91294916Y-101912740D01*
X91255452Y-101986573D01*
X91231150Y-102066686D01*
X91222944Y-102150000D01*
X86525000Y-102150000D01*
X86525000Y-101849801D01*
X86466395Y-101555174D01*
X86351438Y-101277642D01*
X86184545Y-101027869D01*
X85972131Y-100815455D01*
X85722358Y-100648562D01*
X85444826Y-100533605D01*
X85150199Y-100475000D01*
X84849801Y-100475000D01*
X84555174Y-100533605D01*
X84277642Y-100648562D01*
X84027869Y-100815455D01*
X83815455Y-101027869D01*
X83648562Y-101277642D01*
X83533605Y-101555174D01*
X83475000Y-101849801D01*
X82450000Y-101849801D01*
X82450000Y-100168745D01*
X92375000Y-100168745D01*
X92375000Y-100331255D01*
X92406704Y-100490644D01*
X92468894Y-100640784D01*
X92559181Y-100775907D01*
X92674093Y-100890819D01*
X92809216Y-100981106D01*
X92959356Y-101043296D01*
X93118745Y-101075000D01*
X93281255Y-101075000D01*
X93440644Y-101043296D01*
X93590784Y-100981106D01*
X93725907Y-100890819D01*
X93741726Y-100875000D01*
X94500248Y-100875000D01*
X94584216Y-100931106D01*
X94734356Y-100993296D01*
X94893745Y-101025000D01*
X95056255Y-101025000D01*
X95215644Y-100993296D01*
X95365784Y-100931106D01*
X95500907Y-100840819D01*
X95615819Y-100725907D01*
X95706106Y-100590784D01*
X95768296Y-100440644D01*
X95800000Y-100281255D01*
X95800000Y-100118745D01*
X95768296Y-99959356D01*
X95706106Y-99809216D01*
X95615819Y-99674093D01*
X95500907Y-99559181D01*
X95365784Y-99468894D01*
X95215644Y-99406704D01*
X95056255Y-99375000D01*
X94893745Y-99375000D01*
X94734356Y-99406704D01*
X94584216Y-99468894D01*
X94500248Y-99525000D01*
X93599922Y-99525000D01*
X93590784Y-99518894D01*
X93440644Y-99456704D01*
X93281255Y-99425000D01*
X93118745Y-99425000D01*
X92959356Y-99456704D01*
X92809216Y-99518894D01*
X92674093Y-99609181D01*
X92559181Y-99724093D01*
X92468894Y-99859216D01*
X92406704Y-100009356D01*
X92375000Y-100168745D01*
X82450000Y-100168745D01*
X82450000Y-96918745D01*
X95675000Y-96918745D01*
X95675000Y-97081255D01*
X95706704Y-97240644D01*
X95768894Y-97390784D01*
X95859181Y-97525907D01*
X95974093Y-97640819D01*
X96109216Y-97731106D01*
X96259356Y-97793296D01*
X96418745Y-97825000D01*
X96581255Y-97825000D01*
X96740644Y-97793296D01*
X96890784Y-97731106D01*
X96974752Y-97675000D01*
X97775248Y-97675000D01*
X97859216Y-97731106D01*
X98009356Y-97793296D01*
X98168745Y-97825000D01*
X98331255Y-97825000D01*
X98490644Y-97793296D01*
X98640784Y-97731106D01*
X98775907Y-97640819D01*
X98890819Y-97525907D01*
X98981106Y-97390784D01*
X99043296Y-97240644D01*
X99075000Y-97081255D01*
X99075000Y-96918745D01*
X99043296Y-96759356D01*
X98981106Y-96609216D01*
X98890819Y-96474093D01*
X98775907Y-96359181D01*
X98640784Y-96268894D01*
X98490644Y-96206704D01*
X98331255Y-96175000D01*
X98168745Y-96175000D01*
X98009356Y-96206704D01*
X97859216Y-96268894D01*
X97775248Y-96325000D01*
X96974752Y-96325000D01*
X96890784Y-96268894D01*
X96740644Y-96206704D01*
X96581255Y-96175000D01*
X96418745Y-96175000D01*
X96259356Y-96206704D01*
X96109216Y-96268894D01*
X95974093Y-96359181D01*
X95859181Y-96474093D01*
X95768894Y-96609216D01*
X95706704Y-96759356D01*
X95675000Y-96918745D01*
X82450000Y-96918745D01*
X82450000Y-91225000D01*
X112219436Y-91225000D01*
X112241640Y-91450439D01*
X112307398Y-91667215D01*
X112414184Y-91866997D01*
X112557893Y-92042107D01*
X112733003Y-92185816D01*
X112932785Y-92292602D01*
X113149561Y-92358360D01*
X113318508Y-92375000D01*
X113981492Y-92375000D01*
X114150439Y-92358360D01*
X114367215Y-92292602D01*
X114566997Y-92185816D01*
X114742107Y-92042107D01*
X114885816Y-91866997D01*
X114992602Y-91667215D01*
X115058360Y-91450439D01*
X115080564Y-91225000D01*
X115058360Y-90999561D01*
X114992602Y-90782785D01*
X114987783Y-90773770D01*
X115090784Y-90731106D01*
X115225907Y-90640819D01*
X115340819Y-90525907D01*
X115431106Y-90390784D01*
X115493296Y-90240644D01*
X115525000Y-90081255D01*
X115525000Y-89918745D01*
X115493296Y-89759356D01*
X115431106Y-89609216D01*
X115340819Y-89474093D01*
X115225907Y-89359181D01*
X115090784Y-89268894D01*
X114940644Y-89206704D01*
X114781255Y-89175000D01*
X114618745Y-89175000D01*
X114459356Y-89206704D01*
X114309216Y-89268894D01*
X114174093Y-89359181D01*
X114059181Y-89474093D01*
X113968894Y-89609216D01*
X113906704Y-89759356D01*
X113875000Y-89918745D01*
X113875000Y-90075000D01*
X113318508Y-90075000D01*
X113149561Y-90091640D01*
X112932785Y-90157398D01*
X112733003Y-90264184D01*
X112557893Y-90407893D01*
X112414184Y-90583003D01*
X112307398Y-90782785D01*
X112241640Y-90999561D01*
X112219436Y-91225000D01*
X82450000Y-91225000D01*
X82450000Y-84913820D01*
X83795000Y-84913820D01*
X83795000Y-85086180D01*
X83828626Y-85255228D01*
X83894585Y-85414468D01*
X83990343Y-85557780D01*
X84112220Y-85679657D01*
X84255532Y-85775415D01*
X84414772Y-85841374D01*
X84583820Y-85875000D01*
X84756180Y-85875000D01*
X84925228Y-85841374D01*
X85084468Y-85775415D01*
X85227780Y-85679657D01*
X85349657Y-85557780D01*
X85445415Y-85414468D01*
X85511374Y-85255228D01*
X85545000Y-85086180D01*
X85545000Y-84913820D01*
X85511374Y-84744772D01*
X85445415Y-84585532D01*
X85349657Y-84442220D01*
X85227780Y-84320343D01*
X85084468Y-84224585D01*
X84925228Y-84158626D01*
X84756180Y-84125000D01*
X84583820Y-84125000D01*
X84414772Y-84158626D01*
X84255532Y-84224585D01*
X84112220Y-84320343D01*
X83990343Y-84442220D01*
X83894585Y-84585532D01*
X83828626Y-84744772D01*
X83795000Y-84913820D01*
X82450000Y-84913820D01*
X82450000Y-83775000D01*
X112219436Y-83775000D01*
X112241640Y-84000439D01*
X112307398Y-84217215D01*
X112414184Y-84416997D01*
X112557893Y-84592107D01*
X112733003Y-84735816D01*
X112932785Y-84842602D01*
X113149561Y-84908360D01*
X113318508Y-84925000D01*
X113875000Y-84925000D01*
X113875000Y-85081255D01*
X113906704Y-85240644D01*
X113968894Y-85390784D01*
X114059181Y-85525907D01*
X114174093Y-85640819D01*
X114309216Y-85731106D01*
X114459356Y-85793296D01*
X114618745Y-85825000D01*
X114781255Y-85825000D01*
X114940644Y-85793296D01*
X115090784Y-85731106D01*
X115225907Y-85640819D01*
X115340819Y-85525907D01*
X115431106Y-85390784D01*
X115493296Y-85240644D01*
X115525000Y-85081255D01*
X115525000Y-84918745D01*
X115493296Y-84759356D01*
X115431106Y-84609216D01*
X115340819Y-84474093D01*
X115225907Y-84359181D01*
X115090784Y-84268894D01*
X114987783Y-84226230D01*
X114992602Y-84217215D01*
X115058360Y-84000439D01*
X115080564Y-83775000D01*
X115058360Y-83549561D01*
X114992602Y-83332785D01*
X114885816Y-83133003D01*
X114742107Y-82957893D01*
X114566997Y-82814184D01*
X114367215Y-82707398D01*
X114150439Y-82641640D01*
X113981492Y-82625000D01*
X113318508Y-82625000D01*
X113149561Y-82641640D01*
X112932785Y-82707398D01*
X112733003Y-82814184D01*
X112557893Y-82957893D01*
X112414184Y-83133003D01*
X112307398Y-83332785D01*
X112241640Y-83549561D01*
X112219436Y-83775000D01*
X82450000Y-83775000D01*
X82450000Y-81913820D01*
X83795000Y-81913820D01*
X83795000Y-82086180D01*
X83828626Y-82255228D01*
X83894585Y-82414468D01*
X83990343Y-82557780D01*
X84112220Y-82679657D01*
X84255532Y-82775415D01*
X84414772Y-82841374D01*
X84583820Y-82875000D01*
X84756180Y-82875000D01*
X84925228Y-82841374D01*
X85084468Y-82775415D01*
X85227780Y-82679657D01*
X85349657Y-82557780D01*
X85445415Y-82414468D01*
X85511374Y-82255228D01*
X85545000Y-82086180D01*
X85545000Y-81913820D01*
X85511374Y-81744772D01*
X85445415Y-81585532D01*
X85349657Y-81442220D01*
X85227780Y-81320343D01*
X85084468Y-81224585D01*
X84925228Y-81158626D01*
X84756180Y-81125000D01*
X84583820Y-81125000D01*
X84414772Y-81158626D01*
X84255532Y-81224585D01*
X84112220Y-81320343D01*
X83990343Y-81442220D01*
X83894585Y-81585532D01*
X83828626Y-81744772D01*
X83795000Y-81913820D01*
X82450000Y-81913820D01*
X82450000Y-80693745D01*
X87625000Y-80693745D01*
X87625000Y-80856255D01*
X87656704Y-81015644D01*
X87718894Y-81165784D01*
X87809181Y-81300907D01*
X87924093Y-81415819D01*
X88059216Y-81506106D01*
X88209356Y-81568296D01*
X88368745Y-81600000D01*
X88531255Y-81600000D01*
X88690644Y-81568296D01*
X88840784Y-81506106D01*
X88924752Y-81450000D01*
X89725248Y-81450000D01*
X89809216Y-81506106D01*
X89959356Y-81568296D01*
X90118745Y-81600000D01*
X90281255Y-81600000D01*
X90440644Y-81568296D01*
X90590784Y-81506106D01*
X90725907Y-81415819D01*
X90840819Y-81300907D01*
X90931106Y-81165784D01*
X90993296Y-81015644D01*
X91025000Y-80856255D01*
X91025000Y-80693745D01*
X90993296Y-80534356D01*
X90931106Y-80384216D01*
X90840819Y-80249093D01*
X90725907Y-80134181D01*
X90590784Y-80043894D01*
X90440644Y-79981704D01*
X90281255Y-79950000D01*
X90118745Y-79950000D01*
X89959356Y-79981704D01*
X89809216Y-80043894D01*
X89725248Y-80100000D01*
X88924752Y-80100000D01*
X88840784Y-80043894D01*
X88690644Y-79981704D01*
X88531255Y-79950000D01*
X88368745Y-79950000D01*
X88209356Y-79981704D01*
X88059216Y-80043894D01*
X87924093Y-80134181D01*
X87809181Y-80249093D01*
X87718894Y-80384216D01*
X87656704Y-80534356D01*
X87625000Y-80693745D01*
X82450000Y-80693745D01*
X82450000Y-76522006D01*
X82466884Y-76349801D01*
X83475000Y-76349801D01*
X83475000Y-76650199D01*
X83533605Y-76944826D01*
X83648562Y-77222358D01*
X83815455Y-77472131D01*
X84027869Y-77684545D01*
X84277642Y-77851438D01*
X84555174Y-77966395D01*
X84849801Y-78025000D01*
X85150199Y-78025000D01*
X85444826Y-77966395D01*
X85722358Y-77851438D01*
X85972131Y-77684545D01*
X86184545Y-77472131D01*
X86351438Y-77222358D01*
X86466395Y-76944826D01*
X86484586Y-76853373D01*
X88947950Y-76853373D01*
X89044406Y-77125962D01*
X89192188Y-77374496D01*
X89385617Y-77589423D01*
X89617260Y-77762485D01*
X89878214Y-77887030D01*
X90026628Y-77932045D01*
X90255000Y-77812812D01*
X90255000Y-76625000D01*
X89066551Y-76625000D01*
X88947950Y-76853373D01*
X86484586Y-76853373D01*
X86525000Y-76650199D01*
X86525000Y-76349801D01*
X86484587Y-76146627D01*
X88947950Y-76146627D01*
X89066551Y-76375000D01*
X90255000Y-76375000D01*
X90255000Y-75187188D01*
X90505000Y-75187188D01*
X90505000Y-76375000D01*
X90525000Y-76375000D01*
X90525000Y-76625000D01*
X90505000Y-76625000D01*
X90505000Y-77812812D01*
X90733372Y-77932045D01*
X90881786Y-77887030D01*
X91142740Y-77762485D01*
X91374383Y-77589423D01*
X91567812Y-77374496D01*
X91715594Y-77125962D01*
X91754127Y-77017067D01*
X91790110Y-77103939D01*
X91929643Y-77312765D01*
X92107235Y-77490357D01*
X92316061Y-77629890D01*
X92548096Y-77726002D01*
X92794423Y-77775000D01*
X93045577Y-77775000D01*
X93291904Y-77726002D01*
X93523939Y-77629890D01*
X93732765Y-77490357D01*
X93910357Y-77312765D01*
X94049890Y-77103939D01*
X94146002Y-76871904D01*
X94190000Y-76650713D01*
X94233998Y-76871904D01*
X94330110Y-77103939D01*
X94469643Y-77312765D01*
X94647235Y-77490357D01*
X94856061Y-77629890D01*
X95088096Y-77726002D01*
X95334423Y-77775000D01*
X95585577Y-77775000D01*
X95831904Y-77726002D01*
X96063939Y-77629890D01*
X96272765Y-77490357D01*
X96450357Y-77312765D01*
X96589890Y-77103939D01*
X96686002Y-76871904D01*
X96722944Y-76686186D01*
X96722944Y-77350000D01*
X96731150Y-77433314D01*
X96755452Y-77513427D01*
X96794916Y-77587260D01*
X96848026Y-77651974D01*
X96912740Y-77705084D01*
X96986573Y-77744548D01*
X97066686Y-77768850D01*
X97150000Y-77777056D01*
X98850000Y-77777056D01*
X98933314Y-77768850D01*
X99013427Y-77744548D01*
X99087260Y-77705084D01*
X99151974Y-77651974D01*
X99205084Y-77587260D01*
X99244548Y-77513427D01*
X99268850Y-77433314D01*
X99277056Y-77350000D01*
X99277056Y-76853373D01*
X101947950Y-76853373D01*
X102044406Y-77125962D01*
X102192188Y-77374496D01*
X102385617Y-77589423D01*
X102617260Y-77762485D01*
X102878214Y-77887030D01*
X103026628Y-77932045D01*
X103255000Y-77812812D01*
X103255000Y-76625000D01*
X102066551Y-76625000D01*
X101947950Y-76853373D01*
X99277056Y-76853373D01*
X99277056Y-76146627D01*
X101947950Y-76146627D01*
X102066551Y-76375000D01*
X103255000Y-76375000D01*
X103255000Y-75187188D01*
X103505000Y-75187188D01*
X103505000Y-76375000D01*
X103525000Y-76375000D01*
X103525000Y-76625000D01*
X103505000Y-76625000D01*
X103505000Y-77812812D01*
X103733372Y-77932045D01*
X103881786Y-77887030D01*
X104142740Y-77762485D01*
X104374383Y-77589423D01*
X104567812Y-77374496D01*
X104715594Y-77125962D01*
X104754127Y-77017067D01*
X104790110Y-77103939D01*
X104929643Y-77312765D01*
X105107235Y-77490357D01*
X105316061Y-77629890D01*
X105548096Y-77726002D01*
X105794423Y-77775000D01*
X106045577Y-77775000D01*
X106291904Y-77726002D01*
X106523939Y-77629890D01*
X106732765Y-77490357D01*
X106910357Y-77312765D01*
X107049890Y-77103939D01*
X107146002Y-76871904D01*
X107190000Y-76650713D01*
X107233998Y-76871904D01*
X107330110Y-77103939D01*
X107469643Y-77312765D01*
X107647235Y-77490357D01*
X107856061Y-77629890D01*
X108088096Y-77726002D01*
X108334423Y-77775000D01*
X108585577Y-77775000D01*
X108831904Y-77726002D01*
X109063939Y-77629890D01*
X109272765Y-77490357D01*
X109450357Y-77312765D01*
X109589890Y-77103939D01*
X109686002Y-76871904D01*
X109722944Y-76686186D01*
X109722944Y-77350000D01*
X109731150Y-77433314D01*
X109755452Y-77513427D01*
X109794916Y-77587260D01*
X109848026Y-77651974D01*
X109912740Y-77705084D01*
X109986573Y-77744548D01*
X110066686Y-77768850D01*
X110150000Y-77777056D01*
X111850000Y-77777056D01*
X111933314Y-77768850D01*
X112013427Y-77744548D01*
X112087260Y-77705084D01*
X112151974Y-77651974D01*
X112205084Y-77587260D01*
X112244548Y-77513427D01*
X112268850Y-77433314D01*
X112277056Y-77350000D01*
X112277056Y-76349801D01*
X114475000Y-76349801D01*
X114475000Y-76650199D01*
X114533605Y-76944826D01*
X114648562Y-77222358D01*
X114815455Y-77472131D01*
X115027869Y-77684545D01*
X115277642Y-77851438D01*
X115555174Y-77966395D01*
X115849801Y-78025000D01*
X116150199Y-78025000D01*
X116444826Y-77966395D01*
X116722358Y-77851438D01*
X116972131Y-77684545D01*
X117184545Y-77472131D01*
X117351438Y-77222358D01*
X117466395Y-76944826D01*
X117525000Y-76650199D01*
X117525000Y-76349801D01*
X117466395Y-76055174D01*
X117351438Y-75777642D01*
X117184545Y-75527869D01*
X116972131Y-75315455D01*
X116722358Y-75148562D01*
X116444826Y-75033605D01*
X116150199Y-74975000D01*
X115849801Y-74975000D01*
X115555174Y-75033605D01*
X115277642Y-75148562D01*
X115027869Y-75315455D01*
X114815455Y-75527869D01*
X114648562Y-75777642D01*
X114533605Y-76055174D01*
X114475000Y-76349801D01*
X112277056Y-76349801D01*
X112277056Y-75650000D01*
X112268850Y-75566686D01*
X112244548Y-75486573D01*
X112205084Y-75412740D01*
X112151974Y-75348026D01*
X112087260Y-75294916D01*
X112013427Y-75255452D01*
X111933314Y-75231150D01*
X111850000Y-75222944D01*
X110150000Y-75222944D01*
X110066686Y-75231150D01*
X109986573Y-75255452D01*
X109912740Y-75294916D01*
X109848026Y-75348026D01*
X109794916Y-75412740D01*
X109755452Y-75486573D01*
X109731150Y-75566686D01*
X109722944Y-75650000D01*
X109722944Y-76313814D01*
X109686002Y-76128096D01*
X109589890Y-75896061D01*
X109450357Y-75687235D01*
X109272765Y-75509643D01*
X109063939Y-75370110D01*
X108831904Y-75273998D01*
X108585577Y-75225000D01*
X108334423Y-75225000D01*
X108088096Y-75273998D01*
X107856061Y-75370110D01*
X107647235Y-75509643D01*
X107469643Y-75687235D01*
X107330110Y-75896061D01*
X107233998Y-76128096D01*
X107190000Y-76349287D01*
X107146002Y-76128096D01*
X107049890Y-75896061D01*
X106910357Y-75687235D01*
X106732765Y-75509643D01*
X106523939Y-75370110D01*
X106291904Y-75273998D01*
X106045577Y-75225000D01*
X105794423Y-75225000D01*
X105548096Y-75273998D01*
X105316061Y-75370110D01*
X105107235Y-75509643D01*
X104929643Y-75687235D01*
X104790110Y-75896061D01*
X104754127Y-75982933D01*
X104715594Y-75874038D01*
X104567812Y-75625504D01*
X104374383Y-75410577D01*
X104142740Y-75237515D01*
X103881786Y-75112970D01*
X103733372Y-75067955D01*
X103505000Y-75187188D01*
X103255000Y-75187188D01*
X103026628Y-75067955D01*
X102878214Y-75112970D01*
X102617260Y-75237515D01*
X102385617Y-75410577D01*
X102192188Y-75625504D01*
X102044406Y-75874038D01*
X101947950Y-76146627D01*
X99277056Y-76146627D01*
X99277056Y-75650000D01*
X99268850Y-75566686D01*
X99244548Y-75486573D01*
X99205084Y-75412740D01*
X99151974Y-75348026D01*
X99087260Y-75294916D01*
X99013427Y-75255452D01*
X98933314Y-75231150D01*
X98850000Y-75222944D01*
X97150000Y-75222944D01*
X97066686Y-75231150D01*
X96986573Y-75255452D01*
X96912740Y-75294916D01*
X96848026Y-75348026D01*
X96794916Y-75412740D01*
X96755452Y-75486573D01*
X96731150Y-75566686D01*
X96722944Y-75650000D01*
X96722944Y-76313814D01*
X96686002Y-76128096D01*
X96589890Y-75896061D01*
X96450357Y-75687235D01*
X96272765Y-75509643D01*
X96063939Y-75370110D01*
X95831904Y-75273998D01*
X95585577Y-75225000D01*
X95334423Y-75225000D01*
X95088096Y-75273998D01*
X94856061Y-75370110D01*
X94647235Y-75509643D01*
X94469643Y-75687235D01*
X94330110Y-75896061D01*
X94233998Y-76128096D01*
X94190000Y-76349287D01*
X94146002Y-76128096D01*
X94049890Y-75896061D01*
X93910357Y-75687235D01*
X93732765Y-75509643D01*
X93523939Y-75370110D01*
X93291904Y-75273998D01*
X93045577Y-75225000D01*
X92794423Y-75225000D01*
X92548096Y-75273998D01*
X92316061Y-75370110D01*
X92107235Y-75509643D01*
X91929643Y-75687235D01*
X91790110Y-75896061D01*
X91754127Y-75982933D01*
X91715594Y-75874038D01*
X91567812Y-75625504D01*
X91374383Y-75410577D01*
X91142740Y-75237515D01*
X90881786Y-75112970D01*
X90733372Y-75067955D01*
X90505000Y-75187188D01*
X90255000Y-75187188D01*
X90026628Y-75067955D01*
X89878214Y-75112970D01*
X89617260Y-75237515D01*
X89385617Y-75410577D01*
X89192188Y-75625504D01*
X89044406Y-75874038D01*
X88947950Y-76146627D01*
X86484587Y-76146627D01*
X86466395Y-76055174D01*
X86351438Y-75777642D01*
X86184545Y-75527869D01*
X85972131Y-75315455D01*
X85722358Y-75148562D01*
X85444826Y-75033605D01*
X85150199Y-74975000D01*
X84849801Y-74975000D01*
X84555174Y-75033605D01*
X84277642Y-75148562D01*
X84027869Y-75315455D01*
X83815455Y-75527869D01*
X83648562Y-75777642D01*
X83533605Y-76055174D01*
X83475000Y-76349801D01*
X82466884Y-76349801D01*
X82500681Y-76005124D01*
X82644403Y-75529094D01*
X82877850Y-75090043D01*
X83192125Y-74704704D01*
X83575266Y-74387742D01*
X84012670Y-74151239D01*
X84487684Y-74004197D01*
X85003335Y-73950000D01*
X115977994Y-73950000D01*
X116494876Y-74000681D01*
%TA.AperFunction,Conductor*%
D17*
G36*
X116494876Y-74000681D02*
G01*
X116970906Y-74144403D01*
X117409957Y-74377850D01*
X117795296Y-74692125D01*
X118112258Y-75075266D01*
X118348761Y-75512670D01*
X118495803Y-75987684D01*
X118550001Y-76503344D01*
X118550001Y-82993033D01*
X118485528Y-82914472D01*
X118333258Y-82789508D01*
X118159535Y-82696651D01*
X117971034Y-82639470D01*
X117824120Y-82625000D01*
X117075880Y-82625000D01*
X116928966Y-82639470D01*
X116740465Y-82696651D01*
X116566742Y-82789508D01*
X116414472Y-82914472D01*
X116289508Y-83066742D01*
X116196651Y-83240465D01*
X116139470Y-83428966D01*
X116120162Y-83625000D01*
X116139470Y-83821034D01*
X116196651Y-84009535D01*
X116289508Y-84183258D01*
X116414472Y-84335528D01*
X116566742Y-84460492D01*
X116740465Y-84553349D01*
X116928966Y-84610530D01*
X117075880Y-84625000D01*
X117824120Y-84625000D01*
X117971034Y-84610530D01*
X118159535Y-84553349D01*
X118333258Y-84460492D01*
X118485528Y-84335528D01*
X118550001Y-84256967D01*
X118550000Y-90743032D01*
X118485528Y-90664472D01*
X118333258Y-90539508D01*
X118159535Y-90446651D01*
X117971034Y-90389470D01*
X117824120Y-90375000D01*
X117075880Y-90375000D01*
X116928966Y-90389470D01*
X116740465Y-90446651D01*
X116566742Y-90539508D01*
X116414472Y-90664472D01*
X116289508Y-90816742D01*
X116196651Y-90990465D01*
X116139470Y-91178966D01*
X116120162Y-91375000D01*
X116139470Y-91571034D01*
X116196651Y-91759535D01*
X116289508Y-91933258D01*
X116414472Y-92085528D01*
X116566742Y-92210492D01*
X116740465Y-92303349D01*
X116928966Y-92360530D01*
X117075880Y-92375000D01*
X117824120Y-92375000D01*
X117971034Y-92360530D01*
X118159535Y-92303349D01*
X118333258Y-92210492D01*
X118485528Y-92085528D01*
X118550000Y-92006968D01*
X118550000Y-101977995D01*
X118499319Y-102494876D01*
X118355596Y-102970910D01*
X118122152Y-103409954D01*
X117807875Y-103795296D01*
X117424735Y-104112257D01*
X116987329Y-104348761D01*
X116512316Y-104495803D01*
X115996664Y-104550000D01*
X85022005Y-104550000D01*
X84505124Y-104499319D01*
X84029090Y-104355596D01*
X83590046Y-104122152D01*
X83204704Y-103807875D01*
X82887743Y-103424735D01*
X82651239Y-102987329D01*
X82504197Y-102512316D01*
X82450000Y-101996664D01*
X82450000Y-101849801D01*
X83475000Y-101849801D01*
X83475000Y-102150199D01*
X83533605Y-102444826D01*
X83648562Y-102722358D01*
X83815455Y-102972131D01*
X84027869Y-103184545D01*
X84277642Y-103351438D01*
X84555174Y-103466395D01*
X84849801Y-103525000D01*
X85150199Y-103525000D01*
X85444826Y-103466395D01*
X85722358Y-103351438D01*
X85972131Y-103184545D01*
X86184545Y-102972131D01*
X86351438Y-102722358D01*
X86466395Y-102444826D01*
X86525000Y-102150199D01*
X86525000Y-102150000D01*
X91222944Y-102150000D01*
X91222944Y-103850000D01*
X91231150Y-103933314D01*
X91255452Y-104013427D01*
X91294916Y-104087260D01*
X91348026Y-104151974D01*
X91412740Y-104205084D01*
X91486573Y-104244548D01*
X91566686Y-104268850D01*
X91650000Y-104277056D01*
X93350000Y-104277056D01*
X93433314Y-104268850D01*
X93513427Y-104244548D01*
X93587260Y-104205084D01*
X93651974Y-104151974D01*
X93705084Y-104087260D01*
X93744548Y-104013427D01*
X93768850Y-103933314D01*
X93777056Y-103850000D01*
X93777056Y-103186186D01*
X93813998Y-103371904D01*
X93910110Y-103603939D01*
X94049643Y-103812765D01*
X94227235Y-103990357D01*
X94436061Y-104129890D01*
X94668096Y-104226002D01*
X94914423Y-104275000D01*
X95165577Y-104275000D01*
X95411904Y-104226002D01*
X95643939Y-104129890D01*
X95852765Y-103990357D01*
X96030357Y-103812765D01*
X96169890Y-103603939D01*
X96266002Y-103371904D01*
X96310000Y-103150713D01*
X96353998Y-103371904D01*
X96450110Y-103603939D01*
X96589643Y-103812765D01*
X96767235Y-103990357D01*
X96976061Y-104129890D01*
X97208096Y-104226002D01*
X97454423Y-104275000D01*
X97705577Y-104275000D01*
X97951904Y-104226002D01*
X98183939Y-104129890D01*
X98392765Y-103990357D01*
X98570357Y-103812765D01*
X98709890Y-103603939D01*
X98745873Y-103517067D01*
X98784406Y-103625962D01*
X98932188Y-103874496D01*
X99125617Y-104089423D01*
X99357260Y-104262485D01*
X99618214Y-104387030D01*
X99766628Y-104432045D01*
X99995000Y-104312812D01*
X99995000Y-103125000D01*
X100245000Y-103125000D01*
X100245000Y-104312812D01*
X100473372Y-104432045D01*
X100621786Y-104387030D01*
X100882740Y-104262485D01*
X101114383Y-104089423D01*
X101307812Y-103874496D01*
X101455594Y-103625962D01*
X101552050Y-103353373D01*
X101433449Y-103125000D01*
X100245000Y-103125000D01*
X99995000Y-103125000D01*
X99975000Y-103125000D01*
X99975000Y-102875000D01*
X99995000Y-102875000D01*
X99995000Y-101687188D01*
X100245000Y-101687188D01*
X100245000Y-102875000D01*
X101433449Y-102875000D01*
X101552050Y-102646627D01*
X101455594Y-102374038D01*
X101307812Y-102125504D01*
X101114383Y-101910577D01*
X101033035Y-101849801D01*
X114475000Y-101849801D01*
X114475000Y-102150199D01*
X114533605Y-102444826D01*
X114648562Y-102722358D01*
X114815455Y-102972131D01*
X115027869Y-103184545D01*
X115277642Y-103351438D01*
X115555174Y-103466395D01*
X115849801Y-103525000D01*
X116150199Y-103525000D01*
X116444826Y-103466395D01*
X116722358Y-103351438D01*
X116972131Y-103184545D01*
X117184545Y-102972131D01*
X117351438Y-102722358D01*
X117466395Y-102444826D01*
X117525000Y-102150199D01*
X117525000Y-101849801D01*
X117466395Y-101555174D01*
X117351438Y-101277642D01*
X117184545Y-101027869D01*
X116972131Y-100815455D01*
X116722358Y-100648562D01*
X116444826Y-100533605D01*
X116150199Y-100475000D01*
X115849801Y-100475000D01*
X115555174Y-100533605D01*
X115277642Y-100648562D01*
X115027869Y-100815455D01*
X114815455Y-101027869D01*
X114648562Y-101277642D01*
X114533605Y-101555174D01*
X114475000Y-101849801D01*
X101033035Y-101849801D01*
X100882740Y-101737515D01*
X100621786Y-101612970D01*
X100473372Y-101567955D01*
X100245000Y-101687188D01*
X99995000Y-101687188D01*
X99766628Y-101567955D01*
X99618214Y-101612970D01*
X99357260Y-101737515D01*
X99125617Y-101910577D01*
X98932188Y-102125504D01*
X98784406Y-102374038D01*
X98745873Y-102482933D01*
X98709890Y-102396061D01*
X98570357Y-102187235D01*
X98392765Y-102009643D01*
X98183939Y-101870110D01*
X97951904Y-101773998D01*
X97705577Y-101725000D01*
X97454423Y-101725000D01*
X97208096Y-101773998D01*
X96976061Y-101870110D01*
X96767235Y-102009643D01*
X96589643Y-102187235D01*
X96450110Y-102396061D01*
X96353998Y-102628096D01*
X96310000Y-102849287D01*
X96266002Y-102628096D01*
X96169890Y-102396061D01*
X96030357Y-102187235D01*
X95852765Y-102009643D01*
X95643939Y-101870110D01*
X95411904Y-101773998D01*
X95165577Y-101725000D01*
X94914423Y-101725000D01*
X94668096Y-101773998D01*
X94436061Y-101870110D01*
X94227235Y-102009643D01*
X94049643Y-102187235D01*
X93910110Y-102396061D01*
X93813998Y-102628096D01*
X93777056Y-102813814D01*
X93777056Y-102150000D01*
X93768850Y-102066686D01*
X93744548Y-101986573D01*
X93705084Y-101912740D01*
X93651974Y-101848026D01*
X93587260Y-101794916D01*
X93513427Y-101755452D01*
X93433314Y-101731150D01*
X93350000Y-101722944D01*
X91650000Y-101722944D01*
X91566686Y-101731150D01*
X91486573Y-101755452D01*
X91412740Y-101794916D01*
X91348026Y-101848026D01*
X91294916Y-101912740D01*
X91255452Y-101986573D01*
X91231150Y-102066686D01*
X91222944Y-102150000D01*
X86525000Y-102150000D01*
X86525000Y-101849801D01*
X86466395Y-101555174D01*
X86351438Y-101277642D01*
X86184545Y-101027869D01*
X85972131Y-100815455D01*
X85722358Y-100648562D01*
X85444826Y-100533605D01*
X85150199Y-100475000D01*
X84849801Y-100475000D01*
X84555174Y-100533605D01*
X84277642Y-100648562D01*
X84027869Y-100815455D01*
X83815455Y-101027869D01*
X83648562Y-101277642D01*
X83533605Y-101555174D01*
X83475000Y-101849801D01*
X82450000Y-101849801D01*
X82450000Y-100168745D01*
X92375000Y-100168745D01*
X92375000Y-100331255D01*
X92406704Y-100490644D01*
X92468894Y-100640784D01*
X92559181Y-100775907D01*
X92674093Y-100890819D01*
X92809216Y-100981106D01*
X92959356Y-101043296D01*
X93118745Y-101075000D01*
X93281255Y-101075000D01*
X93440644Y-101043296D01*
X93590784Y-100981106D01*
X93725907Y-100890819D01*
X93741726Y-100875000D01*
X94500248Y-100875000D01*
X94584216Y-100931106D01*
X94734356Y-100993296D01*
X94893745Y-101025000D01*
X95056255Y-101025000D01*
X95215644Y-100993296D01*
X95365784Y-100931106D01*
X95500907Y-100840819D01*
X95615819Y-100725907D01*
X95706106Y-100590784D01*
X95768296Y-100440644D01*
X95800000Y-100281255D01*
X95800000Y-100118745D01*
X95768296Y-99959356D01*
X95706106Y-99809216D01*
X95615819Y-99674093D01*
X95500907Y-99559181D01*
X95365784Y-99468894D01*
X95215644Y-99406704D01*
X95056255Y-99375000D01*
X94893745Y-99375000D01*
X94734356Y-99406704D01*
X94584216Y-99468894D01*
X94500248Y-99525000D01*
X93599922Y-99525000D01*
X93590784Y-99518894D01*
X93440644Y-99456704D01*
X93281255Y-99425000D01*
X93118745Y-99425000D01*
X92959356Y-99456704D01*
X92809216Y-99518894D01*
X92674093Y-99609181D01*
X92559181Y-99724093D01*
X92468894Y-99859216D01*
X92406704Y-100009356D01*
X92375000Y-100168745D01*
X82450000Y-100168745D01*
X82450000Y-96918745D01*
X95675000Y-96918745D01*
X95675000Y-97081255D01*
X95706704Y-97240644D01*
X95768894Y-97390784D01*
X95859181Y-97525907D01*
X95974093Y-97640819D01*
X96109216Y-97731106D01*
X96259356Y-97793296D01*
X96418745Y-97825000D01*
X96581255Y-97825000D01*
X96740644Y-97793296D01*
X96890784Y-97731106D01*
X96974752Y-97675000D01*
X97775248Y-97675000D01*
X97859216Y-97731106D01*
X98009356Y-97793296D01*
X98168745Y-97825000D01*
X98331255Y-97825000D01*
X98490644Y-97793296D01*
X98640784Y-97731106D01*
X98775907Y-97640819D01*
X98890819Y-97525907D01*
X98981106Y-97390784D01*
X99043296Y-97240644D01*
X99075000Y-97081255D01*
X99075000Y-96918745D01*
X99043296Y-96759356D01*
X98981106Y-96609216D01*
X98890819Y-96474093D01*
X98775907Y-96359181D01*
X98640784Y-96268894D01*
X98490644Y-96206704D01*
X98331255Y-96175000D01*
X98168745Y-96175000D01*
X98009356Y-96206704D01*
X97859216Y-96268894D01*
X97775248Y-96325000D01*
X96974752Y-96325000D01*
X96890784Y-96268894D01*
X96740644Y-96206704D01*
X96581255Y-96175000D01*
X96418745Y-96175000D01*
X96259356Y-96206704D01*
X96109216Y-96268894D01*
X95974093Y-96359181D01*
X95859181Y-96474093D01*
X95768894Y-96609216D01*
X95706704Y-96759356D01*
X95675000Y-96918745D01*
X82450000Y-96918745D01*
X82450000Y-91225000D01*
X112219436Y-91225000D01*
X112241640Y-91450439D01*
X112307398Y-91667215D01*
X112414184Y-91866997D01*
X112557893Y-92042107D01*
X112733003Y-92185816D01*
X112932785Y-92292602D01*
X113149561Y-92358360D01*
X113318508Y-92375000D01*
X113981492Y-92375000D01*
X114150439Y-92358360D01*
X114367215Y-92292602D01*
X114566997Y-92185816D01*
X114742107Y-92042107D01*
X114885816Y-91866997D01*
X114992602Y-91667215D01*
X115058360Y-91450439D01*
X115080564Y-91225000D01*
X115058360Y-90999561D01*
X114992602Y-90782785D01*
X114987783Y-90773770D01*
X115090784Y-90731106D01*
X115225907Y-90640819D01*
X115340819Y-90525907D01*
X115431106Y-90390784D01*
X115493296Y-90240644D01*
X115525000Y-90081255D01*
X115525000Y-89918745D01*
X115493296Y-89759356D01*
X115431106Y-89609216D01*
X115340819Y-89474093D01*
X115225907Y-89359181D01*
X115090784Y-89268894D01*
X114940644Y-89206704D01*
X114781255Y-89175000D01*
X114618745Y-89175000D01*
X114459356Y-89206704D01*
X114309216Y-89268894D01*
X114174093Y-89359181D01*
X114059181Y-89474093D01*
X113968894Y-89609216D01*
X113906704Y-89759356D01*
X113875000Y-89918745D01*
X113875000Y-90075000D01*
X113318508Y-90075000D01*
X113149561Y-90091640D01*
X112932785Y-90157398D01*
X112733003Y-90264184D01*
X112557893Y-90407893D01*
X112414184Y-90583003D01*
X112307398Y-90782785D01*
X112241640Y-90999561D01*
X112219436Y-91225000D01*
X82450000Y-91225000D01*
X82450000Y-84913820D01*
X83795000Y-84913820D01*
X83795000Y-85086180D01*
X83828626Y-85255228D01*
X83894585Y-85414468D01*
X83990343Y-85557780D01*
X84112220Y-85679657D01*
X84255532Y-85775415D01*
X84414772Y-85841374D01*
X84583820Y-85875000D01*
X84756180Y-85875000D01*
X84925228Y-85841374D01*
X85084468Y-85775415D01*
X85227780Y-85679657D01*
X85349657Y-85557780D01*
X85445415Y-85414468D01*
X85511374Y-85255228D01*
X85545000Y-85086180D01*
X85545000Y-84913820D01*
X85511374Y-84744772D01*
X85445415Y-84585532D01*
X85349657Y-84442220D01*
X85227780Y-84320343D01*
X85084468Y-84224585D01*
X84925228Y-84158626D01*
X84756180Y-84125000D01*
X84583820Y-84125000D01*
X84414772Y-84158626D01*
X84255532Y-84224585D01*
X84112220Y-84320343D01*
X83990343Y-84442220D01*
X83894585Y-84585532D01*
X83828626Y-84744772D01*
X83795000Y-84913820D01*
X82450000Y-84913820D01*
X82450000Y-83775000D01*
X112219436Y-83775000D01*
X112241640Y-84000439D01*
X112307398Y-84217215D01*
X112414184Y-84416997D01*
X112557893Y-84592107D01*
X112733003Y-84735816D01*
X112932785Y-84842602D01*
X113149561Y-84908360D01*
X113318508Y-84925000D01*
X113875000Y-84925000D01*
X113875000Y-85081255D01*
X113906704Y-85240644D01*
X113968894Y-85390784D01*
X114059181Y-85525907D01*
X114174093Y-85640819D01*
X114309216Y-85731106D01*
X114459356Y-85793296D01*
X114618745Y-85825000D01*
X114781255Y-85825000D01*
X114940644Y-85793296D01*
X115090784Y-85731106D01*
X115225907Y-85640819D01*
X115340819Y-85525907D01*
X115431106Y-85390784D01*
X115493296Y-85240644D01*
X115525000Y-85081255D01*
X115525000Y-84918745D01*
X115493296Y-84759356D01*
X115431106Y-84609216D01*
X115340819Y-84474093D01*
X115225907Y-84359181D01*
X115090784Y-84268894D01*
X114987783Y-84226230D01*
X114992602Y-84217215D01*
X115058360Y-84000439D01*
X115080564Y-83775000D01*
X115058360Y-83549561D01*
X114992602Y-83332785D01*
X114885816Y-83133003D01*
X114742107Y-82957893D01*
X114566997Y-82814184D01*
X114367215Y-82707398D01*
X114150439Y-82641640D01*
X113981492Y-82625000D01*
X113318508Y-82625000D01*
X113149561Y-82641640D01*
X112932785Y-82707398D01*
X112733003Y-82814184D01*
X112557893Y-82957893D01*
X112414184Y-83133003D01*
X112307398Y-83332785D01*
X112241640Y-83549561D01*
X112219436Y-83775000D01*
X82450000Y-83775000D01*
X82450000Y-81913820D01*
X83795000Y-81913820D01*
X83795000Y-82086180D01*
X83828626Y-82255228D01*
X83894585Y-82414468D01*
X83990343Y-82557780D01*
X84112220Y-82679657D01*
X84255532Y-82775415D01*
X84414772Y-82841374D01*
X84583820Y-82875000D01*
X84756180Y-82875000D01*
X84925228Y-82841374D01*
X85084468Y-82775415D01*
X85227780Y-82679657D01*
X85349657Y-82557780D01*
X85445415Y-82414468D01*
X85511374Y-82255228D01*
X85545000Y-82086180D01*
X85545000Y-81913820D01*
X85511374Y-81744772D01*
X85445415Y-81585532D01*
X85349657Y-81442220D01*
X85227780Y-81320343D01*
X85084468Y-81224585D01*
X84925228Y-81158626D01*
X84756180Y-81125000D01*
X84583820Y-81125000D01*
X84414772Y-81158626D01*
X84255532Y-81224585D01*
X84112220Y-81320343D01*
X83990343Y-81442220D01*
X83894585Y-81585532D01*
X83828626Y-81744772D01*
X83795000Y-81913820D01*
X82450000Y-81913820D01*
X82450000Y-80693745D01*
X87625000Y-80693745D01*
X87625000Y-80856255D01*
X87656704Y-81015644D01*
X87718894Y-81165784D01*
X87809181Y-81300907D01*
X87924093Y-81415819D01*
X88059216Y-81506106D01*
X88209356Y-81568296D01*
X88368745Y-81600000D01*
X88531255Y-81600000D01*
X88690644Y-81568296D01*
X88840784Y-81506106D01*
X88924752Y-81450000D01*
X89725248Y-81450000D01*
X89809216Y-81506106D01*
X89959356Y-81568296D01*
X90118745Y-81600000D01*
X90281255Y-81600000D01*
X90440644Y-81568296D01*
X90590784Y-81506106D01*
X90725907Y-81415819D01*
X90840819Y-81300907D01*
X90931106Y-81165784D01*
X90993296Y-81015644D01*
X91025000Y-80856255D01*
X91025000Y-80693745D01*
X90993296Y-80534356D01*
X90931106Y-80384216D01*
X90840819Y-80249093D01*
X90725907Y-80134181D01*
X90590784Y-80043894D01*
X90440644Y-79981704D01*
X90281255Y-79950000D01*
X90118745Y-79950000D01*
X89959356Y-79981704D01*
X89809216Y-80043894D01*
X89725248Y-80100000D01*
X88924752Y-80100000D01*
X88840784Y-80043894D01*
X88690644Y-79981704D01*
X88531255Y-79950000D01*
X88368745Y-79950000D01*
X88209356Y-79981704D01*
X88059216Y-80043894D01*
X87924093Y-80134181D01*
X87809181Y-80249093D01*
X87718894Y-80384216D01*
X87656704Y-80534356D01*
X87625000Y-80693745D01*
X82450000Y-80693745D01*
X82450000Y-76522006D01*
X82466884Y-76349801D01*
X83475000Y-76349801D01*
X83475000Y-76650199D01*
X83533605Y-76944826D01*
X83648562Y-77222358D01*
X83815455Y-77472131D01*
X84027869Y-77684545D01*
X84277642Y-77851438D01*
X84555174Y-77966395D01*
X84849801Y-78025000D01*
X85150199Y-78025000D01*
X85444826Y-77966395D01*
X85722358Y-77851438D01*
X85972131Y-77684545D01*
X86184545Y-77472131D01*
X86351438Y-77222358D01*
X86466395Y-76944826D01*
X86484586Y-76853373D01*
X88947950Y-76853373D01*
X89044406Y-77125962D01*
X89192188Y-77374496D01*
X89385617Y-77589423D01*
X89617260Y-77762485D01*
X89878214Y-77887030D01*
X90026628Y-77932045D01*
X90255000Y-77812812D01*
X90255000Y-76625000D01*
X89066551Y-76625000D01*
X88947950Y-76853373D01*
X86484586Y-76853373D01*
X86525000Y-76650199D01*
X86525000Y-76349801D01*
X86484587Y-76146627D01*
X88947950Y-76146627D01*
X89066551Y-76375000D01*
X90255000Y-76375000D01*
X90255000Y-75187188D01*
X90505000Y-75187188D01*
X90505000Y-76375000D01*
X90525000Y-76375000D01*
X90525000Y-76625000D01*
X90505000Y-76625000D01*
X90505000Y-77812812D01*
X90733372Y-77932045D01*
X90881786Y-77887030D01*
X91142740Y-77762485D01*
X91374383Y-77589423D01*
X91567812Y-77374496D01*
X91715594Y-77125962D01*
X91754127Y-77017067D01*
X91790110Y-77103939D01*
X91929643Y-77312765D01*
X92107235Y-77490357D01*
X92316061Y-77629890D01*
X92548096Y-77726002D01*
X92794423Y-77775000D01*
X93045577Y-77775000D01*
X93291904Y-77726002D01*
X93523939Y-77629890D01*
X93732765Y-77490357D01*
X93910357Y-77312765D01*
X94049890Y-77103939D01*
X94146002Y-76871904D01*
X94190000Y-76650713D01*
X94233998Y-76871904D01*
X94330110Y-77103939D01*
X94469643Y-77312765D01*
X94647235Y-77490357D01*
X94856061Y-77629890D01*
X95088096Y-77726002D01*
X95334423Y-77775000D01*
X95585577Y-77775000D01*
X95831904Y-77726002D01*
X96063939Y-77629890D01*
X96272765Y-77490357D01*
X96450357Y-77312765D01*
X96589890Y-77103939D01*
X96686002Y-76871904D01*
X96722944Y-76686186D01*
X96722944Y-77350000D01*
X96731150Y-77433314D01*
X96755452Y-77513427D01*
X96794916Y-77587260D01*
X96848026Y-77651974D01*
X96912740Y-77705084D01*
X96986573Y-77744548D01*
X97066686Y-77768850D01*
X97150000Y-77777056D01*
X98850000Y-77777056D01*
X98933314Y-77768850D01*
X99013427Y-77744548D01*
X99087260Y-77705084D01*
X99151974Y-77651974D01*
X99205084Y-77587260D01*
X99244548Y-77513427D01*
X99268850Y-77433314D01*
X99277056Y-77350000D01*
X99277056Y-76853373D01*
X101947950Y-76853373D01*
X102044406Y-77125962D01*
X102192188Y-77374496D01*
X102385617Y-77589423D01*
X102617260Y-77762485D01*
X102878214Y-77887030D01*
X103026628Y-77932045D01*
X103255000Y-77812812D01*
X103255000Y-76625000D01*
X102066551Y-76625000D01*
X101947950Y-76853373D01*
X99277056Y-76853373D01*
X99277056Y-76146627D01*
X101947950Y-76146627D01*
X102066551Y-76375000D01*
X103255000Y-76375000D01*
X103255000Y-75187188D01*
X103505000Y-75187188D01*
X103505000Y-76375000D01*
X103525000Y-76375000D01*
X103525000Y-76625000D01*
X103505000Y-76625000D01*
X103505000Y-77812812D01*
X103733372Y-77932045D01*
X103881786Y-77887030D01*
X104142740Y-77762485D01*
X104374383Y-77589423D01*
X104567812Y-77374496D01*
X104715594Y-77125962D01*
X104754127Y-77017067D01*
X104790110Y-77103939D01*
X104929643Y-77312765D01*
X105107235Y-77490357D01*
X105316061Y-77629890D01*
X105548096Y-77726002D01*
X105794423Y-77775000D01*
X106045577Y-77775000D01*
X106291904Y-77726002D01*
X106523939Y-77629890D01*
X106732765Y-77490357D01*
X106910357Y-77312765D01*
X107049890Y-77103939D01*
X107146002Y-76871904D01*
X107190000Y-76650713D01*
X107233998Y-76871904D01*
X107330110Y-77103939D01*
X107469643Y-77312765D01*
X107647235Y-77490357D01*
X107856061Y-77629890D01*
X108088096Y-77726002D01*
X108334423Y-77775000D01*
X108585577Y-77775000D01*
X108831904Y-77726002D01*
X109063939Y-77629890D01*
X109272765Y-77490357D01*
X109450357Y-77312765D01*
X109589890Y-77103939D01*
X109686002Y-76871904D01*
X109722944Y-76686186D01*
X109722944Y-77350000D01*
X109731150Y-77433314D01*
X109755452Y-77513427D01*
X109794916Y-77587260D01*
X109848026Y-77651974D01*
X109912740Y-77705084D01*
X109986573Y-77744548D01*
X110066686Y-77768850D01*
X110150000Y-77777056D01*
X111850000Y-77777056D01*
X111933314Y-77768850D01*
X112013427Y-77744548D01*
X112087260Y-77705084D01*
X112151974Y-77651974D01*
X112205084Y-77587260D01*
X112244548Y-77513427D01*
X112268850Y-77433314D01*
X112277056Y-77350000D01*
X112277056Y-76349801D01*
X114475000Y-76349801D01*
X114475000Y-76650199D01*
X114533605Y-76944826D01*
X114648562Y-77222358D01*
X114815455Y-77472131D01*
X115027869Y-77684545D01*
X115277642Y-77851438D01*
X115555174Y-77966395D01*
X115849801Y-78025000D01*
X116150199Y-78025000D01*
X116444826Y-77966395D01*
X116722358Y-77851438D01*
X116972131Y-77684545D01*
X117184545Y-77472131D01*
X117351438Y-77222358D01*
X117466395Y-76944826D01*
X117525000Y-76650199D01*
X117525000Y-76349801D01*
X117466395Y-76055174D01*
X117351438Y-75777642D01*
X117184545Y-75527869D01*
X116972131Y-75315455D01*
X116722358Y-75148562D01*
X116444826Y-75033605D01*
X116150199Y-74975000D01*
X115849801Y-74975000D01*
X115555174Y-75033605D01*
X115277642Y-75148562D01*
X115027869Y-75315455D01*
X114815455Y-75527869D01*
X114648562Y-75777642D01*
X114533605Y-76055174D01*
X114475000Y-76349801D01*
X112277056Y-76349801D01*
X112277056Y-75650000D01*
X112268850Y-75566686D01*
X112244548Y-75486573D01*
X112205084Y-75412740D01*
X112151974Y-75348026D01*
X112087260Y-75294916D01*
X112013427Y-75255452D01*
X111933314Y-75231150D01*
X111850000Y-75222944D01*
X110150000Y-75222944D01*
X110066686Y-75231150D01*
X109986573Y-75255452D01*
X109912740Y-75294916D01*
X109848026Y-75348026D01*
X109794916Y-75412740D01*
X109755452Y-75486573D01*
X109731150Y-75566686D01*
X109722944Y-75650000D01*
X109722944Y-76313814D01*
X109686002Y-76128096D01*
X109589890Y-75896061D01*
X109450357Y-75687235D01*
X109272765Y-75509643D01*
X109063939Y-75370110D01*
X108831904Y-75273998D01*
X108585577Y-75225000D01*
X108334423Y-75225000D01*
X108088096Y-75273998D01*
X107856061Y-75370110D01*
X107647235Y-75509643D01*
X107469643Y-75687235D01*
X107330110Y-75896061D01*
X107233998Y-76128096D01*
X107190000Y-76349287D01*
X107146002Y-76128096D01*
X107049890Y-75896061D01*
X106910357Y-75687235D01*
X106732765Y-75509643D01*
X106523939Y-75370110D01*
X106291904Y-75273998D01*
X106045577Y-75225000D01*
X105794423Y-75225000D01*
X105548096Y-75273998D01*
X105316061Y-75370110D01*
X105107235Y-75509643D01*
X104929643Y-75687235D01*
X104790110Y-75896061D01*
X104754127Y-75982933D01*
X104715594Y-75874038D01*
X104567812Y-75625504D01*
X104374383Y-75410577D01*
X104142740Y-75237515D01*
X103881786Y-75112970D01*
X103733372Y-75067955D01*
X103505000Y-75187188D01*
X103255000Y-75187188D01*
X103026628Y-75067955D01*
X102878214Y-75112970D01*
X102617260Y-75237515D01*
X102385617Y-75410577D01*
X102192188Y-75625504D01*
X102044406Y-75874038D01*
X101947950Y-76146627D01*
X99277056Y-76146627D01*
X99277056Y-75650000D01*
X99268850Y-75566686D01*
X99244548Y-75486573D01*
X99205084Y-75412740D01*
X99151974Y-75348026D01*
X99087260Y-75294916D01*
X99013427Y-75255452D01*
X98933314Y-75231150D01*
X98850000Y-75222944D01*
X97150000Y-75222944D01*
X97066686Y-75231150D01*
X96986573Y-75255452D01*
X96912740Y-75294916D01*
X96848026Y-75348026D01*
X96794916Y-75412740D01*
X96755452Y-75486573D01*
X96731150Y-75566686D01*
X96722944Y-75650000D01*
X96722944Y-76313814D01*
X96686002Y-76128096D01*
X96589890Y-75896061D01*
X96450357Y-75687235D01*
X96272765Y-75509643D01*
X96063939Y-75370110D01*
X95831904Y-75273998D01*
X95585577Y-75225000D01*
X95334423Y-75225000D01*
X95088096Y-75273998D01*
X94856061Y-75370110D01*
X94647235Y-75509643D01*
X94469643Y-75687235D01*
X94330110Y-75896061D01*
X94233998Y-76128096D01*
X94190000Y-76349287D01*
X94146002Y-76128096D01*
X94049890Y-75896061D01*
X93910357Y-75687235D01*
X93732765Y-75509643D01*
X93523939Y-75370110D01*
X93291904Y-75273998D01*
X93045577Y-75225000D01*
X92794423Y-75225000D01*
X92548096Y-75273998D01*
X92316061Y-75370110D01*
X92107235Y-75509643D01*
X91929643Y-75687235D01*
X91790110Y-75896061D01*
X91754127Y-75982933D01*
X91715594Y-75874038D01*
X91567812Y-75625504D01*
X91374383Y-75410577D01*
X91142740Y-75237515D01*
X90881786Y-75112970D01*
X90733372Y-75067955D01*
X90505000Y-75187188D01*
X90255000Y-75187188D01*
X90026628Y-75067955D01*
X89878214Y-75112970D01*
X89617260Y-75237515D01*
X89385617Y-75410577D01*
X89192188Y-75625504D01*
X89044406Y-75874038D01*
X88947950Y-76146627D01*
X86484587Y-76146627D01*
X86466395Y-76055174D01*
X86351438Y-75777642D01*
X86184545Y-75527869D01*
X85972131Y-75315455D01*
X85722358Y-75148562D01*
X85444826Y-75033605D01*
X85150199Y-74975000D01*
X84849801Y-74975000D01*
X84555174Y-75033605D01*
X84277642Y-75148562D01*
X84027869Y-75315455D01*
X83815455Y-75527869D01*
X83648562Y-75777642D01*
X83533605Y-76055174D01*
X83475000Y-76349801D01*
X82466884Y-76349801D01*
X82500681Y-76005124D01*
X82644403Y-75529094D01*
X82877850Y-75090043D01*
X83192125Y-74704704D01*
X83575266Y-74387742D01*
X84012670Y-74151239D01*
X84487684Y-74004197D01*
X85003335Y-73950000D01*
X115977994Y-73950000D01*
X116494876Y-74000681D01*
G37*
%TD.AperFunction*%
%TD*%
M02*
