%TF.GenerationSoftware,KiCad,Pcbnew,(5.1.10)-1*%
%TF.CreationDate,2025-06-17T20:32:58+05:30*%
%TF.ProjectId,STM32_Clone,53544d33-325f-4436-9c6f-6e652e6b6963,rev?*%
%TF.SameCoordinates,Original*%
%TF.FileFunction,Copper,L1,Top*%
%TF.FilePolarity,Positive*%
%FSLAX46Y46*%
G04 Gerber Fmt 4.6, Leading zero omitted, Abs format (unit mm)*
G04 Created by KiCad (PCBNEW (5.1.10)-1) date 2025-06-17 20:32:58*
%MOMM*%
%LPD*%
G01*
G04 APERTURE LIST*
%TA.AperFunction,SMDPad,CuDef*%
%ADD10R,1.300000X0.450000*%
%TD*%
%TA.AperFunction,ComponentPad*%
%ADD11O,2.000000X1.450000*%
%TD*%
%TA.AperFunction,ComponentPad*%
%ADD12O,1.800000X1.150000*%
%TD*%
%TA.AperFunction,SMDPad,CuDef*%
%ADD13R,0.800000X1.000000*%
%TD*%
%TA.AperFunction,SMDPad,CuDef*%
%ADD14R,1.500000X0.700000*%
%TD*%
%TA.AperFunction,SMDPad,CuDef*%
%ADD15R,1.200000X1.400000*%
%TD*%
%TA.AperFunction,SMDPad,CuDef*%
%ADD16R,1.500000X2.000000*%
%TD*%
%TA.AperFunction,SMDPad,CuDef*%
%ADD17R,3.800000X2.000000*%
%TD*%
%TA.AperFunction,ComponentPad*%
%ADD18O,1.700000X1.700000*%
%TD*%
%TA.AperFunction,ComponentPad*%
%ADD19R,1.700000X1.700000*%
%TD*%
%TA.AperFunction,ViaPad*%
%ADD20C,0.800000*%
%TD*%
%TA.AperFunction,Conductor*%
%ADD21C,0.300000*%
%TD*%
%TA.AperFunction,Conductor*%
%ADD22C,0.500000*%
%TD*%
%TA.AperFunction,Conductor*%
%ADD23C,0.250000*%
%TD*%
%TA.AperFunction,Conductor*%
%ADD24C,0.200000*%
%TD*%
%TA.AperFunction,Conductor*%
%ADD25C,0.100000*%
%TD*%
G04 APERTURE END LIST*
D10*
%TO.P,J1,1*%
%TO.N,VBUS*%
X113600000Y-88800000D03*
%TO.P,J1,2*%
%TO.N,/USB_D-*%
X113600000Y-88150000D03*
%TO.P,J1,3*%
%TO.N,/USB_D+*%
X113600000Y-87500000D03*
%TO.P,J1,4*%
%TO.N,Net-(J1-Pad4)*%
X113600000Y-86850000D03*
%TO.P,J1,5*%
%TO.N,GND*%
X113600000Y-86200000D03*
D11*
%TO.P,J1,6*%
%TO.N,Net-(J1-Pad6)*%
X113650000Y-91225000D03*
X113650000Y-83775000D03*
D12*
X117450000Y-91375000D03*
X117450000Y-83625000D03*
%TD*%
D13*
%TO.P,SW1,*%
%TO.N,*%
X85780000Y-79850000D03*
X85780000Y-87150000D03*
X83570000Y-87150000D03*
X83570000Y-79850000D03*
D14*
%TO.P,SW1,3*%
%TO.N,+3V3*%
X86430000Y-85750000D03*
%TO.P,SW1,2*%
%TO.N,/SW_BOOT0*%
X86430000Y-84250000D03*
%TO.P,SW1,1*%
%TO.N,GND*%
X86430000Y-81250000D03*
%TD*%
D15*
%TO.P,Y1,4*%
%TO.N,GND*%
X86350000Y-89900000D03*
%TO.P,Y1,3*%
%TO.N,/HSE_OUT*%
X86350000Y-92100000D03*
%TO.P,Y1,2*%
%TO.N,GND*%
X84650000Y-92100000D03*
%TO.P,Y1,1*%
%TO.N,/HSE_IN*%
X84650000Y-89900000D03*
%TD*%
%TO.P,U2,48*%
%TO.N,+3V3*%
%TA.AperFunction,SMDPad,CuDef*%
G36*
G01*
X93100000Y-86500000D02*
X93100000Y-85175000D01*
G75*
G02*
X93175000Y-85100000I75000J0D01*
G01*
X93325000Y-85100000D01*
G75*
G02*
X93400000Y-85175000I0J-75000D01*
G01*
X93400000Y-86500000D01*
G75*
G02*
X93325000Y-86575000I-75000J0D01*
G01*
X93175000Y-86575000D01*
G75*
G02*
X93100000Y-86500000I0J75000D01*
G01*
G37*
%TD.AperFunction*%
%TO.P,U2,47*%
%TO.N,GND*%
%TA.AperFunction,SMDPad,CuDef*%
G36*
G01*
X93600000Y-86500000D02*
X93600000Y-85175000D01*
G75*
G02*
X93675000Y-85100000I75000J0D01*
G01*
X93825000Y-85100000D01*
G75*
G02*
X93900000Y-85175000I0J-75000D01*
G01*
X93900000Y-86500000D01*
G75*
G02*
X93825000Y-86575000I-75000J0D01*
G01*
X93675000Y-86575000D01*
G75*
G02*
X93600000Y-86500000I0J75000D01*
G01*
G37*
%TD.AperFunction*%
%TO.P,U2,46*%
%TO.N,Net-(U2-Pad46)*%
%TA.AperFunction,SMDPad,CuDef*%
G36*
G01*
X94100000Y-86500000D02*
X94100000Y-85175000D01*
G75*
G02*
X94175000Y-85100000I75000J0D01*
G01*
X94325000Y-85100000D01*
G75*
G02*
X94400000Y-85175000I0J-75000D01*
G01*
X94400000Y-86500000D01*
G75*
G02*
X94325000Y-86575000I-75000J0D01*
G01*
X94175000Y-86575000D01*
G75*
G02*
X94100000Y-86500000I0J75000D01*
G01*
G37*
%TD.AperFunction*%
%TO.P,U2,45*%
%TO.N,Net-(U2-Pad45)*%
%TA.AperFunction,SMDPad,CuDef*%
G36*
G01*
X94600000Y-86500000D02*
X94600000Y-85175000D01*
G75*
G02*
X94675000Y-85100000I75000J0D01*
G01*
X94825000Y-85100000D01*
G75*
G02*
X94900000Y-85175000I0J-75000D01*
G01*
X94900000Y-86500000D01*
G75*
G02*
X94825000Y-86575000I-75000J0D01*
G01*
X94675000Y-86575000D01*
G75*
G02*
X94600000Y-86500000I0J75000D01*
G01*
G37*
%TD.AperFunction*%
%TO.P,U2,44*%
%TO.N,/BOOT0*%
%TA.AperFunction,SMDPad,CuDef*%
G36*
G01*
X95100000Y-86500000D02*
X95100000Y-85175000D01*
G75*
G02*
X95175000Y-85100000I75000J0D01*
G01*
X95325000Y-85100000D01*
G75*
G02*
X95400000Y-85175000I0J-75000D01*
G01*
X95400000Y-86500000D01*
G75*
G02*
X95325000Y-86575000I-75000J0D01*
G01*
X95175000Y-86575000D01*
G75*
G02*
X95100000Y-86500000I0J75000D01*
G01*
G37*
%TD.AperFunction*%
%TO.P,U2,43*%
%TO.N,/USART1_RX*%
%TA.AperFunction,SMDPad,CuDef*%
G36*
G01*
X95600000Y-86500000D02*
X95600000Y-85175000D01*
G75*
G02*
X95675000Y-85100000I75000J0D01*
G01*
X95825000Y-85100000D01*
G75*
G02*
X95900000Y-85175000I0J-75000D01*
G01*
X95900000Y-86500000D01*
G75*
G02*
X95825000Y-86575000I-75000J0D01*
G01*
X95675000Y-86575000D01*
G75*
G02*
X95600000Y-86500000I0J75000D01*
G01*
G37*
%TD.AperFunction*%
%TO.P,U2,42*%
%TO.N,/USART1_TX*%
%TA.AperFunction,SMDPad,CuDef*%
G36*
G01*
X96100000Y-86500000D02*
X96100000Y-85175000D01*
G75*
G02*
X96175000Y-85100000I75000J0D01*
G01*
X96325000Y-85100000D01*
G75*
G02*
X96400000Y-85175000I0J-75000D01*
G01*
X96400000Y-86500000D01*
G75*
G02*
X96325000Y-86575000I-75000J0D01*
G01*
X96175000Y-86575000D01*
G75*
G02*
X96100000Y-86500000I0J75000D01*
G01*
G37*
%TD.AperFunction*%
%TO.P,U2,41*%
%TO.N,Net-(U2-Pad41)*%
%TA.AperFunction,SMDPad,CuDef*%
G36*
G01*
X96600000Y-86500000D02*
X96600000Y-85175000D01*
G75*
G02*
X96675000Y-85100000I75000J0D01*
G01*
X96825000Y-85100000D01*
G75*
G02*
X96900000Y-85175000I0J-75000D01*
G01*
X96900000Y-86500000D01*
G75*
G02*
X96825000Y-86575000I-75000J0D01*
G01*
X96675000Y-86575000D01*
G75*
G02*
X96600000Y-86500000I0J75000D01*
G01*
G37*
%TD.AperFunction*%
%TO.P,U2,40*%
%TO.N,Net-(U2-Pad40)*%
%TA.AperFunction,SMDPad,CuDef*%
G36*
G01*
X97100000Y-86500000D02*
X97100000Y-85175000D01*
G75*
G02*
X97175000Y-85100000I75000J0D01*
G01*
X97325000Y-85100000D01*
G75*
G02*
X97400000Y-85175000I0J-75000D01*
G01*
X97400000Y-86500000D01*
G75*
G02*
X97325000Y-86575000I-75000J0D01*
G01*
X97175000Y-86575000D01*
G75*
G02*
X97100000Y-86500000I0J75000D01*
G01*
G37*
%TD.AperFunction*%
%TO.P,U2,39*%
%TO.N,Net-(U2-Pad39)*%
%TA.AperFunction,SMDPad,CuDef*%
G36*
G01*
X97600000Y-86500000D02*
X97600000Y-85175000D01*
G75*
G02*
X97675000Y-85100000I75000J0D01*
G01*
X97825000Y-85100000D01*
G75*
G02*
X97900000Y-85175000I0J-75000D01*
G01*
X97900000Y-86500000D01*
G75*
G02*
X97825000Y-86575000I-75000J0D01*
G01*
X97675000Y-86575000D01*
G75*
G02*
X97600000Y-86500000I0J75000D01*
G01*
G37*
%TD.AperFunction*%
%TO.P,U2,38*%
%TO.N,Net-(U2-Pad38)*%
%TA.AperFunction,SMDPad,CuDef*%
G36*
G01*
X98100000Y-86500000D02*
X98100000Y-85175000D01*
G75*
G02*
X98175000Y-85100000I75000J0D01*
G01*
X98325000Y-85100000D01*
G75*
G02*
X98400000Y-85175000I0J-75000D01*
G01*
X98400000Y-86500000D01*
G75*
G02*
X98325000Y-86575000I-75000J0D01*
G01*
X98175000Y-86575000D01*
G75*
G02*
X98100000Y-86500000I0J75000D01*
G01*
G37*
%TD.AperFunction*%
%TO.P,U2,37*%
%TO.N,/SWCLK*%
%TA.AperFunction,SMDPad,CuDef*%
G36*
G01*
X98600000Y-86500000D02*
X98600000Y-85175000D01*
G75*
G02*
X98675000Y-85100000I75000J0D01*
G01*
X98825000Y-85100000D01*
G75*
G02*
X98900000Y-85175000I0J-75000D01*
G01*
X98900000Y-86500000D01*
G75*
G02*
X98825000Y-86575000I-75000J0D01*
G01*
X98675000Y-86575000D01*
G75*
G02*
X98600000Y-86500000I0J75000D01*
G01*
G37*
%TD.AperFunction*%
%TO.P,U2,36*%
%TO.N,+3V3*%
%TA.AperFunction,SMDPad,CuDef*%
G36*
G01*
X99425000Y-87325000D02*
X99425000Y-87175000D01*
G75*
G02*
X99500000Y-87100000I75000J0D01*
G01*
X100825000Y-87100000D01*
G75*
G02*
X100900000Y-87175000I0J-75000D01*
G01*
X100900000Y-87325000D01*
G75*
G02*
X100825000Y-87400000I-75000J0D01*
G01*
X99500000Y-87400000D01*
G75*
G02*
X99425000Y-87325000I0J75000D01*
G01*
G37*
%TD.AperFunction*%
%TO.P,U2,35*%
%TO.N,GND*%
%TA.AperFunction,SMDPad,CuDef*%
G36*
G01*
X99425000Y-87825000D02*
X99425000Y-87675000D01*
G75*
G02*
X99500000Y-87600000I75000J0D01*
G01*
X100825000Y-87600000D01*
G75*
G02*
X100900000Y-87675000I0J-75000D01*
G01*
X100900000Y-87825000D01*
G75*
G02*
X100825000Y-87900000I-75000J0D01*
G01*
X99500000Y-87900000D01*
G75*
G02*
X99425000Y-87825000I0J75000D01*
G01*
G37*
%TD.AperFunction*%
%TO.P,U2,34*%
%TO.N,/SWDIO*%
%TA.AperFunction,SMDPad,CuDef*%
G36*
G01*
X99425000Y-88325000D02*
X99425000Y-88175000D01*
G75*
G02*
X99500000Y-88100000I75000J0D01*
G01*
X100825000Y-88100000D01*
G75*
G02*
X100900000Y-88175000I0J-75000D01*
G01*
X100900000Y-88325000D01*
G75*
G02*
X100825000Y-88400000I-75000J0D01*
G01*
X99500000Y-88400000D01*
G75*
G02*
X99425000Y-88325000I0J75000D01*
G01*
G37*
%TD.AperFunction*%
%TO.P,U2,33*%
%TO.N,/USB_D+*%
%TA.AperFunction,SMDPad,CuDef*%
G36*
G01*
X99425000Y-88825000D02*
X99425000Y-88675000D01*
G75*
G02*
X99500000Y-88600000I75000J0D01*
G01*
X100825000Y-88600000D01*
G75*
G02*
X100900000Y-88675000I0J-75000D01*
G01*
X100900000Y-88825000D01*
G75*
G02*
X100825000Y-88900000I-75000J0D01*
G01*
X99500000Y-88900000D01*
G75*
G02*
X99425000Y-88825000I0J75000D01*
G01*
G37*
%TD.AperFunction*%
%TO.P,U2,32*%
%TO.N,/USB_D-*%
%TA.AperFunction,SMDPad,CuDef*%
G36*
G01*
X99425000Y-89325000D02*
X99425000Y-89175000D01*
G75*
G02*
X99500000Y-89100000I75000J0D01*
G01*
X100825000Y-89100000D01*
G75*
G02*
X100900000Y-89175000I0J-75000D01*
G01*
X100900000Y-89325000D01*
G75*
G02*
X100825000Y-89400000I-75000J0D01*
G01*
X99500000Y-89400000D01*
G75*
G02*
X99425000Y-89325000I0J75000D01*
G01*
G37*
%TD.AperFunction*%
%TO.P,U2,31*%
%TO.N,Net-(U2-Pad31)*%
%TA.AperFunction,SMDPad,CuDef*%
G36*
G01*
X99425000Y-89825000D02*
X99425000Y-89675000D01*
G75*
G02*
X99500000Y-89600000I75000J0D01*
G01*
X100825000Y-89600000D01*
G75*
G02*
X100900000Y-89675000I0J-75000D01*
G01*
X100900000Y-89825000D01*
G75*
G02*
X100825000Y-89900000I-75000J0D01*
G01*
X99500000Y-89900000D01*
G75*
G02*
X99425000Y-89825000I0J75000D01*
G01*
G37*
%TD.AperFunction*%
%TO.P,U2,30*%
%TO.N,Net-(U2-Pad30)*%
%TA.AperFunction,SMDPad,CuDef*%
G36*
G01*
X99425000Y-90325000D02*
X99425000Y-90175000D01*
G75*
G02*
X99500000Y-90100000I75000J0D01*
G01*
X100825000Y-90100000D01*
G75*
G02*
X100900000Y-90175000I0J-75000D01*
G01*
X100900000Y-90325000D01*
G75*
G02*
X100825000Y-90400000I-75000J0D01*
G01*
X99500000Y-90400000D01*
G75*
G02*
X99425000Y-90325000I0J75000D01*
G01*
G37*
%TD.AperFunction*%
%TO.P,U2,29*%
%TO.N,Net-(U2-Pad29)*%
%TA.AperFunction,SMDPad,CuDef*%
G36*
G01*
X99425000Y-90825000D02*
X99425000Y-90675000D01*
G75*
G02*
X99500000Y-90600000I75000J0D01*
G01*
X100825000Y-90600000D01*
G75*
G02*
X100900000Y-90675000I0J-75000D01*
G01*
X100900000Y-90825000D01*
G75*
G02*
X100825000Y-90900000I-75000J0D01*
G01*
X99500000Y-90900000D01*
G75*
G02*
X99425000Y-90825000I0J75000D01*
G01*
G37*
%TD.AperFunction*%
%TO.P,U2,28*%
%TO.N,Net-(U2-Pad28)*%
%TA.AperFunction,SMDPad,CuDef*%
G36*
G01*
X99425000Y-91325000D02*
X99425000Y-91175000D01*
G75*
G02*
X99500000Y-91100000I75000J0D01*
G01*
X100825000Y-91100000D01*
G75*
G02*
X100900000Y-91175000I0J-75000D01*
G01*
X100900000Y-91325000D01*
G75*
G02*
X100825000Y-91400000I-75000J0D01*
G01*
X99500000Y-91400000D01*
G75*
G02*
X99425000Y-91325000I0J75000D01*
G01*
G37*
%TD.AperFunction*%
%TO.P,U2,27*%
%TO.N,Net-(U2-Pad27)*%
%TA.AperFunction,SMDPad,CuDef*%
G36*
G01*
X99425000Y-91825000D02*
X99425000Y-91675000D01*
G75*
G02*
X99500000Y-91600000I75000J0D01*
G01*
X100825000Y-91600000D01*
G75*
G02*
X100900000Y-91675000I0J-75000D01*
G01*
X100900000Y-91825000D01*
G75*
G02*
X100825000Y-91900000I-75000J0D01*
G01*
X99500000Y-91900000D01*
G75*
G02*
X99425000Y-91825000I0J75000D01*
G01*
G37*
%TD.AperFunction*%
%TO.P,U2,26*%
%TO.N,Net-(U2-Pad26)*%
%TA.AperFunction,SMDPad,CuDef*%
G36*
G01*
X99425000Y-92325000D02*
X99425000Y-92175000D01*
G75*
G02*
X99500000Y-92100000I75000J0D01*
G01*
X100825000Y-92100000D01*
G75*
G02*
X100900000Y-92175000I0J-75000D01*
G01*
X100900000Y-92325000D01*
G75*
G02*
X100825000Y-92400000I-75000J0D01*
G01*
X99500000Y-92400000D01*
G75*
G02*
X99425000Y-92325000I0J75000D01*
G01*
G37*
%TD.AperFunction*%
%TO.P,U2,25*%
%TO.N,Net-(U2-Pad25)*%
%TA.AperFunction,SMDPad,CuDef*%
G36*
G01*
X99425000Y-92825000D02*
X99425000Y-92675000D01*
G75*
G02*
X99500000Y-92600000I75000J0D01*
G01*
X100825000Y-92600000D01*
G75*
G02*
X100900000Y-92675000I0J-75000D01*
G01*
X100900000Y-92825000D01*
G75*
G02*
X100825000Y-92900000I-75000J0D01*
G01*
X99500000Y-92900000D01*
G75*
G02*
X99425000Y-92825000I0J75000D01*
G01*
G37*
%TD.AperFunction*%
%TO.P,U2,24*%
%TO.N,+3V3*%
%TA.AperFunction,SMDPad,CuDef*%
G36*
G01*
X98600000Y-94825000D02*
X98600000Y-93500000D01*
G75*
G02*
X98675000Y-93425000I75000J0D01*
G01*
X98825000Y-93425000D01*
G75*
G02*
X98900000Y-93500000I0J-75000D01*
G01*
X98900000Y-94825000D01*
G75*
G02*
X98825000Y-94900000I-75000J0D01*
G01*
X98675000Y-94900000D01*
G75*
G02*
X98600000Y-94825000I0J75000D01*
G01*
G37*
%TD.AperFunction*%
%TO.P,U2,23*%
%TO.N,GND*%
%TA.AperFunction,SMDPad,CuDef*%
G36*
G01*
X98100000Y-94825000D02*
X98100000Y-93500000D01*
G75*
G02*
X98175000Y-93425000I75000J0D01*
G01*
X98325000Y-93425000D01*
G75*
G02*
X98400000Y-93500000I0J-75000D01*
G01*
X98400000Y-94825000D01*
G75*
G02*
X98325000Y-94900000I-75000J0D01*
G01*
X98175000Y-94900000D01*
G75*
G02*
X98100000Y-94825000I0J75000D01*
G01*
G37*
%TD.AperFunction*%
%TO.P,U2,22*%
%TO.N,/I2C2_SDA*%
%TA.AperFunction,SMDPad,CuDef*%
G36*
G01*
X97600000Y-94825000D02*
X97600000Y-93500000D01*
G75*
G02*
X97675000Y-93425000I75000J0D01*
G01*
X97825000Y-93425000D01*
G75*
G02*
X97900000Y-93500000I0J-75000D01*
G01*
X97900000Y-94825000D01*
G75*
G02*
X97825000Y-94900000I-75000J0D01*
G01*
X97675000Y-94900000D01*
G75*
G02*
X97600000Y-94825000I0J75000D01*
G01*
G37*
%TD.AperFunction*%
%TO.P,U2,21*%
%TO.N,/I2C2_SCL*%
%TA.AperFunction,SMDPad,CuDef*%
G36*
G01*
X97100000Y-94825000D02*
X97100000Y-93500000D01*
G75*
G02*
X97175000Y-93425000I75000J0D01*
G01*
X97325000Y-93425000D01*
G75*
G02*
X97400000Y-93500000I0J-75000D01*
G01*
X97400000Y-94825000D01*
G75*
G02*
X97325000Y-94900000I-75000J0D01*
G01*
X97175000Y-94900000D01*
G75*
G02*
X97100000Y-94825000I0J75000D01*
G01*
G37*
%TD.AperFunction*%
%TO.P,U2,20*%
%TO.N,Net-(U2-Pad20)*%
%TA.AperFunction,SMDPad,CuDef*%
G36*
G01*
X96600000Y-94825000D02*
X96600000Y-93500000D01*
G75*
G02*
X96675000Y-93425000I75000J0D01*
G01*
X96825000Y-93425000D01*
G75*
G02*
X96900000Y-93500000I0J-75000D01*
G01*
X96900000Y-94825000D01*
G75*
G02*
X96825000Y-94900000I-75000J0D01*
G01*
X96675000Y-94900000D01*
G75*
G02*
X96600000Y-94825000I0J75000D01*
G01*
G37*
%TD.AperFunction*%
%TO.P,U2,19*%
%TO.N,Net-(U2-Pad19)*%
%TA.AperFunction,SMDPad,CuDef*%
G36*
G01*
X96100000Y-94825000D02*
X96100000Y-93500000D01*
G75*
G02*
X96175000Y-93425000I75000J0D01*
G01*
X96325000Y-93425000D01*
G75*
G02*
X96400000Y-93500000I0J-75000D01*
G01*
X96400000Y-94825000D01*
G75*
G02*
X96325000Y-94900000I-75000J0D01*
G01*
X96175000Y-94900000D01*
G75*
G02*
X96100000Y-94825000I0J75000D01*
G01*
G37*
%TD.AperFunction*%
%TO.P,U2,18*%
%TO.N,Net-(U2-Pad18)*%
%TA.AperFunction,SMDPad,CuDef*%
G36*
G01*
X95600000Y-94825000D02*
X95600000Y-93500000D01*
G75*
G02*
X95675000Y-93425000I75000J0D01*
G01*
X95825000Y-93425000D01*
G75*
G02*
X95900000Y-93500000I0J-75000D01*
G01*
X95900000Y-94825000D01*
G75*
G02*
X95825000Y-94900000I-75000J0D01*
G01*
X95675000Y-94900000D01*
G75*
G02*
X95600000Y-94825000I0J75000D01*
G01*
G37*
%TD.AperFunction*%
%TO.P,U2,17*%
%TO.N,Net-(U2-Pad17)*%
%TA.AperFunction,SMDPad,CuDef*%
G36*
G01*
X95100000Y-94825000D02*
X95100000Y-93500000D01*
G75*
G02*
X95175000Y-93425000I75000J0D01*
G01*
X95325000Y-93425000D01*
G75*
G02*
X95400000Y-93500000I0J-75000D01*
G01*
X95400000Y-94825000D01*
G75*
G02*
X95325000Y-94900000I-75000J0D01*
G01*
X95175000Y-94900000D01*
G75*
G02*
X95100000Y-94825000I0J75000D01*
G01*
G37*
%TD.AperFunction*%
%TO.P,U2,16*%
%TO.N,Net-(U2-Pad16)*%
%TA.AperFunction,SMDPad,CuDef*%
G36*
G01*
X94600000Y-94825000D02*
X94600000Y-93500000D01*
G75*
G02*
X94675000Y-93425000I75000J0D01*
G01*
X94825000Y-93425000D01*
G75*
G02*
X94900000Y-93500000I0J-75000D01*
G01*
X94900000Y-94825000D01*
G75*
G02*
X94825000Y-94900000I-75000J0D01*
G01*
X94675000Y-94900000D01*
G75*
G02*
X94600000Y-94825000I0J75000D01*
G01*
G37*
%TD.AperFunction*%
%TO.P,U2,15*%
%TO.N,Net-(U2-Pad15)*%
%TA.AperFunction,SMDPad,CuDef*%
G36*
G01*
X94100000Y-94825000D02*
X94100000Y-93500000D01*
G75*
G02*
X94175000Y-93425000I75000J0D01*
G01*
X94325000Y-93425000D01*
G75*
G02*
X94400000Y-93500000I0J-75000D01*
G01*
X94400000Y-94825000D01*
G75*
G02*
X94325000Y-94900000I-75000J0D01*
G01*
X94175000Y-94900000D01*
G75*
G02*
X94100000Y-94825000I0J75000D01*
G01*
G37*
%TD.AperFunction*%
%TO.P,U2,14*%
%TO.N,Net-(U2-Pad14)*%
%TA.AperFunction,SMDPad,CuDef*%
G36*
G01*
X93600000Y-94825000D02*
X93600000Y-93500000D01*
G75*
G02*
X93675000Y-93425000I75000J0D01*
G01*
X93825000Y-93425000D01*
G75*
G02*
X93900000Y-93500000I0J-75000D01*
G01*
X93900000Y-94825000D01*
G75*
G02*
X93825000Y-94900000I-75000J0D01*
G01*
X93675000Y-94900000D01*
G75*
G02*
X93600000Y-94825000I0J75000D01*
G01*
G37*
%TD.AperFunction*%
%TO.P,U2,13*%
%TO.N,Net-(U2-Pad13)*%
%TA.AperFunction,SMDPad,CuDef*%
G36*
G01*
X93100000Y-94825000D02*
X93100000Y-93500000D01*
G75*
G02*
X93175000Y-93425000I75000J0D01*
G01*
X93325000Y-93425000D01*
G75*
G02*
X93400000Y-93500000I0J-75000D01*
G01*
X93400000Y-94825000D01*
G75*
G02*
X93325000Y-94900000I-75000J0D01*
G01*
X93175000Y-94900000D01*
G75*
G02*
X93100000Y-94825000I0J75000D01*
G01*
G37*
%TD.AperFunction*%
%TO.P,U2,12*%
%TO.N,Net-(U2-Pad12)*%
%TA.AperFunction,SMDPad,CuDef*%
G36*
G01*
X91100000Y-92825000D02*
X91100000Y-92675000D01*
G75*
G02*
X91175000Y-92600000I75000J0D01*
G01*
X92500000Y-92600000D01*
G75*
G02*
X92575000Y-92675000I0J-75000D01*
G01*
X92575000Y-92825000D01*
G75*
G02*
X92500000Y-92900000I-75000J0D01*
G01*
X91175000Y-92900000D01*
G75*
G02*
X91100000Y-92825000I0J75000D01*
G01*
G37*
%TD.AperFunction*%
%TO.P,U2,11*%
%TO.N,Net-(U2-Pad11)*%
%TA.AperFunction,SMDPad,CuDef*%
G36*
G01*
X91100000Y-92325000D02*
X91100000Y-92175000D01*
G75*
G02*
X91175000Y-92100000I75000J0D01*
G01*
X92500000Y-92100000D01*
G75*
G02*
X92575000Y-92175000I0J-75000D01*
G01*
X92575000Y-92325000D01*
G75*
G02*
X92500000Y-92400000I-75000J0D01*
G01*
X91175000Y-92400000D01*
G75*
G02*
X91100000Y-92325000I0J75000D01*
G01*
G37*
%TD.AperFunction*%
%TO.P,U2,10*%
%TO.N,Net-(U2-Pad10)*%
%TA.AperFunction,SMDPad,CuDef*%
G36*
G01*
X91100000Y-91825000D02*
X91100000Y-91675000D01*
G75*
G02*
X91175000Y-91600000I75000J0D01*
G01*
X92500000Y-91600000D01*
G75*
G02*
X92575000Y-91675000I0J-75000D01*
G01*
X92575000Y-91825000D01*
G75*
G02*
X92500000Y-91900000I-75000J0D01*
G01*
X91175000Y-91900000D01*
G75*
G02*
X91100000Y-91825000I0J75000D01*
G01*
G37*
%TD.AperFunction*%
%TO.P,U2,9*%
%TO.N,+3.3VA*%
%TA.AperFunction,SMDPad,CuDef*%
G36*
G01*
X91100000Y-91325000D02*
X91100000Y-91175000D01*
G75*
G02*
X91175000Y-91100000I75000J0D01*
G01*
X92500000Y-91100000D01*
G75*
G02*
X92575000Y-91175000I0J-75000D01*
G01*
X92575000Y-91325000D01*
G75*
G02*
X92500000Y-91400000I-75000J0D01*
G01*
X91175000Y-91400000D01*
G75*
G02*
X91100000Y-91325000I0J75000D01*
G01*
G37*
%TD.AperFunction*%
%TO.P,U2,8*%
%TO.N,GND*%
%TA.AperFunction,SMDPad,CuDef*%
G36*
G01*
X91100000Y-90825000D02*
X91100000Y-90675000D01*
G75*
G02*
X91175000Y-90600000I75000J0D01*
G01*
X92500000Y-90600000D01*
G75*
G02*
X92575000Y-90675000I0J-75000D01*
G01*
X92575000Y-90825000D01*
G75*
G02*
X92500000Y-90900000I-75000J0D01*
G01*
X91175000Y-90900000D01*
G75*
G02*
X91100000Y-90825000I0J75000D01*
G01*
G37*
%TD.AperFunction*%
%TO.P,U2,7*%
%TO.N,/NRST*%
%TA.AperFunction,SMDPad,CuDef*%
G36*
G01*
X91100000Y-90325000D02*
X91100000Y-90175000D01*
G75*
G02*
X91175000Y-90100000I75000J0D01*
G01*
X92500000Y-90100000D01*
G75*
G02*
X92575000Y-90175000I0J-75000D01*
G01*
X92575000Y-90325000D01*
G75*
G02*
X92500000Y-90400000I-75000J0D01*
G01*
X91175000Y-90400000D01*
G75*
G02*
X91100000Y-90325000I0J75000D01*
G01*
G37*
%TD.AperFunction*%
%TO.P,U2,6*%
%TO.N,/HSE_OUT*%
%TA.AperFunction,SMDPad,CuDef*%
G36*
G01*
X91100000Y-89825000D02*
X91100000Y-89675000D01*
G75*
G02*
X91175000Y-89600000I75000J0D01*
G01*
X92500000Y-89600000D01*
G75*
G02*
X92575000Y-89675000I0J-75000D01*
G01*
X92575000Y-89825000D01*
G75*
G02*
X92500000Y-89900000I-75000J0D01*
G01*
X91175000Y-89900000D01*
G75*
G02*
X91100000Y-89825000I0J75000D01*
G01*
G37*
%TD.AperFunction*%
%TO.P,U2,5*%
%TO.N,/HSE_IN*%
%TA.AperFunction,SMDPad,CuDef*%
G36*
G01*
X91100000Y-89325000D02*
X91100000Y-89175000D01*
G75*
G02*
X91175000Y-89100000I75000J0D01*
G01*
X92500000Y-89100000D01*
G75*
G02*
X92575000Y-89175000I0J-75000D01*
G01*
X92575000Y-89325000D01*
G75*
G02*
X92500000Y-89400000I-75000J0D01*
G01*
X91175000Y-89400000D01*
G75*
G02*
X91100000Y-89325000I0J75000D01*
G01*
G37*
%TD.AperFunction*%
%TO.P,U2,4*%
%TO.N,Net-(U2-Pad4)*%
%TA.AperFunction,SMDPad,CuDef*%
G36*
G01*
X91100000Y-88825000D02*
X91100000Y-88675000D01*
G75*
G02*
X91175000Y-88600000I75000J0D01*
G01*
X92500000Y-88600000D01*
G75*
G02*
X92575000Y-88675000I0J-75000D01*
G01*
X92575000Y-88825000D01*
G75*
G02*
X92500000Y-88900000I-75000J0D01*
G01*
X91175000Y-88900000D01*
G75*
G02*
X91100000Y-88825000I0J75000D01*
G01*
G37*
%TD.AperFunction*%
%TO.P,U2,3*%
%TO.N,Net-(U2-Pad3)*%
%TA.AperFunction,SMDPad,CuDef*%
G36*
G01*
X91100000Y-88325000D02*
X91100000Y-88175000D01*
G75*
G02*
X91175000Y-88100000I75000J0D01*
G01*
X92500000Y-88100000D01*
G75*
G02*
X92575000Y-88175000I0J-75000D01*
G01*
X92575000Y-88325000D01*
G75*
G02*
X92500000Y-88400000I-75000J0D01*
G01*
X91175000Y-88400000D01*
G75*
G02*
X91100000Y-88325000I0J75000D01*
G01*
G37*
%TD.AperFunction*%
%TO.P,U2,2*%
%TO.N,Net-(U2-Pad2)*%
%TA.AperFunction,SMDPad,CuDef*%
G36*
G01*
X91100000Y-87825000D02*
X91100000Y-87675000D01*
G75*
G02*
X91175000Y-87600000I75000J0D01*
G01*
X92500000Y-87600000D01*
G75*
G02*
X92575000Y-87675000I0J-75000D01*
G01*
X92575000Y-87825000D01*
G75*
G02*
X92500000Y-87900000I-75000J0D01*
G01*
X91175000Y-87900000D01*
G75*
G02*
X91100000Y-87825000I0J75000D01*
G01*
G37*
%TD.AperFunction*%
%TO.P,U2,1*%
%TO.N,+3V3*%
%TA.AperFunction,SMDPad,CuDef*%
G36*
G01*
X91100000Y-87325000D02*
X91100000Y-87175000D01*
G75*
G02*
X91175000Y-87100000I75000J0D01*
G01*
X92500000Y-87100000D01*
G75*
G02*
X92575000Y-87175000I0J-75000D01*
G01*
X92575000Y-87325000D01*
G75*
G02*
X92500000Y-87400000I-75000J0D01*
G01*
X91175000Y-87400000D01*
G75*
G02*
X91100000Y-87325000I0J75000D01*
G01*
G37*
%TD.AperFunction*%
%TD*%
D16*
%TO.P,U1,1*%
%TO.N,GND*%
X109300000Y-93350000D03*
%TO.P,U1,3*%
%TO.N,VBUS*%
X104700000Y-93350000D03*
%TO.P,U1,2*%
%TO.N,+3V3*%
X107000000Y-93350000D03*
D17*
X107000000Y-99650000D03*
%TD*%
%TO.P,R5,2*%
%TO.N,/I2C2_SDA*%
%TA.AperFunction,SMDPad,CuDef*%
G36*
G01*
X97240000Y-98685000D02*
X97240000Y-98315000D01*
G75*
G02*
X97375000Y-98180000I135000J0D01*
G01*
X97645000Y-98180000D01*
G75*
G02*
X97780000Y-98315000I0J-135000D01*
G01*
X97780000Y-98685000D01*
G75*
G02*
X97645000Y-98820000I-135000J0D01*
G01*
X97375000Y-98820000D01*
G75*
G02*
X97240000Y-98685000I0J135000D01*
G01*
G37*
%TD.AperFunction*%
%TO.P,R5,1*%
%TO.N,+3V3*%
%TA.AperFunction,SMDPad,CuDef*%
G36*
G01*
X96220000Y-98685000D02*
X96220000Y-98315000D01*
G75*
G02*
X96355000Y-98180000I135000J0D01*
G01*
X96625000Y-98180000D01*
G75*
G02*
X96760000Y-98315000I0J-135000D01*
G01*
X96760000Y-98685000D01*
G75*
G02*
X96625000Y-98820000I-135000J0D01*
G01*
X96355000Y-98820000D01*
G75*
G02*
X96220000Y-98685000I0J135000D01*
G01*
G37*
%TD.AperFunction*%
%TD*%
%TO.P,R4,2*%
%TO.N,/I2C2_SCL*%
%TA.AperFunction,SMDPad,CuDef*%
G36*
G01*
X94260000Y-98315000D02*
X94260000Y-98685000D01*
G75*
G02*
X94125000Y-98820000I-135000J0D01*
G01*
X93855000Y-98820000D01*
G75*
G02*
X93720000Y-98685000I0J135000D01*
G01*
X93720000Y-98315000D01*
G75*
G02*
X93855000Y-98180000I135000J0D01*
G01*
X94125000Y-98180000D01*
G75*
G02*
X94260000Y-98315000I0J-135000D01*
G01*
G37*
%TD.AperFunction*%
%TO.P,R4,1*%
%TO.N,+3V3*%
%TA.AperFunction,SMDPad,CuDef*%
G36*
G01*
X95280000Y-98315000D02*
X95280000Y-98685000D01*
G75*
G02*
X95145000Y-98820000I-135000J0D01*
G01*
X94875000Y-98820000D01*
G75*
G02*
X94740000Y-98685000I0J135000D01*
G01*
X94740000Y-98315000D01*
G75*
G02*
X94875000Y-98180000I135000J0D01*
G01*
X95145000Y-98180000D01*
G75*
G02*
X95280000Y-98315000I0J-135000D01*
G01*
G37*
%TD.AperFunction*%
%TD*%
%TO.P,R3,2*%
%TO.N,/USB_D+*%
%TA.AperFunction,SMDPad,CuDef*%
G36*
G01*
X109915000Y-87265000D02*
X110285000Y-87265000D01*
G75*
G02*
X110420000Y-87400000I0J-135000D01*
G01*
X110420000Y-87670000D01*
G75*
G02*
X110285000Y-87805000I-135000J0D01*
G01*
X109915000Y-87805000D01*
G75*
G02*
X109780000Y-87670000I0J135000D01*
G01*
X109780000Y-87400000D01*
G75*
G02*
X109915000Y-87265000I135000J0D01*
G01*
G37*
%TD.AperFunction*%
%TO.P,R3,1*%
%TO.N,+3V3*%
%TA.AperFunction,SMDPad,CuDef*%
G36*
G01*
X109915000Y-86245000D02*
X110285000Y-86245000D01*
G75*
G02*
X110420000Y-86380000I0J-135000D01*
G01*
X110420000Y-86650000D01*
G75*
G02*
X110285000Y-86785000I-135000J0D01*
G01*
X109915000Y-86785000D01*
G75*
G02*
X109780000Y-86650000I0J135000D01*
G01*
X109780000Y-86380000D01*
G75*
G02*
X109915000Y-86245000I135000J0D01*
G01*
G37*
%TD.AperFunction*%
%TD*%
%TO.P,R2,2*%
%TO.N,/SW_BOOT0*%
%TA.AperFunction,SMDPad,CuDef*%
G36*
G01*
X89015000Y-82940000D02*
X89385000Y-82940000D01*
G75*
G02*
X89520000Y-83075000I0J-135000D01*
G01*
X89520000Y-83345000D01*
G75*
G02*
X89385000Y-83480000I-135000J0D01*
G01*
X89015000Y-83480000D01*
G75*
G02*
X88880000Y-83345000I0J135000D01*
G01*
X88880000Y-83075000D01*
G75*
G02*
X89015000Y-82940000I135000J0D01*
G01*
G37*
%TD.AperFunction*%
%TO.P,R2,1*%
%TO.N,/BOOT0*%
%TA.AperFunction,SMDPad,CuDef*%
G36*
G01*
X89015000Y-81920000D02*
X89385000Y-81920000D01*
G75*
G02*
X89520000Y-82055000I0J-135000D01*
G01*
X89520000Y-82325000D01*
G75*
G02*
X89385000Y-82460000I-135000J0D01*
G01*
X89015000Y-82460000D01*
G75*
G02*
X88880000Y-82325000I0J135000D01*
G01*
X88880000Y-82055000D01*
G75*
G02*
X89015000Y-81920000I135000J0D01*
G01*
G37*
%TD.AperFunction*%
%TD*%
%TO.P,R1,2*%
%TO.N,GND*%
%TA.AperFunction,SMDPad,CuDef*%
G36*
G01*
X114730000Y-95185000D02*
X114730000Y-94815000D01*
G75*
G02*
X114865000Y-94680000I135000J0D01*
G01*
X115135000Y-94680000D01*
G75*
G02*
X115270000Y-94815000I0J-135000D01*
G01*
X115270000Y-95185000D01*
G75*
G02*
X115135000Y-95320000I-135000J0D01*
G01*
X114865000Y-95320000D01*
G75*
G02*
X114730000Y-95185000I0J135000D01*
G01*
G37*
%TD.AperFunction*%
%TO.P,R1,1*%
%TO.N,/PWR_LED_K*%
%TA.AperFunction,SMDPad,CuDef*%
G36*
G01*
X113710000Y-95185000D02*
X113710000Y-94815000D01*
G75*
G02*
X113845000Y-94680000I135000J0D01*
G01*
X114115000Y-94680000D01*
G75*
G02*
X114250000Y-94815000I0J-135000D01*
G01*
X114250000Y-95185000D01*
G75*
G02*
X114115000Y-95320000I-135000J0D01*
G01*
X113845000Y-95320000D01*
G75*
G02*
X113710000Y-95185000I0J135000D01*
G01*
G37*
%TD.AperFunction*%
%TD*%
D18*
%TO.P,J4,4*%
%TO.N,GND*%
X100120000Y-103000000D03*
%TO.P,J4,3*%
%TO.N,/I2C2_SDA*%
X97580000Y-103000000D03*
%TO.P,J4,2*%
%TO.N,/I2C2_SCL*%
X95040000Y-103000000D03*
D19*
%TO.P,J4,1*%
%TO.N,+3V3*%
X92500000Y-103000000D03*
%TD*%
D18*
%TO.P,J3,4*%
%TO.N,GND*%
X103380000Y-76500000D03*
%TO.P,J3,3*%
%TO.N,/SWCLK*%
X105920000Y-76500000D03*
%TO.P,J3,2*%
%TO.N,/SWDIO*%
X108460000Y-76500000D03*
D19*
%TO.P,J3,1*%
%TO.N,+3V3*%
X111000000Y-76500000D03*
%TD*%
D18*
%TO.P,J2,4*%
%TO.N,GND*%
X90380000Y-76500000D03*
%TO.P,J2,3*%
%TO.N,/USART1_RX*%
X92920000Y-76500000D03*
%TO.P,J2,2*%
%TO.N,/USART1_TX*%
X95460000Y-76500000D03*
D19*
%TO.P,J2,1*%
%TO.N,+3V3*%
X98000000Y-76500000D03*
%TD*%
%TO.P,FB1,2*%
%TO.N,+3.3VA*%
%TA.AperFunction,SMDPad,CuDef*%
G36*
G01*
X90756250Y-96150000D02*
X90243750Y-96150000D01*
G75*
G02*
X90025000Y-95931250I0J218750D01*
G01*
X90025000Y-95493750D01*
G75*
G02*
X90243750Y-95275000I218750J0D01*
G01*
X90756250Y-95275000D01*
G75*
G02*
X90975000Y-95493750I0J-218750D01*
G01*
X90975000Y-95931250D01*
G75*
G02*
X90756250Y-96150000I-218750J0D01*
G01*
G37*
%TD.AperFunction*%
%TO.P,FB1,1*%
%TO.N,+3V3*%
%TA.AperFunction,SMDPad,CuDef*%
G36*
G01*
X90756250Y-97725000D02*
X90243750Y-97725000D01*
G75*
G02*
X90025000Y-97506250I0J218750D01*
G01*
X90025000Y-97068750D01*
G75*
G02*
X90243750Y-96850000I218750J0D01*
G01*
X90756250Y-96850000D01*
G75*
G02*
X90975000Y-97068750I0J-218750D01*
G01*
X90975000Y-97506250D01*
G75*
G02*
X90756250Y-97725000I-218750J0D01*
G01*
G37*
%TD.AperFunction*%
%TD*%
%TO.P,D1,2*%
%TO.N,+3V3*%
%TA.AperFunction,SMDPad,CuDef*%
G36*
G01*
X113743750Y-97850000D02*
X114256250Y-97850000D01*
G75*
G02*
X114475000Y-98068750I0J-218750D01*
G01*
X114475000Y-98506250D01*
G75*
G02*
X114256250Y-98725000I-218750J0D01*
G01*
X113743750Y-98725000D01*
G75*
G02*
X113525000Y-98506250I0J218750D01*
G01*
X113525000Y-98068750D01*
G75*
G02*
X113743750Y-97850000I218750J0D01*
G01*
G37*
%TD.AperFunction*%
%TO.P,D1,1*%
%TO.N,/PWR_LED_K*%
%TA.AperFunction,SMDPad,CuDef*%
G36*
G01*
X113743750Y-96275000D02*
X114256250Y-96275000D01*
G75*
G02*
X114475000Y-96493750I0J-218750D01*
G01*
X114475000Y-96931250D01*
G75*
G02*
X114256250Y-97150000I-218750J0D01*
G01*
X113743750Y-97150000D01*
G75*
G02*
X113525000Y-96931250I0J218750D01*
G01*
X113525000Y-96493750D01*
G75*
G02*
X113743750Y-96275000I218750J0D01*
G01*
G37*
%TD.AperFunction*%
%TD*%
%TO.P,C13,2*%
%TO.N,GND*%
%TA.AperFunction,SMDPad,CuDef*%
G36*
G01*
X88330000Y-91700000D02*
X88670000Y-91700000D01*
G75*
G02*
X88810000Y-91840000I0J-140000D01*
G01*
X88810000Y-92120000D01*
G75*
G02*
X88670000Y-92260000I-140000J0D01*
G01*
X88330000Y-92260000D01*
G75*
G02*
X88190000Y-92120000I0J140000D01*
G01*
X88190000Y-91840000D01*
G75*
G02*
X88330000Y-91700000I140000J0D01*
G01*
G37*
%TD.AperFunction*%
%TO.P,C13,1*%
%TO.N,/HSE_OUT*%
%TA.AperFunction,SMDPad,CuDef*%
G36*
G01*
X88330000Y-90740000D02*
X88670000Y-90740000D01*
G75*
G02*
X88810000Y-90880000I0J-140000D01*
G01*
X88810000Y-91160000D01*
G75*
G02*
X88670000Y-91300000I-140000J0D01*
G01*
X88330000Y-91300000D01*
G75*
G02*
X88190000Y-91160000I0J140000D01*
G01*
X88190000Y-90880000D01*
G75*
G02*
X88330000Y-90740000I140000J0D01*
G01*
G37*
%TD.AperFunction*%
%TD*%
%TO.P,C12,2*%
%TO.N,GND*%
%TA.AperFunction,SMDPad,CuDef*%
G36*
G01*
X88670000Y-88300000D02*
X88330000Y-88300000D01*
G75*
G02*
X88190000Y-88160000I0J140000D01*
G01*
X88190000Y-87880000D01*
G75*
G02*
X88330000Y-87740000I140000J0D01*
G01*
X88670000Y-87740000D01*
G75*
G02*
X88810000Y-87880000I0J-140000D01*
G01*
X88810000Y-88160000D01*
G75*
G02*
X88670000Y-88300000I-140000J0D01*
G01*
G37*
%TD.AperFunction*%
%TO.P,C12,1*%
%TO.N,/HSE_IN*%
%TA.AperFunction,SMDPad,CuDef*%
G36*
G01*
X88670000Y-89260000D02*
X88330000Y-89260000D01*
G75*
G02*
X88190000Y-89120000I0J140000D01*
G01*
X88190000Y-88840000D01*
G75*
G02*
X88330000Y-88700000I140000J0D01*
G01*
X88670000Y-88700000D01*
G75*
G02*
X88810000Y-88840000I0J-140000D01*
G01*
X88810000Y-89120000D01*
G75*
G02*
X88670000Y-89260000I-140000J0D01*
G01*
G37*
%TD.AperFunction*%
%TD*%
%TO.P,C11,2*%
%TO.N,GND*%
%TA.AperFunction,SMDPad,CuDef*%
G36*
G01*
X93700000Y-96170000D02*
X93700000Y-95830000D01*
G75*
G02*
X93840000Y-95690000I140000J0D01*
G01*
X94120000Y-95690000D01*
G75*
G02*
X94260000Y-95830000I0J-140000D01*
G01*
X94260000Y-96170000D01*
G75*
G02*
X94120000Y-96310000I-140000J0D01*
G01*
X93840000Y-96310000D01*
G75*
G02*
X93700000Y-96170000I0J140000D01*
G01*
G37*
%TD.AperFunction*%
%TO.P,C11,1*%
%TO.N,/NRST*%
%TA.AperFunction,SMDPad,CuDef*%
G36*
G01*
X92740000Y-96170000D02*
X92740000Y-95830000D01*
G75*
G02*
X92880000Y-95690000I140000J0D01*
G01*
X93160000Y-95690000D01*
G75*
G02*
X93300000Y-95830000I0J-140000D01*
G01*
X93300000Y-96170000D01*
G75*
G02*
X93160000Y-96310000I-140000J0D01*
G01*
X92880000Y-96310000D01*
G75*
G02*
X92740000Y-96170000I0J140000D01*
G01*
G37*
%TD.AperFunction*%
%TD*%
%TO.P,C10,2*%
%TO.N,GND*%
%TA.AperFunction,SMDPad,CuDef*%
G36*
G01*
X88300000Y-97830000D02*
X88300000Y-98170000D01*
G75*
G02*
X88160000Y-98310000I-140000J0D01*
G01*
X87880000Y-98310000D01*
G75*
G02*
X87740000Y-98170000I0J140000D01*
G01*
X87740000Y-97830000D01*
G75*
G02*
X87880000Y-97690000I140000J0D01*
G01*
X88160000Y-97690000D01*
G75*
G02*
X88300000Y-97830000I0J-140000D01*
G01*
G37*
%TD.AperFunction*%
%TO.P,C10,1*%
%TO.N,+3V3*%
%TA.AperFunction,SMDPad,CuDef*%
G36*
G01*
X89260000Y-97830000D02*
X89260000Y-98170000D01*
G75*
G02*
X89120000Y-98310000I-140000J0D01*
G01*
X88840000Y-98310000D01*
G75*
G02*
X88700000Y-98170000I0J140000D01*
G01*
X88700000Y-97830000D01*
G75*
G02*
X88840000Y-97690000I140000J0D01*
G01*
X89120000Y-97690000D01*
G75*
G02*
X89260000Y-97830000I0J-140000D01*
G01*
G37*
%TD.AperFunction*%
%TD*%
%TO.P,C9,2*%
%TO.N,GND*%
%TA.AperFunction,SMDPad,CuDef*%
G36*
G01*
X87800000Y-95830000D02*
X87800000Y-96170000D01*
G75*
G02*
X87660000Y-96310000I-140000J0D01*
G01*
X87380000Y-96310000D01*
G75*
G02*
X87240000Y-96170000I0J140000D01*
G01*
X87240000Y-95830000D01*
G75*
G02*
X87380000Y-95690000I140000J0D01*
G01*
X87660000Y-95690000D01*
G75*
G02*
X87800000Y-95830000I0J-140000D01*
G01*
G37*
%TD.AperFunction*%
%TO.P,C9,1*%
%TO.N,+3.3VA*%
%TA.AperFunction,SMDPad,CuDef*%
G36*
G01*
X88760000Y-95830000D02*
X88760000Y-96170000D01*
G75*
G02*
X88620000Y-96310000I-140000J0D01*
G01*
X88340000Y-96310000D01*
G75*
G02*
X88200000Y-96170000I0J140000D01*
G01*
X88200000Y-95830000D01*
G75*
G02*
X88340000Y-95690000I140000J0D01*
G01*
X88620000Y-95690000D01*
G75*
G02*
X88760000Y-95830000I0J-140000D01*
G01*
G37*
%TD.AperFunction*%
%TD*%
%TO.P,C8,1*%
%TO.N,+3.3VA*%
%TA.AperFunction,SMDPad,CuDef*%
G36*
G01*
X90170000Y-92260000D02*
X89830000Y-92260000D01*
G75*
G02*
X89690000Y-92120000I0J140000D01*
G01*
X89690000Y-91840000D01*
G75*
G02*
X89830000Y-91700000I140000J0D01*
G01*
X90170000Y-91700000D01*
G75*
G02*
X90310000Y-91840000I0J-140000D01*
G01*
X90310000Y-92120000D01*
G75*
G02*
X90170000Y-92260000I-140000J0D01*
G01*
G37*
%TD.AperFunction*%
%TO.P,C8,2*%
%TO.N,GND*%
%TA.AperFunction,SMDPad,CuDef*%
G36*
G01*
X90170000Y-91300000D02*
X89830000Y-91300000D01*
G75*
G02*
X89690000Y-91160000I0J140000D01*
G01*
X89690000Y-90880000D01*
G75*
G02*
X89830000Y-90740000I140000J0D01*
G01*
X90170000Y-90740000D01*
G75*
G02*
X90310000Y-90880000I0J-140000D01*
G01*
X90310000Y-91160000D01*
G75*
G02*
X90170000Y-91300000I-140000J0D01*
G01*
G37*
%TD.AperFunction*%
%TD*%
%TO.P,C7,2*%
%TO.N,GND*%
%TA.AperFunction,SMDPad,CuDef*%
G36*
G01*
X93700000Y-84170000D02*
X93700000Y-83830000D01*
G75*
G02*
X93840000Y-83690000I140000J0D01*
G01*
X94120000Y-83690000D01*
G75*
G02*
X94260000Y-83830000I0J-140000D01*
G01*
X94260000Y-84170000D01*
G75*
G02*
X94120000Y-84310000I-140000J0D01*
G01*
X93840000Y-84310000D01*
G75*
G02*
X93700000Y-84170000I0J140000D01*
G01*
G37*
%TD.AperFunction*%
%TO.P,C7,1*%
%TO.N,+3V3*%
%TA.AperFunction,SMDPad,CuDef*%
G36*
G01*
X92740000Y-84170000D02*
X92740000Y-83830000D01*
G75*
G02*
X92880000Y-83690000I140000J0D01*
G01*
X93160000Y-83690000D01*
G75*
G02*
X93300000Y-83830000I0J-140000D01*
G01*
X93300000Y-84170000D01*
G75*
G02*
X93160000Y-84310000I-140000J0D01*
G01*
X92880000Y-84310000D01*
G75*
G02*
X92740000Y-84170000I0J140000D01*
G01*
G37*
%TD.AperFunction*%
%TD*%
%TO.P,C6,2*%
%TO.N,GND*%
%TA.AperFunction,SMDPad,CuDef*%
G36*
G01*
X101830000Y-87700000D02*
X102170000Y-87700000D01*
G75*
G02*
X102310000Y-87840000I0J-140000D01*
G01*
X102310000Y-88120000D01*
G75*
G02*
X102170000Y-88260000I-140000J0D01*
G01*
X101830000Y-88260000D01*
G75*
G02*
X101690000Y-88120000I0J140000D01*
G01*
X101690000Y-87840000D01*
G75*
G02*
X101830000Y-87700000I140000J0D01*
G01*
G37*
%TD.AperFunction*%
%TO.P,C6,1*%
%TO.N,+3V3*%
%TA.AperFunction,SMDPad,CuDef*%
G36*
G01*
X101830000Y-86740000D02*
X102170000Y-86740000D01*
G75*
G02*
X102310000Y-86880000I0J-140000D01*
G01*
X102310000Y-87160000D01*
G75*
G02*
X102170000Y-87300000I-140000J0D01*
G01*
X101830000Y-87300000D01*
G75*
G02*
X101690000Y-87160000I0J140000D01*
G01*
X101690000Y-86880000D01*
G75*
G02*
X101830000Y-86740000I140000J0D01*
G01*
G37*
%TD.AperFunction*%
%TD*%
%TO.P,C5,2*%
%TO.N,GND*%
%TA.AperFunction,SMDPad,CuDef*%
G36*
G01*
X98800000Y-95830000D02*
X98800000Y-96170000D01*
G75*
G02*
X98660000Y-96310000I-140000J0D01*
G01*
X98380000Y-96310000D01*
G75*
G02*
X98240000Y-96170000I0J140000D01*
G01*
X98240000Y-95830000D01*
G75*
G02*
X98380000Y-95690000I140000J0D01*
G01*
X98660000Y-95690000D01*
G75*
G02*
X98800000Y-95830000I0J-140000D01*
G01*
G37*
%TD.AperFunction*%
%TO.P,C5,1*%
%TO.N,+3V3*%
%TA.AperFunction,SMDPad,CuDef*%
G36*
G01*
X99760000Y-95830000D02*
X99760000Y-96170000D01*
G75*
G02*
X99620000Y-96310000I-140000J0D01*
G01*
X99340000Y-96310000D01*
G75*
G02*
X99200000Y-96170000I0J140000D01*
G01*
X99200000Y-95830000D01*
G75*
G02*
X99340000Y-95690000I140000J0D01*
G01*
X99620000Y-95690000D01*
G75*
G02*
X99760000Y-95830000I0J-140000D01*
G01*
G37*
%TD.AperFunction*%
%TD*%
%TO.P,C4,2*%
%TO.N,GND*%
%TA.AperFunction,SMDPad,CuDef*%
G36*
G01*
X90170000Y-86320000D02*
X89830000Y-86320000D01*
G75*
G02*
X89690000Y-86180000I0J140000D01*
G01*
X89690000Y-85900000D01*
G75*
G02*
X89830000Y-85760000I140000J0D01*
G01*
X90170000Y-85760000D01*
G75*
G02*
X90310000Y-85900000I0J-140000D01*
G01*
X90310000Y-86180000D01*
G75*
G02*
X90170000Y-86320000I-140000J0D01*
G01*
G37*
%TD.AperFunction*%
%TO.P,C4,1*%
%TO.N,+3V3*%
%TA.AperFunction,SMDPad,CuDef*%
G36*
G01*
X90170000Y-87280000D02*
X89830000Y-87280000D01*
G75*
G02*
X89690000Y-87140000I0J140000D01*
G01*
X89690000Y-86860000D01*
G75*
G02*
X89830000Y-86720000I140000J0D01*
G01*
X90170000Y-86720000D01*
G75*
G02*
X90310000Y-86860000I0J-140000D01*
G01*
X90310000Y-87140000D01*
G75*
G02*
X90170000Y-87280000I-140000J0D01*
G01*
G37*
%TD.AperFunction*%
%TD*%
%TO.P,C3,2*%
%TO.N,GND*%
%TA.AperFunction,SMDPad,CuDef*%
G36*
G01*
X93825000Y-82750000D02*
X93825000Y-82250000D01*
G75*
G02*
X94050000Y-82025000I225000J0D01*
G01*
X94500000Y-82025000D01*
G75*
G02*
X94725000Y-82250000I0J-225000D01*
G01*
X94725000Y-82750000D01*
G75*
G02*
X94500000Y-82975000I-225000J0D01*
G01*
X94050000Y-82975000D01*
G75*
G02*
X93825000Y-82750000I0J225000D01*
G01*
G37*
%TD.AperFunction*%
%TO.P,C3,1*%
%TO.N,+3V3*%
%TA.AperFunction,SMDPad,CuDef*%
G36*
G01*
X92275000Y-82750000D02*
X92275000Y-82250000D01*
G75*
G02*
X92500000Y-82025000I225000J0D01*
G01*
X92950000Y-82025000D01*
G75*
G02*
X93175000Y-82250000I0J-225000D01*
G01*
X93175000Y-82750000D01*
G75*
G02*
X92950000Y-82975000I-225000J0D01*
G01*
X92500000Y-82975000D01*
G75*
G02*
X92275000Y-82750000I0J225000D01*
G01*
G37*
%TD.AperFunction*%
%TD*%
%TO.P,C2,2*%
%TO.N,GND*%
%TA.AperFunction,SMDPad,CuDef*%
G36*
G01*
X112375000Y-96300000D02*
X111425000Y-96300000D01*
G75*
G02*
X111175000Y-96050000I0J250000D01*
G01*
X111175000Y-95550000D01*
G75*
G02*
X111425000Y-95300000I250000J0D01*
G01*
X112375000Y-95300000D01*
G75*
G02*
X112625000Y-95550000I0J-250000D01*
G01*
X112625000Y-96050000D01*
G75*
G02*
X112375000Y-96300000I-250000J0D01*
G01*
G37*
%TD.AperFunction*%
%TO.P,C2,1*%
%TO.N,+3V3*%
%TA.AperFunction,SMDPad,CuDef*%
G36*
G01*
X112375000Y-98200000D02*
X111425000Y-98200000D01*
G75*
G02*
X111175000Y-97950000I0J250000D01*
G01*
X111175000Y-97450000D01*
G75*
G02*
X111425000Y-97200000I250000J0D01*
G01*
X112375000Y-97200000D01*
G75*
G02*
X112625000Y-97450000I0J-250000D01*
G01*
X112625000Y-97950000D01*
G75*
G02*
X112375000Y-98200000I-250000J0D01*
G01*
G37*
%TD.AperFunction*%
%TD*%
%TO.P,C1,2*%
%TO.N,GND*%
%TA.AperFunction,SMDPad,CuDef*%
G36*
G01*
X106450000Y-91475000D02*
X106450000Y-90525000D01*
G75*
G02*
X106700000Y-90275000I250000J0D01*
G01*
X107200000Y-90275000D01*
G75*
G02*
X107450000Y-90525000I0J-250000D01*
G01*
X107450000Y-91475000D01*
G75*
G02*
X107200000Y-91725000I-250000J0D01*
G01*
X106700000Y-91725000D01*
G75*
G02*
X106450000Y-91475000I0J250000D01*
G01*
G37*
%TD.AperFunction*%
%TO.P,C1,1*%
%TO.N,VBUS*%
%TA.AperFunction,SMDPad,CuDef*%
G36*
G01*
X104550000Y-91475000D02*
X104550000Y-90525000D01*
G75*
G02*
X104800000Y-90275000I250000J0D01*
G01*
X105300000Y-90275000D01*
G75*
G02*
X105550000Y-90525000I0J-250000D01*
G01*
X105550000Y-91475000D01*
G75*
G02*
X105300000Y-91725000I-250000J0D01*
G01*
X104800000Y-91725000D01*
G75*
G02*
X104550000Y-91475000I0J250000D01*
G01*
G37*
%TD.AperFunction*%
%TD*%
D20*
%TO.N,GND*%
X98200000Y-92100000D03*
X95100000Y-96000000D03*
X87525000Y-94850000D03*
X88000000Y-99300000D03*
X87800000Y-90000000D03*
X103300000Y-87900000D03*
X93600000Y-90700000D03*
X87100000Y-79800000D03*
X90000000Y-84900000D03*
X115000000Y-93800000D03*
X93750000Y-87450000D03*
X108325000Y-90500000D03*
X108325000Y-91375000D03*
X108875000Y-95425000D03*
X109900000Y-95400000D03*
X111800000Y-94425000D03*
X84675000Y-93675000D03*
X88475000Y-93750000D03*
X89875000Y-88075000D03*
X112175000Y-86200000D03*
%TO.N,+3V3*%
X98250000Y-97000000D03*
X96500000Y-97000000D03*
X94975000Y-100200000D03*
X93200000Y-100250000D03*
X90200000Y-80775000D03*
X88450000Y-80775000D03*
%TD*%
D21*
%TO.N,GND*%
X93750000Y-85837500D02*
X93750000Y-84750000D01*
X93980000Y-84520000D02*
X93980000Y-84000000D01*
X93750000Y-84750000D02*
X93980000Y-84520000D01*
D22*
X93980000Y-84000000D02*
X93980000Y-83520000D01*
X94275000Y-83225000D02*
X94275000Y-82500000D01*
X93980000Y-83520000D02*
X94275000Y-83225000D01*
D21*
X100162500Y-87750000D02*
X101250000Y-87750000D01*
X101480000Y-87980000D02*
X102000000Y-87980000D01*
X101250000Y-87750000D02*
X101480000Y-87980000D01*
X98250000Y-95730000D02*
X98520000Y-96000000D01*
X98250000Y-94162500D02*
X98250000Y-95730000D01*
X90270000Y-90750000D02*
X90000000Y-91020000D01*
X91837500Y-90750000D02*
X90270000Y-90750000D01*
X98250000Y-92150000D02*
X98200000Y-92100000D01*
X98250000Y-94162500D02*
X98250000Y-92150000D01*
D22*
X93980000Y-96000000D02*
X95100000Y-96000000D01*
X88020000Y-99280000D02*
X88000000Y-99300000D01*
X88020000Y-98000000D02*
X88020000Y-99280000D01*
X87700000Y-89900000D02*
X87800000Y-90000000D01*
X86350000Y-89900000D02*
X87700000Y-89900000D01*
X103220000Y-87980000D02*
X103300000Y-87900000D01*
X102000000Y-87980000D02*
X103220000Y-87980000D01*
D21*
X93550000Y-90750000D02*
X93600000Y-90700000D01*
X91837500Y-90750000D02*
X93550000Y-90750000D01*
D22*
X86430000Y-81250000D02*
X87150000Y-81250000D01*
X87100000Y-81200000D02*
X87100000Y-79800000D01*
X87150000Y-81250000D02*
X87100000Y-81200000D01*
X90000000Y-86040000D02*
X90000000Y-84900000D01*
X115000000Y-95000000D02*
X115000000Y-93800000D01*
D21*
X93750000Y-85837500D02*
X93750000Y-87450000D01*
D22*
X84650000Y-93650000D02*
X84675000Y-93675000D01*
X84650000Y-92100000D02*
X84650000Y-93650000D01*
X87520000Y-94855000D02*
X87525000Y-94850000D01*
X87520000Y-96000000D02*
X87520000Y-94855000D01*
X89820000Y-88020000D02*
X89875000Y-88075000D01*
X88500000Y-88020000D02*
X89820000Y-88020000D01*
D21*
X113600000Y-86200000D02*
X112175000Y-86200000D01*
D22*
X88500000Y-93725000D02*
X88475000Y-93750000D01*
X88500000Y-91980000D02*
X88500000Y-93725000D01*
D21*
%TO.N,+3V3*%
X93250000Y-85837500D02*
X93250000Y-84750000D01*
X93020000Y-84520000D02*
X93020000Y-84000000D01*
X93250000Y-84750000D02*
X93020000Y-84520000D01*
D22*
X93020000Y-84000000D02*
X93020000Y-83520000D01*
X92725000Y-83225000D02*
X92725000Y-82500000D01*
X93020000Y-83520000D02*
X92725000Y-83225000D01*
D21*
X90250000Y-87250000D02*
X90000000Y-87000000D01*
X91837500Y-87250000D02*
X90250000Y-87250000D01*
X100162500Y-87250000D02*
X101250000Y-87250000D01*
X101480000Y-87020000D02*
X102000000Y-87020000D01*
X101250000Y-87250000D02*
X101480000Y-87020000D01*
X98750000Y-94162500D02*
X98750000Y-95227020D01*
X99480000Y-95957020D02*
X99480000Y-96000000D01*
X98750000Y-95227020D02*
X99480000Y-95957020D01*
D22*
X113412500Y-97700000D02*
X114000000Y-98287500D01*
X111900000Y-97700000D02*
X112900000Y-97700000D01*
X112900000Y-97700000D02*
X113412500Y-97700000D01*
X112900000Y-101450000D02*
X112475000Y-101875000D01*
X112475000Y-101875000D02*
X102775000Y-101875000D01*
X102775000Y-101875000D02*
X102775000Y-97975000D01*
X100800000Y-96000000D02*
X99480000Y-96000000D01*
X98275000Y-97025000D02*
X98250000Y-97000000D01*
X101825000Y-97025000D02*
X98275000Y-97025000D01*
X102775000Y-97975000D02*
X101825000Y-97025000D01*
X101825000Y-97025000D02*
X100800000Y-96000000D01*
X96500000Y-98490000D02*
X96490000Y-98500000D01*
X96500000Y-97000000D02*
X96500000Y-98490000D01*
D21*
X95000000Y-98490000D02*
X95010000Y-98500000D01*
D22*
X96490000Y-98500000D02*
X95010000Y-98500000D01*
X95010000Y-100165000D02*
X94975000Y-100200000D01*
X95010000Y-98500000D02*
X95010000Y-100165000D01*
X90500000Y-100200000D02*
X90500000Y-97287500D01*
X90550000Y-100250000D02*
X90500000Y-100200000D01*
X92500000Y-103000000D02*
X92500000Y-101175000D01*
X91575000Y-100250000D02*
X90550000Y-100250000D01*
X92500000Y-101175000D02*
X91575000Y-100250000D01*
X93200000Y-100250000D02*
X91575000Y-100250000D01*
X88980000Y-98000000D02*
X89150000Y-98000000D01*
X89862500Y-97287500D02*
X90500000Y-97287500D01*
X89150000Y-98000000D02*
X89862500Y-97287500D01*
X86030000Y-86150000D02*
X86430000Y-85750000D01*
X82475010Y-95033012D02*
X82475010Y-86150000D01*
X87641998Y-100200000D02*
X82475010Y-95033012D01*
X90500000Y-100200000D02*
X87641998Y-100200000D01*
X92725000Y-82500000D02*
X92725000Y-80775000D01*
X88450000Y-80775000D02*
X88450000Y-81400000D01*
X88450000Y-81400000D02*
X86775000Y-83075000D01*
X86775000Y-83075000D02*
X84000000Y-83075000D01*
X83769999Y-85980001D02*
X83600000Y-86150000D01*
X83769999Y-83305001D02*
X83769999Y-85980001D01*
X84000000Y-83075000D02*
X83769999Y-83305001D01*
X83600000Y-86150000D02*
X86030000Y-86150000D01*
X82475010Y-86150000D02*
X83600000Y-86150000D01*
X112900000Y-99300000D02*
X116250000Y-99300000D01*
X112900000Y-97700000D02*
X112900000Y-99300000D01*
X112900000Y-99300000D02*
X112900000Y-101450000D01*
X116250000Y-99300000D02*
X117475000Y-98075000D01*
X117475000Y-98075000D02*
X117475000Y-93450000D01*
X117475000Y-93450000D02*
X116525000Y-93450000D01*
X116525000Y-93450000D02*
X115750000Y-92675000D01*
X115750000Y-92675000D02*
X115750000Y-80925000D01*
X111325000Y-76500000D02*
X111000000Y-76500000D01*
X114125000Y-79300000D02*
X110400000Y-79300000D01*
X115750000Y-80925000D02*
X114125000Y-79300000D01*
X114125000Y-79300000D02*
X111325000Y-76500000D01*
X110100000Y-79600000D02*
X110100000Y-86515000D01*
X110400000Y-79300000D02*
X110100000Y-79600000D01*
X102505000Y-86515000D02*
X110100000Y-86515000D01*
X111000000Y-76500000D02*
X111000000Y-75175000D01*
X111000000Y-75175000D02*
X110825000Y-75000000D01*
X110825000Y-75000000D02*
X98025000Y-75000000D01*
X98000000Y-75025000D02*
X98000000Y-76500000D01*
X98025000Y-75000000D02*
X98000000Y-75025000D01*
X102000000Y-87020000D02*
X102505000Y-86515000D01*
X91737490Y-87149990D02*
X91837500Y-87149990D01*
X91550000Y-86962500D02*
X91737490Y-87149990D01*
X91550000Y-80775000D02*
X91550000Y-86962500D01*
X92725000Y-80775000D02*
X91550000Y-80775000D01*
X91550000Y-80775000D02*
X90200000Y-80775000D01*
D23*
%TO.N,+3.3VA*%
X91750000Y-91250000D02*
X91725010Y-91274990D01*
X91837500Y-91250000D02*
X91750000Y-91250000D01*
X90020000Y-91980000D02*
X90000000Y-91980000D01*
D21*
X91837500Y-91250000D02*
X90772980Y-91250000D01*
X90042980Y-91980000D02*
X90000000Y-91980000D01*
X90772980Y-91250000D02*
X90042980Y-91980000D01*
D22*
X88767500Y-95712500D02*
X88480000Y-96000000D01*
X89287500Y-95712500D02*
X89287500Y-94062500D01*
X90500000Y-95712500D02*
X89287500Y-95712500D01*
X89287500Y-95712500D02*
X88767500Y-95712500D01*
X90000000Y-93350000D02*
X90000000Y-91980000D01*
X89287500Y-94062500D02*
X90000000Y-93350000D01*
D21*
%TO.N,/NRST*%
X92920000Y-96100000D02*
X93020000Y-96000000D01*
X91800000Y-96100000D02*
X92920000Y-96100000D01*
X91800000Y-94273942D02*
X91800000Y-96100000D01*
X95300000Y-90773942D02*
X91800000Y-94273942D01*
X93489998Y-89700000D02*
X95300000Y-89700000D01*
X92939998Y-90250000D02*
X93489998Y-89700000D01*
X95300000Y-89700000D02*
X95300000Y-90773942D01*
X91837500Y-90250000D02*
X92939998Y-90250000D01*
%TO.N,/HSE_IN*%
X91837500Y-89250000D02*
X90750000Y-89250000D01*
X90480000Y-88980000D02*
X88500000Y-88980000D01*
X90750000Y-89250000D02*
X90480000Y-88980000D01*
X88500000Y-88980000D02*
X87520000Y-88980000D01*
X87520000Y-88980000D02*
X87500000Y-88960000D01*
X87500000Y-88960000D02*
X87500000Y-88500000D01*
X87500000Y-88500000D02*
X84500000Y-88500000D01*
X84500000Y-89750000D02*
X84650000Y-89900000D01*
X84500000Y-88500000D02*
X84500000Y-89750000D01*
D23*
%TO.N,/HSE_OUT*%
X91750000Y-89750000D02*
X91725010Y-89774990D01*
X91837500Y-89750000D02*
X91750000Y-89750000D01*
X86450000Y-92000000D02*
X86350000Y-92100000D01*
D21*
X91837500Y-89750000D02*
X89250000Y-89750000D01*
X88500000Y-90500000D02*
X88500000Y-91020000D01*
X89250000Y-89750000D02*
X88500000Y-90500000D01*
X88500000Y-91020000D02*
X87520000Y-91020000D01*
X87520000Y-91020000D02*
X87500000Y-91040000D01*
X87500000Y-91040000D02*
X87500000Y-92000000D01*
X87400000Y-92100000D02*
X86350000Y-92100000D01*
X87500000Y-92000000D02*
X87400000Y-92100000D01*
D22*
%TO.N,/PWR_LED_K*%
X114000000Y-95020000D02*
X113980000Y-95000000D01*
X114000000Y-96712500D02*
X114000000Y-95020000D01*
D24*
%TO.N,/USB_D+*%
X100162500Y-88750000D02*
X100187500Y-88775000D01*
X103631800Y-88775000D02*
X104806800Y-87600000D01*
X100187500Y-88775000D02*
X103631800Y-88775000D01*
X112624999Y-87500000D02*
X113600000Y-87500000D01*
X112524999Y-87600000D02*
X112624999Y-87500000D01*
X104806800Y-87600000D02*
X112524999Y-87600000D01*
%TO.N,/USB_D-*%
X112624999Y-88150000D02*
X113600000Y-88150000D01*
X100162500Y-89250000D02*
X100187500Y-89225000D01*
X103818200Y-89225000D02*
X104993200Y-88050000D01*
X100187500Y-89225000D02*
X103818200Y-89225000D01*
X109679802Y-88050000D02*
X109734812Y-88105010D01*
X104993200Y-88050000D02*
X109679802Y-88050000D01*
X110465188Y-88105010D02*
X110520198Y-88050000D01*
X109734812Y-88105010D02*
X110465188Y-88105010D01*
X112524999Y-88050000D02*
X112624999Y-88150000D01*
X110520198Y-88050000D02*
X112524999Y-88050000D01*
D21*
%TO.N,/USART1_RX*%
X95750000Y-85837500D02*
X95750000Y-79750000D01*
X95750000Y-79750000D02*
X95000000Y-79000000D01*
X95000000Y-79000000D02*
X93000000Y-79000000D01*
X93000000Y-76580000D02*
X92920000Y-76500000D01*
X93000000Y-79000000D02*
X93000000Y-76580000D01*
%TO.N,/USART1_TX*%
X96250000Y-85837500D02*
X96250000Y-84250000D01*
X96250000Y-84250000D02*
X98000000Y-82500000D01*
X98000000Y-82500000D02*
X98000000Y-78000000D01*
X98000000Y-78000000D02*
X95500000Y-78000000D01*
X95500000Y-76540000D02*
X95460000Y-76500000D01*
X95500000Y-78000000D02*
X95500000Y-76540000D01*
%TO.N,/SWCLK*%
X106000000Y-78000000D02*
X106000000Y-76580000D01*
X103500000Y-78000000D02*
X106000000Y-78000000D01*
X106000000Y-76580000D02*
X105920000Y-76500000D01*
X98750000Y-82750000D02*
X103500000Y-78000000D01*
X98750000Y-85837500D02*
X98750000Y-82750000D01*
%TO.N,/SWDIO*%
X98750000Y-88250000D02*
X98750000Y-87323942D01*
X100162500Y-88250000D02*
X98750000Y-88250000D01*
X98750000Y-87323942D02*
X100500000Y-85573942D01*
X100500000Y-85573942D02*
X100500000Y-83000000D01*
X100500000Y-83000000D02*
X104500000Y-79000000D01*
X104500000Y-79000000D02*
X108500000Y-79000000D01*
X108500000Y-76540000D02*
X108460000Y-76500000D01*
X108500000Y-79000000D02*
X108500000Y-76540000D01*
%TO.N,/I2C2_SDA*%
X97750000Y-94162500D02*
X97750000Y-95250000D01*
X97750000Y-95250000D02*
X97500000Y-95500000D01*
X97500000Y-98490000D02*
X97510000Y-98500000D01*
X97500000Y-95500000D02*
X97500000Y-98490000D01*
X97510000Y-98500000D02*
X97510000Y-98510000D01*
X97510000Y-102930000D02*
X97580000Y-103000000D01*
X97510000Y-98500000D02*
X97510000Y-102930000D01*
%TO.N,/I2C2_SCL*%
X95010000Y-102970000D02*
X95040000Y-103000000D01*
X93990000Y-101950000D02*
X95040000Y-103000000D01*
X93990000Y-98500000D02*
X93990000Y-101950000D01*
X93990000Y-98302880D02*
X93990000Y-98500000D01*
X97250000Y-95042880D02*
X93990000Y-98302880D01*
X97250000Y-94162500D02*
X97250000Y-95042880D01*
%TO.N,/SW_BOOT0*%
X86430000Y-84250000D02*
X88250000Y-84250000D01*
X88250000Y-84250000D02*
X88300000Y-84200000D01*
X88300000Y-84200000D02*
X88300000Y-83300000D01*
X88390000Y-83210000D02*
X89200000Y-83210000D01*
X88300000Y-83300000D02*
X88390000Y-83210000D01*
%TO.N,/BOOT0*%
X95250000Y-80250000D02*
X95250000Y-85837500D01*
X95000000Y-80000000D02*
X95250000Y-80250000D01*
X89300000Y-80000000D02*
X95000000Y-80000000D01*
X89200000Y-80100000D02*
X89300000Y-80000000D01*
X89200000Y-82190000D02*
X89200000Y-80100000D01*
%TD*%
D23*
%TO.N,GND*%
X110350663Y-91043870D02*
X110375006Y-93551214D01*
X110377644Y-93575575D01*
X110384985Y-93598954D01*
X110396745Y-93620452D01*
X110412474Y-93639242D01*
X110431566Y-93654603D01*
X110453288Y-93665944D01*
X110476805Y-93672829D01*
X110500000Y-93675000D01*
X112800000Y-93675000D01*
X112800000Y-96425000D01*
X108276316Y-96425000D01*
X108324993Y-91776309D01*
X108322847Y-91751899D01*
X108315979Y-91728376D01*
X108304655Y-91706646D01*
X108289309Y-91687542D01*
X108270531Y-91671799D01*
X108249042Y-91660022D01*
X108225669Y-91652664D01*
X108200000Y-91650000D01*
X106421528Y-91650000D01*
X106378570Y-90125000D01*
X108913456Y-90125000D01*
X110350663Y-91043870D01*
%TA.AperFunction,Conductor*%
D25*
G36*
X110350663Y-91043870D02*
G01*
X110375006Y-93551214D01*
X110377644Y-93575575D01*
X110384985Y-93598954D01*
X110396745Y-93620452D01*
X110412474Y-93639242D01*
X110431566Y-93654603D01*
X110453288Y-93665944D01*
X110476805Y-93672829D01*
X110500000Y-93675000D01*
X112800000Y-93675000D01*
X112800000Y-96425000D01*
X108276316Y-96425000D01*
X108324993Y-91776309D01*
X108322847Y-91751899D01*
X108315979Y-91728376D01*
X108304655Y-91706646D01*
X108289309Y-91687542D01*
X108270531Y-91671799D01*
X108249042Y-91660022D01*
X108225669Y-91652664D01*
X108200000Y-91650000D01*
X106421528Y-91650000D01*
X106378570Y-90125000D01*
X108913456Y-90125000D01*
X110350663Y-91043870D01*
G37*
%TD.AperFunction*%
%TD*%
D23*
%TO.N,+3V3*%
X107700002Y-96974328D02*
X107702273Y-96998727D01*
X107709260Y-97022214D01*
X107720694Y-97043887D01*
X107736138Y-97062912D01*
X107754996Y-97078559D01*
X107776544Y-97090226D01*
X107799955Y-97097465D01*
X107826794Y-97099987D01*
X112925000Y-97026807D01*
X112925000Y-100750000D01*
X104775000Y-100750000D01*
X104775000Y-97500000D01*
X106025000Y-97500000D01*
X106049386Y-97497598D01*
X106072835Y-97490485D01*
X106094446Y-97478934D01*
X106113388Y-97463388D01*
X106128934Y-97444446D01*
X106140485Y-97422835D01*
X106147598Y-97399386D01*
X106149998Y-97374378D01*
X106125615Y-92473314D01*
X107724317Y-92451710D01*
X107700002Y-96974328D01*
%TA.AperFunction,Conductor*%
D25*
G36*
X107700002Y-96974328D02*
G01*
X107702273Y-96998727D01*
X107709260Y-97022214D01*
X107720694Y-97043887D01*
X107736138Y-97062912D01*
X107754996Y-97078559D01*
X107776544Y-97090226D01*
X107799955Y-97097465D01*
X107826794Y-97099987D01*
X112925000Y-97026807D01*
X112925000Y-100750000D01*
X104775000Y-100750000D01*
X104775000Y-97500000D01*
X106025000Y-97500000D01*
X106049386Y-97497598D01*
X106072835Y-97490485D01*
X106094446Y-97478934D01*
X106113388Y-97463388D01*
X106128934Y-97444446D01*
X106140485Y-97422835D01*
X106147598Y-97399386D01*
X106149998Y-97374378D01*
X106125615Y-92473314D01*
X107724317Y-92451710D01*
X107700002Y-96974328D01*
G37*
%TD.AperFunction*%
%TD*%
D23*
%TO.N,VBUS*%
X112786573Y-88769548D02*
X112866686Y-88793850D01*
X112950000Y-88802056D01*
X114250000Y-88802056D01*
X114333314Y-88793850D01*
X114413427Y-88769548D01*
X114448293Y-88750912D01*
X114437423Y-88852367D01*
X113373657Y-88875000D01*
X105975000Y-88875000D01*
X105950614Y-88877402D01*
X105927165Y-88884515D01*
X105905554Y-88896066D01*
X105886612Y-88911612D01*
X105872997Y-88927748D01*
X105447997Y-89527748D01*
X105435861Y-89549036D01*
X105428112Y-89572283D01*
X105425021Y-89597686D01*
X105400021Y-90947686D01*
X105400004Y-90948954D01*
X105393754Y-91695829D01*
X105393753Y-91696054D01*
X105375819Y-94425000D01*
X103725000Y-94425000D01*
X103725000Y-92044463D01*
X104559125Y-91807752D01*
X104581930Y-91798783D01*
X104602546Y-91785539D01*
X104620183Y-91768526D01*
X104634161Y-91748400D01*
X104643945Y-91725934D01*
X104649157Y-91701990D01*
X104650000Y-91687500D01*
X104650000Y-89654026D01*
X105325159Y-88750000D01*
X112750001Y-88750000D01*
X112786573Y-88769548D01*
%TA.AperFunction,Conductor*%
D25*
G36*
X112786573Y-88769548D02*
G01*
X112866686Y-88793850D01*
X112950000Y-88802056D01*
X114250000Y-88802056D01*
X114333314Y-88793850D01*
X114413427Y-88769548D01*
X114448293Y-88750912D01*
X114437423Y-88852367D01*
X113373657Y-88875000D01*
X105975000Y-88875000D01*
X105950614Y-88877402D01*
X105927165Y-88884515D01*
X105905554Y-88896066D01*
X105886612Y-88911612D01*
X105872997Y-88927748D01*
X105447997Y-89527748D01*
X105435861Y-89549036D01*
X105428112Y-89572283D01*
X105425021Y-89597686D01*
X105400021Y-90947686D01*
X105400004Y-90948954D01*
X105393754Y-91695829D01*
X105393753Y-91696054D01*
X105375819Y-94425000D01*
X103725000Y-94425000D01*
X103725000Y-92044463D01*
X104559125Y-91807752D01*
X104581930Y-91798783D01*
X104602546Y-91785539D01*
X104620183Y-91768526D01*
X104634161Y-91748400D01*
X104643945Y-91725934D01*
X104649157Y-91701990D01*
X104650000Y-91687500D01*
X104650000Y-89654026D01*
X105325159Y-88750000D01*
X112750001Y-88750000D01*
X112786573Y-88769548D01*
G37*
%TD.AperFunction*%
%TD*%
M02*
